<svg id="Capa_1" enable-background="new 0 0 512 512" height="512" viewBox="0 0 512 512" width="512" xmlns="http://www.w3.org/2000/svg"><g><g><path d="m10.045 342.628h491.911v134.872h-491.911z" fill="#ccf3e2"/><path d="m388.281 342.628v83.299h-378.236v51.572h491.91v-134.871z" fill="#b1b6e1"/><path d="m388.67 480.33h-41.977v-80.753s12.27-30.52 20.665-30.52 21.311 30.52 21.311 30.52v80.753z" fill="#c49a8b"/><path d="m459.223 480.33h-41.977v-80.753s12.27-30.52 20.665-30.52 21.311 30.52 21.311 30.52v80.753z" fill="#c49a8b"/><path d="m337.871 343.695c-21.529-57.245-86.19-98.822-162.627-98.822-76.436 0-141.098 41.576-162.627 98.822z" fill="#f6e06e"/><path d="m175.245 244.874c-6.51 0-12.932.309-19.251.896 15.665 1.655 30.476 5.564 43.934 11.329l-13.968 14.033c-32.219 32.369-76.007 50.567-121.678 50.567h-40.82c-4.33 7.014-7.974 14.365-10.845 21.997h325.254c-21.528-57.246-86.19-98.822-162.626-98.822z" fill="#dda86a"/><path d="m500.31 343.695c-21.529-57.245-86.19-98.822-162.627-98.822-76.436 0-141.098 41.576-162.627 98.822z" fill="#faf1a9"/><path d="m337.683 244.874c-6.624 0-13.157.319-19.584.927 37.276 3.781 69.518 18.982 89.804 40.595 9.003 9.592 2.334 25.28-10.821 25.28h-204.355c-7.423 9.923-13.399 20.661-17.671 32.02h325.254c-21.529-57.246-86.19-98.822-162.627-98.822z" fill="#dfb5a7"/><path d="m319.572 72.718 8.251 23.201c.353.993 1.053 1.781 1.935 2.178l20.613 9.287c2.912 1.312 2.912 5.952 0 7.264l-20.613 9.287c-.883.398-1.582 1.185-1.935 2.178l-8.251 23.201c-1.166 3.278-5.288 3.278-6.454 0l-8.251-23.201c-.353-.993-1.053-1.78-1.935-2.178l-20.613-9.287c-2.912-1.312-2.912-5.952 0-7.264l20.613-9.287c.883-.398 1.582-1.185 1.935-2.178l8.251-23.201c1.166-3.278 5.289-3.278 6.454 0z" fill="#faf1a9"/><path d="m116.786 30.299 6.121 17.21c.262.737.781 1.321 1.436 1.616l15.291 6.889c2.16.973 2.16 4.415 0 5.388l-15.291 6.889c-.655.295-1.173.879-1.436 1.616l-6.121 17.21c-.865 2.431-3.923 2.431-4.787 0l-6.121-17.21c-.262-.737-.781-1.321-1.436-1.616l-15.29-6.889c-2.16-.973-2.16-4.415 0-5.388l15.29-6.889c.655-.295 1.174-.879 1.436-1.616l6.121-17.21c.865-2.432 3.923-2.432 4.787 0z" fill="#faf1a9"/><g fill="#f6e06e"><ellipse cx="432.683" cy="68.662" rx="18.017" ry="18.017" transform="matrix(.91 -.414 .414 .91 10.411 185.346)"/><circle cx="215.864" cy="32.228" r="7.772"/></g></g><g><path d="m507.254 334.106c-12.012-27.648-33.952-52.269-62.388-69.834-12.781-7.895-26.552-14.262-41.033-19.03v-27.028c0-5.548-4.497-10.045-10.045-10.045s-10.045 4.497-10.045 10.045v21.54c-14.871-3.258-30.312-4.925-46.061-4.925-28.625 0-56.233 5.509-81.241 16.077-24.286-10.259-51.022-15.739-78.762-16.043v-30.005c0-5.548-4.497-10.045-10.045-10.045s-10.045 4.497-10.045 10.045v30.68c-7.621.613-15.142 1.625-22.534 3.023v-36.482c0-5.548-4.497-10.045-10.045-10.045s-10.045 4.497-10.045 10.045v41.33c-7.711 2.28-15.236 5.002-22.534 8.162v-37.446c0-5.548-4.497-10.045-10.045-10.045s-10.045 4.497-10.045 10.045v47.59c-1.438.836-2.868 1.684-4.282 2.558-28.213 17.428-50.028 41.801-62.1 69.184-3.508 1.564-5.959 5.078-5.959 9.17v134.872c0 5.548 4.497 10.045 10.045 10.045h491.91c5.548 0 10.045-4.497 10.045-10.045v-134.872c0-3.6-1.9-6.748-4.746-8.521zm-232.047-1.523c14.635-10.522 37.64-17.137 62.476-17.137s47.841 6.615 62.476 17.137zm142.77 0c-15.296-17.761-45.958-29.191-80.294-29.191s-64.998 11.43-80.294 29.191h-27.608c20.271-28.487 62.137-47.408 107.902-47.408s87.631 18.921 107.902 47.408zm-305.208 0c14.635-10.522 37.64-17.137 62.476-17.137.915 0 1.821.026 2.729.045-3.487 5.531-6.557 11.242-9.186 17.092zm73.408-28.791c-3.592-.26-7.239-.401-10.932-.401-34.332 0-64.974 11.434-80.27 29.191h-27.632c20.271-28.487 62.137-47.408 107.902-47.408 8.776 0 17.402.707 25.763 2.041-5.388 5.241-10.346 10.783-14.831 16.577zm298.029 28.791h-24.295c-20.612-35.914-68.247-59.461-122.228-59.461s-101.615 23.547-122.228 59.461h-24.295c25.404-47.022 82.113-77.664 146.523-77.664 64.41-.001 121.12 30.642 146.523 77.664zm-308.961-77.665c19.918 0 39.086 2.956 56.831 8.4-.525.317-1.053.631-1.575.953-6.331 3.911-12.335 8.176-17.985 12.742-11.876-2.536-24.388-3.892-37.271-3.892-53.977 0-101.597 23.549-122.208 59.461h-24.316c25.404-47.021 82.114-77.664 146.524-77.664zm207.398 212.537h-29.923v-66.696c4.765-11.545 11.348-22.903 14.659-25.391 3.405 2.449 10.145 13.647 15.264 25.447zm70.553 0h-29.923v-66.696c4.765-11.545 11.348-22.903 14.659-25.391 3.405 2.449 10.145 13.647 15.264 25.447zm38.714 0h-26.66v-67.877c0-.807-.162-1.606-.477-2.349-.137-.324-3.409-8.027-7.801-15.859-7.208-12.855-12.908-18.339-19.061-18.339-6.116 0-11.909 5.683-18.785 18.425-4.229 7.839-7.342 15.549-7.472 15.874-.288.715-.435 1.478-.435 2.248v67.877h-16.523v-67.877c0-.807-.162-1.606-.477-2.349-.137-.324-3.409-8.027-7.801-15.859-7.208-12.855-12.908-18.339-19.061-18.339-6.116 0-11.909 5.683-18.785 18.425-4.229 7.839-7.342 15.549-7.472 15.874-.287.715-.435 1.478-.435 2.248v67.877h-320.576v-114.783h471.821z" fill="#3c122c"/><path d="m152.938 391.325c-.015 0-.029 0-.043 0-18.996-.08-38.154-.085-56.942-.018-.012 0-.025 0-.037 0-5.53 0-10.024-4.474-10.044-10.009-.02-5.547 4.461-10.06 10.009-10.081 18.838-.068 38.048-.061 57.098.018 5.547.023 10.026 4.539 10.003 10.087-.023 5.534-4.516 10.003-10.044 10.003z" fill="#fff"/><path d="m59.932 391.325h-9.426c-5.548 0-10.045-4.497-10.045-10.045s4.497-10.045 10.045-10.045h9.426c5.548 0 10.045 4.497 10.045 10.045s-4.497 10.045-10.045 10.045z" fill="#fff"/><g fill="#3c122c"><path d="m269.318 402.336c-3.328 0-6.027-2.698-6.027-6.027v-11.381c0-3.328 2.698-6.027 6.027-6.027s6.027 2.699 6.027 6.027v11.381c0 3.329-2.699 6.027-6.027 6.027z"/><path d="m303.537 426.389c-3.328 0-6.027-2.699-6.027-6.027v-11.381c0-3.328 2.699-6.027 6.027-6.027s6.027 2.699 6.027 6.027v11.381c0 3.329-2.699 6.027-6.027 6.027z"/><path d="m215.436 440.788c-3.328 0-6.027-2.699-6.027-6.027v-11.381c0-3.328 2.699-6.027 6.027-6.027s6.027 2.699 6.027 6.027v11.381c0 3.329-2.698 6.027-6.027 6.027z"/></g></g></g></svg>