<svg id="Capa_1" enable-background="new 0 0 512 512" height="512" viewBox="0 0 512 512" width="512" xmlns="http://www.w3.org/2000/svg"><g><g><path d="m410.835 252.315c-4.973-12.368-109.848-163.913-142.886-212.92-4.594-6.815-14.619-6.825-19.225-.018l-134.183 198.288c-73.529 107.514 10.36 267.15 143.918 263.764 126.396 2.943 211.152-141.045 152.376-249.114z" fill="#c1e5ef"/><path d="m410.835 252.314c-4.972-12.368-109.848-163.913-142.886-212.92-4.594-6.815-14.619-6.825-19.225-.018l-7.571 11.188c32.586 47.893 103.281 150.38 106.939 159.477 47.381 87.117-20.943 203.188-122.833 200.816-69.988 1.775-123.04-51.987-135.329-113.637-18.299 98.454 58.147 207.007 168.529 204.209 126.396 2.943 211.152-141.045 152.376-249.115z" fill="#a6aaed"/><path d="m72.229 71.424 8.641 24.297c.37 1.04 1.102 1.865 2.027 2.281l21.587 9.726c3.05 1.374 3.05 6.233 0 7.607l-21.587 9.726c-.924.416-1.657 1.241-2.027 2.281l-8.641 24.297c-1.221 3.433-5.538 3.433-6.759 0l-8.641-24.297c-.37-1.04-1.102-1.865-2.027-2.281l-21.587-9.726c-3.05-1.374-3.05-6.233 0-7.607l21.587-9.726c.924-.417 1.657-1.241 2.027-2.281l8.641-24.297c1.221-3.432 5.538-3.432 6.759 0z" fill="#c1e5ef"/><path d="m393.313 1.91 6.41 18.023c.275.772.818 1.383 1.503 1.692l16.013 7.214c2.262 1.019 2.262 4.624 0 5.643l-16.013 7.214c-.686.309-1.229.92-1.503 1.692l-6.41 18.023c-.905 2.546-4.108 2.546-5.013 0l-6.41-18.023c-.275-.772-.818-1.383-1.503-1.692l-16.013-7.214c-2.262-1.019-2.262-4.624 0-5.643l16.013-7.214c.686-.309 1.229-.92 1.503-1.692l6.41-18.023c.905-2.547 4.107-2.547 5.013 0z" fill="#c1e5ef"/><g fill="#96b4eb"><circle cx="462.203" cy="131.498" r="18.868"/><circle cx="138.183" cy="28.5" r="8.139"/></g></g><g><path d="m254.376 512c-32.04.001-63.187-8.989-90.345-26.114-26.395-16.644-48.537-40.5-64.032-68.989-33.002-60.677-30.757-131.63 5.859-185.17l134.154-198.246c4.121-6.089 10.968-9.723 18.318-9.723h.019c7.358.007 14.208 3.654 18.322 9.756 8.83 13.099 22.659 33.326 38.671 56.747 66.77 97.669 100.037 146.923 104.922 157.374 14.888 27.529 21.735 58.889 19.805 90.72-1.822 30.062-11.33 59.952-27.495 86.438-33.461 54.823-89.439 87.196-150.349 87.199zm7.827-21.047c53.525.003 102.817-28.631 132.413-77.121 30.492-49.961 33.101-108.462 6.978-156.492-.185-.34-.351-.691-.498-1.05-4.259-9.543-66.14-100.059-103.122-154.156-16.033-23.452-29.878-43.705-38.747-56.86-.087-.13-.322-.478-.896-.478-.001.001-.001.001-.002.001-.571 0-.805.345-.894.476l-134.181 198.288c-32.164 47.03-33.981 109.58-4.773 163.283 29.433 54.113 81.665 85.525 139.71 84.069z" fill="#3c122c"/><path d="m176.639 254.595c-2.137 0-4.292-.649-6.155-1.996-4.708-3.404-5.765-9.98-2.361-14.688 8.548-11.823 16.667-24.403 24.519-36.57l2.646-4.098c3.153-4.879 9.665-6.279 14.544-3.125 4.88 3.153 6.279 9.665 3.125 14.544l-2.639 4.087c-8 12.396-16.273 25.213-25.147 37.487-2.056 2.847-5.271 4.359-8.532 4.359z" fill="#fff"/><path d="m222.503 185.957c-2.096 0-4.212-.625-6.055-1.925-4.747-3.35-5.88-9.913-2.531-14.66 2.163-3.067 4.33-6.06 6.438-8.895 3.465-4.662 10.056-5.632 14.718-2.164 4.662 3.467 5.632 10.056 2.164 14.718-2.003 2.695-4.066 5.544-6.13 8.469-2.048 2.905-5.3 4.457-8.604 4.457z" fill="#fff"/><g fill="#3c122c"><path d="m324.085 322.999c-3.486 0-6.312-2.826-6.312-6.311v-11.919c0-3.486 2.826-6.312 6.312-6.312s6.312 2.826 6.312 6.312v11.919c0 3.485-2.826 6.311-6.312 6.311z"/><path d="m341.957 379.94c-3.486 0-6.312-2.826-6.312-6.312v-11.918c0-3.486 2.826-6.312 6.312-6.312s6.312 2.826 6.312 6.312v11.919c-.001 3.485-2.827 6.311-6.312 6.311z"/><path d="m292.497 405.293c-3.486 0-6.311-2.826-6.311-6.312v-11.918c0-3.486 2.826-6.311 6.311-6.311 3.486 0 6.312 2.826 6.312 6.311v11.918c-.001 3.486-2.827 6.312-6.312 6.312z"/></g></g></g></svg>