<svg id="Capa_1" enable-background="new 0 0 512 512" height="512" viewBox="0 0 512 512" width="512" xmlns="http://www.w3.org/2000/svg"><g><g><path d="m211.48 109.97c-41.276 0-170.753 295.753-170.753 295.753h341.507c-.001 0-129.479-295.753-170.754-295.753z" fill="#96b4eb"/><path d="m289.051 210.763c-34.326-65.539-59.079-100.794-77.572-100.794s-42.921 38.198-77.248 103.737c0 0 20.604 19.406 35.909 19.426s24.724-16.483 38.852-17.071c14.128-.589 31.199 17.052 42.384 17.071 11.185.02 37.675-22.369 37.675-22.369z" fill="#fff"/><path d="m211.48 109.969c-5.052 0-11.428 4.44-18.723 12.216 17.131 20.52 40.146 64.058 61.379 108.381 12.724-3.201 24.43-9.336 34.937-17.127-30.689-56.501-61.145-103.47-77.593-103.47z" fill="#e1bdfc"/><path d="m289.071 213.44c-10.506 7.791-22.213 13.926-34.937 17.127 14.606 30.491 28.369 61.353 38.791 85.349 9.153 21.073-6.284 44.619-29.259 44.619h-202.535c-12.509 27.153-20.404 45.188-20.404 45.188h341.507c-.001 0-46.845-107.001-93.163-192.283z" fill="#8286ea"/><path d="m458.584 380.02-22.056-27.709h12.457c7.124 0 11.092-8.232 6.656-13.805l-26.324-33.071h11.124c5.501 0 8.566-6.357 5.14-10.662l-29.752-37.377c-2.232-2.804-6.492-2.804-8.724 0l-29.752 37.377c-3.426 4.304-.361 10.662 5.14 10.662h11.123l-26.324 33.071c-4.436 5.573-.468 13.805 6.656 13.805h12.457l-22.056 27.709c-4.732 5.945-.499 14.725 7.099 14.725h80.036c7.598 0 11.832-8.78 7.1-14.725z" fill="#a1e8c3"/><path d="m490.661 492.677h-469.322c-6.178 0-11.186-5.008-11.186-11.185v-71.995c0-6.177 5.008-11.185 11.186-11.185h469.323c6.178 0 11.185 5.008 11.185 11.185v71.995c0 6.178-5.008 11.185-11.186 11.185z" fill="#ccf3e2"/><path d="m10.153 438.475v43.017c0 6.177 5.008 11.186 11.185 11.186h469.323c6.178 0 11.185-5.008 11.185-11.186v-43.017z" fill="#c49a8b"/><path d="m323.171 11.654 8.34 23.452c.357 1.004 1.064 1.8 1.956 2.202l20.836 9.387c2.944 1.326 2.944 6.016 0 7.343l-20.836 9.388c-.892.402-1.599 1.198-1.956 2.202l-8.34 23.452c-1.178 3.313-5.345 3.313-6.524 0l-8.34-23.452c-.357-1.004-1.064-1.8-1.956-2.202l-20.836-9.388c-2.944-1.326-2.944-6.016 0-7.343l20.836-9.387c.892-.402 1.599-1.198 1.956-2.202l8.34-23.452c1.178-3.313 5.345-3.313 6.524 0z" fill="#c1e5ef"/><path d="m445.635 106.364 6.187 17.396c.265.745.789 1.335 1.451 1.633l15.456 6.963c2.184.984 2.184 4.463 0 5.447l-15.456 6.963c-.662.298-1.186.888-1.451 1.633l-6.187 17.396c-.874 2.458-3.965 2.458-4.839 0l-6.187-17.396c-.265-.745-.789-1.335-1.451-1.633l-15.456-6.963c-2.184-.984-2.184-4.463 0-5.447l15.456-6.963c.662-.298 1.186-.888 1.451-1.633l6.187-17.396c.874-2.458 3.965-2.458 4.839 0z" fill="#c1e5ef"/><g fill="#96b4eb"><ellipse cx="65.838" cy="93.421" rx="18.212" ry="18.212" transform="matrix(.526 -.851 .851 .526 -48.244 100.312)"/><circle cx="132.032" cy="44.538" r="7.856"/></g></g><g><path d="m490.661 388.159h-20.105c.68-5.082-.698-10.277-4.029-14.463l-10.145-12.746c4.047-1.734 7.405-4.881 9.411-9.042 3.139-6.512 2.294-14.07-2.208-19.725l-14.918-18.742c2.909-1.639 5.311-4.147 6.837-7.314 2.813-5.835 2.054-12.609-1.98-17.677l-29.752-37.378c-3.001-3.77-7.486-5.932-12.305-5.932s-9.304 2.162-12.305 5.932c0 .001-.001.001-.001.001l-29.752 37.378c-4.035 5.069-4.792 11.843-1.979 17.678 1.527 3.166 3.929 5.674 6.837 7.312l-14.616 18.362c-11.156-23.746-24.386-51.213-38.262-78.552-21.95-43.244-41.225-77.759-57.291-102.586-28.997-44.807-42.87-50.849-52.618-50.849s-23.622 6.041-52.617 50.849c-16.067 24.827-35.342 59.342-57.291 102.586-27.812 54.794-53.03 110.112-64.146 134.908h-16.087c-11.767 0-21.339 9.572-21.339 21.339v71.994c0 11.766 9.572 21.339 21.339 21.339h469.322c11.767 0 21.339-9.573 21.339-21.339v-71.994c0-11.767-9.572-21.339-21.339-21.339zm-66.239-72.571 21.149 26.569h-68.208l21.149-26.569zm-33.121 46.876h40.331l17.613 22.128h-75.559zm20.165-94.245 21.54 27.062h-43.082zm-237.042-104.211c25.778-40.31 35.878-43.615 37.055-43.87 1.177.256 11.277 3.56 37.055 43.87 8.572 13.403 18.088 29.631 28.45 48.491-4.709 1.917-8.151 4.694-11.16 7.133-4.663 3.779-8.347 6.764-16.211 6.764s-11.548-2.984-16.211-6.764c-5.212-4.225-11.699-9.482-23.881-9.482-12.18 0-18.667 5.258-23.879 9.482-4.662 3.779-8.344 6.763-16.207 6.763s-11.546-2.984-16.208-6.763c-2.308-1.871-4.868-3.942-8.06-5.671 10.679-19.494 20.462-36.201 29.257-49.953zm-55.77 100.454c7.21-14.24 14.116-27.499 20.713-39.79 2.178 1.18 4.085 2.72 6.189 4.425 5.213 4.224 11.699 9.482 23.88 9.482 12.18 0 18.667-5.258 23.879-9.482 4.661-3.779 8.344-6.763 16.207-6.763 7.864 0 11.548 2.985 16.211 6.764 5.213 4.224 11.7 9.482 23.881 9.482s18.669-5.257 23.881-9.482c3.056-2.477 5.699-4.606 9.367-5.784 6.817 12.668 13.966 26.382 21.442 41.148 20.502 40.493 39.496 81.06 52.281 109.007l-.181.228c-3.331 4.185-4.708 9.381-4.028 14.462h-292.682c12.181-26.959 34.5-75.385 58.96-123.697zm-97.315 144.004h469.322c.569 0 1.032.463 1.032 1.032v22.886h-471.386v-22.886c0-.57.463-1.032 1.032-1.032zm469.322 74.058h-469.322c-.569 0-1.032-.463-1.032-1.032v-36.925h471.386v36.925c0 .569-.463 1.032-1.032 1.032z" fill="#3c122c"/><path d="m120.902 337.552c-1.441 0-2.904-.308-4.295-.959-5.079-2.376-7.271-8.42-4.894-13.499l9.615-20.558c2.376-5.08 8.419-7.271 13.499-4.897 5.08 2.375 7.272 8.419 4.896 13.498l-9.617 20.56c-1.725 3.689-5.385 5.855-9.204 5.855z" fill="#fff"/><path d="m142.787 290.762c-1.442 0-2.905-.308-4.297-.96-5.079-2.377-7.269-8.422-4.891-13.5l1.686-3.604c2.374-5.08 8.415-7.276 13.497-4.901 5.08 2.374 7.274 8.417 4.9 13.497l-1.692 3.616c-1.726 3.688-5.384 5.852-9.203 5.852z" fill="#fff"/><g fill="#3c122c"><path d="m237.352 359.994c-3.364 0-6.092-2.728-6.092-6.092v-11.504c0-3.364 2.728-6.092 6.092-6.092s6.092 2.728 6.092 6.092v11.504c0 3.364-2.728 6.092-6.092 6.092z"/><path d="m277.262 344.215c-3.364 0-6.092-2.728-6.092-6.092v-11.504c0-3.364 2.728-6.092 6.092-6.092s6.092 2.728 6.092 6.092v11.504c0 3.364-2.728 6.092-6.092 6.092z"/><path d="m251.084 302.883c-3.364 0-6.092-2.728-6.092-6.092v-11.504c0-3.364 2.728-6.092 6.092-6.092s6.092 2.728 6.092 6.092v11.504c.001 3.364-2.727 6.092-6.092 6.092z"/></g></g></g></svg>