<svg id="Capa_1" enable-background="new 0 0 512 512" height="512" viewBox="0 0 512 512" width="512" xmlns="http://www.w3.org/2000/svg"><g><g><path d="m428.138 168.821c-1.375-61.068-51.306-110.152-112.704-110.152-56.554 0-103.378 41.643-111.49 95.939-2.589-.402-5.24-.613-7.941-.613-28.367 0-51.363 22.996-51.363 51.363 0 2.969.266 5.874.75 8.705h-9.855c-30.771 0-55.715 24.945-55.715 55.715 0 30.771 24.945 55.715 55.715 55.715h248.995v-.09c1.259.057 2.524.09 3.797.09 46.053 0 83.387-37.333 83.387-83.386 0-31.635-17.618-59.155-43.576-73.286z" fill="#96b4eb"/><path d="m388.327 325.493c46.053 0 83.387-37.333 83.387-83.386 0-31.635-17.618-59.155-43.576-73.286-1.375-61.068-51.306-110.152-112.704-110.152-6.932 0-13.716.629-20.302 1.827 37.599 7.509 67.115 37.41 74.057 75.211 1.675 9.12 6.592 17.265 13.626 23.306 14.872 12.772 24.293 31.712 24.293 52.853 0 38.461-31.179 69.64-69.64 69.64-1.063 0-2.12-.028-3.171-.075v.075h-207.946c-19.849 0-36.786-12.434-43.471-29.934-2.02 5.843-3.11 12.121-3.057 18.663.25 30.712 25.731 55.258 56.444 55.258z" fill="#8286ea"/><path d="m39.893 87.711 8.346 23.469c.357 1.005 1.065 1.801 1.958 2.203l20.851 9.394c2.946 1.327 2.946 6.021 0 7.348l-20.851 9.394c-.893.402-1.6 1.199-1.958 2.203l-8.346 23.469c-1.179 3.316-5.349 3.316-6.528 0l-8.346-23.469c-.357-1.005-1.065-1.801-1.958-2.203l-20.851-9.394c-2.946-1.327-2.946-6.021 0-7.348l20.851-9.394c.893-.402 1.6-1.199 1.958-2.203l8.346-23.469c1.179-3.315 5.349-3.315 6.528 0z" fill="#c1e5ef"/><path d="m145.191 17.84 6.191 17.409c.265.745.79 1.336 1.452 1.635l15.467 6.968c2.185.985 2.185 4.466 0 5.451l-15.467 6.969c-.662.298-1.187.889-1.452 1.634l-6.191 17.409c-.875 2.46-3.968 2.46-4.843 0l-6.191-17.409c-.265-.745-.79-1.336-1.452-1.634l-15.467-6.969c-2.185-.985-2.185-4.466 0-5.451l15.467-6.968c.662-.298 1.187-.889 1.452-1.635l6.191-17.409c.875-2.459 3.968-2.459 4.843 0z" fill="#c1e5ef"/><g fill="#96b4eb"><ellipse cx="493.889" cy="30.261" rx="18.222" ry="18.222"/><circle cx="51.051" cy="18.436" r="7.862"/></g></g><g><path d="m135.536 335.655c-36.324 0-65.876-29.552-65.876-65.876 0-35.978 28.989-65.312 64.837-65.868.77-33.14 27.875-59.887 61.153-60.075 5.789-25.199 19.492-48.092 39.208-65.227 22.335-19.411 50.951-30.1 80.576-30.1 32.336 0 62.867 12.457 85.969 35.076 21.688 21.235 34.568 49.198 36.631 79.262 27.184 17.061 43.84 46.918 43.84 79.262 0 51.58-41.965 93.546-93.547 93.546zm252.791-20.322c40.377 0 73.226-32.849 73.226-73.226 0-26.849-14.665-51.511-38.273-64.362-3.197-1.741-5.218-5.057-5.3-8.696-1.243-55.261-47.245-100.22-102.546-100.22-50.397 0-94.007 37.522-101.441 87.279-.399 2.675-1.85 5.081-4.029 6.683-2.178 1.602-4.909 2.271-7.579 1.856-2.105-.326-4.252-.492-6.382-.492-22.719 0-41.202 18.483-41.202 41.202 0 2.293.203 4.646.605 6.994.504 2.952-.319 5.975-2.249 8.263-1.931 2.288-4.772 3.609-7.767 3.609h-9.855c-25.119 0-45.554 20.436-45.554 45.554 0 25.119 20.436 45.555 45.554 45.555h247.686z" fill="#3c122c"/><path d="m245.036 157.912c-1.454 0-2.93-.314-4.332-.975-5.074-2.396-7.245-8.452-4.849-13.527 4.442-9.407 10.597-17.832 18.295-25.042 4.095-3.837 10.525-3.626 14.362.47 3.836 4.096 3.626 10.525-.47 14.361-5.739 5.376-10.515 11.907-13.811 18.888-1.735 3.673-5.386 5.825-9.195 5.825z" fill="#fff"/><path d="m281.389 115.455c-3.966 0-7.733-2.336-9.369-6.219-2.178-5.172.249-11.13 5.42-13.308 1.073-.452 2.159-.884 3.229-1.283 5.259-1.962 11.11.71 13.071 5.968 1.962 5.257-.71 11.11-5.969 13.071-.822.307-1.636.631-2.444.971-1.286.543-2.623.8-3.938.8z" fill="#fff"/><g fill="#3c122c"><path d="m149.062 420.701c-1.848 0-3.717-.503-5.398-1.56-4.751-2.986-6.181-9.259-3.195-14.01l17.643-28.068c2.987-4.751 9.259-6.182 14.01-3.195 4.751 2.986 6.181 9.259 3.195 14.01l-17.643 28.068c-1.931 3.071-5.235 4.755-8.612 4.755z"/><path d="m247.701 420.701c-1.848 0-3.717-.503-5.398-1.56-4.751-2.986-6.181-9.259-3.195-14.01l17.643-28.068c2.988-4.751 9.259-6.182 14.01-3.195 4.751 2.986 6.181 9.259 3.195 14.01l-17.643 28.068c-1.931 3.071-5.234 4.755-8.612 4.755z"/><path d="m339.925 420.701c-1.848 0-3.718-.504-5.398-1.56-4.751-2.986-6.181-9.259-3.195-14.01l17.643-28.068c2.987-4.751 9.26-6.18 14.01-3.195 4.751 2.986 6.181 9.259 3.195 14.01l-17.642 28.068c-1.932 3.071-5.235 4.755-8.613 4.755z"/><path d="m173.12 501.426c-1.848 0-3.717-.504-5.398-1.56-4.751-2.986-6.181-9.259-3.195-14.01l17.643-28.068c2.987-4.75 9.259-6.182 14.01-3.195 4.751 2.986 6.181 9.259 3.195 14.01l-17.643 28.068c-1.931 3.071-5.234 4.755-8.612 4.755z"/><path d="m265.344 501.426c-1.848 0-3.718-.504-5.398-1.56-4.751-2.986-6.181-9.259-3.195-14.01l17.643-28.068c2.988-4.75 9.26-6.18 14.01-3.195 4.751 2.986 6.181 9.259 3.195 14.01l-17.643 28.068c-1.931 3.071-5.234 4.755-8.612 4.755z"/><path d="m369.576 207.065c-3.367 0-6.096-2.73-6.096-6.096v-11.513c0-3.367 2.73-6.096 6.096-6.096 3.367 0 6.096 2.73 6.096 6.096v11.513c.001 3.366-2.729 6.096-6.096 6.096z"/><path d="m406.163 248.932c-3.367 0-6.096-2.73-6.096-6.096v-11.513c0-3.367 2.73-6.096 6.096-6.096 3.367 0 6.096 2.73 6.096 6.096v11.513c.001 3.366-2.729 6.096-6.096 6.096z"/><path d="m347.322 266.283c-3.367 0-6.096-2.73-6.096-6.096v-11.513c0-3.367 2.73-6.096 6.096-6.096 3.367 0 6.096 2.73 6.096 6.096v11.513c.001 3.366-2.729 6.096-6.096 6.096z"/></g></g></g></svg>