<svg id="Capa_1" enable-background="new 0 0 512 512" height="512" viewBox="0 0 512 512" width="512" xmlns="http://www.w3.org/2000/svg"><g><g><path d="m266.123 501.94h-9.724c-10.721 0-19.413-8.691-19.413-19.413v-126.091h48.55v126.091c-.001 10.721-8.692 19.413-19.413 19.413z" fill="#a1e8c3"/><path d="m236.986 384.497h48.55v50.456h-48.55z" fill="#85adc2"/><path d="m435.512 258.009c-17.45-60.934-78.2-143.263-165.197-238.997-4.833-5.318-13.223-5.289-18.006.073-113.545 127.298-173.171 219.863-171.924 275.036-.014.742-.028 1.484-.028 2.229 0 62.624 50.766 113.39 113.39 113.39 25.295 0 48.653-8.286 67.515-22.287 18.862 14.001 42.219 22.287 67.514 22.287 62.624 0 113.39-50.766 113.39-113.39-.001-13.458-2.351-26.365-6.654-38.341z" fill="#ccf3e2"/><path d="m435.512 258.009c-17.45-60.934-78.2-143.263-165.197-238.997-4.833-5.318-13.223-5.289-18.006.074-4.697 5.266-9.293 10.467-13.805 15.613 64.695 72.39 109.658 134.728 123.041 181.462 3.614 10.06 5.521 20.935 5.359 32.277-.69 48.192-39.277 87.991-87.429 90.075-8.745.378-17.233-.472-25.307-2.392-22.304-5.305-45.517-4.616-67.904.328-6.38 1.409-13.01 2.152-19.814 2.152-38.787 0-71.913-24.146-85.229-58.216-.654 4.809-.935 9.389-.837 13.736-.014.742-.028 1.484-.028 2.229 0 62.624 50.766 113.39 113.39 113.39 25.295 0 48.653-8.286 67.515-22.287 18.675 13.863 41.758 22.123 66.764 22.285 60.849.395 111.59-47.9 114.046-108.7.611-15.15-1.759-29.669-6.559-43.029z" fill="#b1b6e1"/><path d="m62.407 66.605 8.264 23.237c.354.995 1.054 1.783 1.938 2.182l20.646 9.301c2.917 1.314 2.917 5.961 0 7.275l-20.646 9.302c-.884.398-1.584 1.187-1.938 2.182l-8.264 23.237c-1.168 3.283-5.296 3.283-6.464 0l-8.264-23.237c-.354-.995-1.054-1.783-1.938-2.182l-20.645-9.302c-2.917-1.314-2.917-5.961 0-7.275l20.645-9.301c.884-.398 1.585-1.187 1.938-2.182l8.264-23.237c1.168-3.283 5.297-3.283 6.464 0z" fill="#ccf3e2"/><path d="m393.965 1.826 6.13 17.237c.262.738.782 1.323 1.438 1.618l15.314 6.9c2.164.975 2.164 4.422 0 5.397l-15.314 6.9c-.656.296-1.175.88-1.438 1.618l-6.13 17.237c-.866 2.435-3.929 2.435-4.795 0l-6.13-17.237c-.262-.738-.782-1.323-1.438-1.618l-15.315-6.9c-2.164-.975-2.164-4.422 0-5.397l15.315-6.9c.656-.295 1.175-.88 1.438-1.618l6.13-17.237c.866-2.435 3.929-2.435 4.795 0z" fill="#ccf3e2"/><g fill="#a1e8c3"><ellipse cx="471.047" cy="121.633" rx="18.045" ry="18.045" transform="matrix(.099 -.995 .995 .099 303.589 578.402)"/><circle cx="125.772" cy="13.326" r="7.784"/></g></g><g><path d="m176.857 187.898c-1.958 0-3.936-.57-5.674-1.76-4.585-3.138-5.757-9.399-2.619-13.984 8.127-11.875 17.22-24.19 27.795-37.65 3.433-4.369 9.758-5.128 14.127-1.695s5.128 9.757 1.695 14.126c-10.301 13.11-19.137 25.076-27.013 36.583-1.95 2.848-5.104 4.38-8.311 4.38z" fill="#fff"/><path d="m223.126 127.5c-2.27 0-4.552-.764-6.432-2.33-4.27-3.556-4.848-9.899-1.292-14.169 1.576-1.893 3.16-3.782 4.748-5.667 3.583-4.249 9.928-4.789 14.177-1.208 4.248 3.581 4.79 9.928 1.208 14.176-1.563 1.854-3.121 3.713-4.674 5.576-1.988 2.388-4.851 3.622-7.735 3.622z" fill="#fff"/><g fill="#3c122c"><path d="m445.092 254.922c-16.641-57.702-71.38-137.088-167.332-242.676-4.197-4.62-10.177-7.263-16.419-7.263-.034 0-.069 0-.102 0-6.273.029-12.264 2.728-16.438 7.405-57.622 64.602-101.365 120.419-130.013 165.9-30.511 48.437-45.058 86.332-44.466 115.842-.015.739-.027 1.478-.027 2.22 0 68.071 55.38 123.45 123.451 123.45 11.364 0 22.491-1.54 33.179-4.51v67.237c0 16.252 13.221 29.473 29.473 29.473h9.724c16.252 0 29.473-13.222 29.473-29.473v-67.237c10.688 2.97 21.815 4.51 33.179 4.51 68.071 0 123.451-55.379 123.451-123.45.001-14.205-2.399-28.141-7.133-41.428zm-169.617 227.605c0 5.157-4.195 9.352-9.352 9.352h-9.724c-5.157 0-9.352-4.195-9.352-9.352v-74.799c4.882-2.346 9.633-5.007 14.214-8.011 4.581 3.004 9.332 5.666 14.214 8.011zm53.3-82.848c-22.334 0-43.591-7.012-61.478-20.277v-178.249c0-3.333-2.703-6.036-6.036-6.036-3.334 0-6.036 2.703-6.036 6.036v178.249c-17.887 13.265-39.144 20.277-61.478 20.277-56.977 0-103.33-46.353-103.33-103.329 0-.678.013-1.354.027-2.029.003-.142.003-.285-.001-.427-1.144-50.622 55.843-140.828 169.374-268.111.498-.558 1.098-.677 1.515-.678.383-.015 1.029.112 1.538.674 94.001 103.441 147.309 180.311 162.97 235 .061.213.129.424.203.632 4.021 11.193 6.061 22.948 6.061 34.939.001 56.976-46.352 103.329-103.329 103.329z"/><path d="m214.559 324.712c-.575 0-1.159-.082-1.739-.256l-35.307-10.606c-3.192-.959-5.003-4.325-4.044-7.517.959-3.193 4.319-5.004 7.518-4.045l35.307 10.606c3.192.959 5.003 4.325 4.044 7.517-.785 2.614-3.183 4.301-5.779 4.301z"/><path d="m214.559 257.04c-.575 0-1.159-.083-1.739-.257l-35.307-10.606c-3.192-.959-5.003-4.325-4.044-7.517.959-3.193 4.319-5.008 7.518-4.044l35.307 10.606c3.192.959 5.003 4.325 4.044 7.517-.785 2.614-3.183 4.301-5.779 4.301z"/><path d="m307.961 324.712c-2.596 0-4.994-1.687-5.779-4.301-.959-3.193.852-6.558 4.044-7.518l35.308-10.606c3.198-.958 6.559.852 7.518 4.045s-.852 6.559-4.044 7.518l-35.308 10.606c-.579.174-1.164.256-1.739.256z"/><path d="m307.961 257.04c-2.596 0-4.994-1.687-5.779-4.301-.959-3.193.852-6.559 4.044-7.518l35.308-10.606c3.198-.959 6.559.852 7.518 4.045s-.852 6.559-4.044 7.517l-35.308 10.606c-.579.175-1.164.257-1.739.257z"/></g></g></g></svg>