<svg height="512" viewBox="0 0 64 64" width="512" xmlns="http://www.w3.org/2000/svg"><g id="Filled_outline" data-name="Filled outline"><path d="m35 41c5 6 13 9 13 9l-3 2a2.414 2.414 0 0 0 -.914 1.981l-.086.019-17-5-8-8c8 4 16 0 16 0z" fill="#66342e"/><path d="m5.106 19a6.972 6.972 0 0 0 4.894 2h.051c-.026.332-.051.665-.051 1a13 13 0 0 0 16.185 12.6l-.185.4 3 2c-4 2-6 0-6 0 0 3-4 4-4 4l-14-15h-2v-7z" fill="#66342e"/><path d="m10 7a6.994 6.994 0 0 1 6.267 3.9 12.929 12.929 0 0 1 14.238.5 7.036 7.036 0 1 1 5.44 9.515c.03.36.055.721.055 1.088a13 13 0 0 1 -26 0c0-.338.025-.671.051-1-.017 0-.034 0-.051 0a7 7 0 0 1 0-14.003z" fill="#aabece"/><path d="m23 37s2 2 6 0l-3-2 .192-.411a12.994 12.994 0 0 0 9.808-12.589c0-.367-.025-.728-.055-1.088a6.937 6.937 0 0 0 7.745-4.849c3.285.364 17.31 2.693 17.31 15.937 0 15-8 14-8 14s4 4 1 8-13 2-9-2l3-2s-8-3-13-9c0 0-8 4-16 0 0 0 4-1 4-4z" fill="#7d8d9c"/><circle cx="10" cy="14" fill="#cfdfe8" r="3"/><circle cx="37" cy="14" fill="#cfdfe8" r="3"/><rect fill="#394d5c" height="8" rx="2" transform="matrix(-1 0 0 -1 46 48)" width="4" x="21" y="20"/><path d="m54 54c3-4-1-8-1-8s3.845.476 6.2-4.23l1.8-.77v13l-7.891.877a4.435 4.435 0 0 0 .891-.877z" fill="#66342e"/><path d="m10 18a4 4 0 1 0 -4-4 4 4 0 0 0 4 4zm0-6a2 2 0 1 1 -2 2 2 2 0 0 1 2-2z"/><path d="m37 18a4 4 0 1 0 -4-4 4 4 0 0 0 4 4zm0-6a2 2 0 1 1 -2 2 2 2 0 0 1 2-2z"/><path d="m20 26a3 3 0 0 0 6 0v-4a3 3 0 0 0 -6 0zm2-4a1 1 0 0 1 2 0v4a1 1 0 0 1 -2 0z"/><circle cx="18.5" cy="18.5" r="1.5"/><circle cx="27.5" cy="18.5" r="1.5"/><path d="m53.447 23.105-.9 1.787c.216.111 5.27 2.816 3.475 10.891l1.954.434c2.145-9.651-4.461-13.078-4.529-13.112z"/><path d="m55 38h2v2h-2z"/><path d="m61.551 40.165a1 1 0 0 0 -.571-.157 27.423 27.423 0 0 0 1.02-8.008c0-12.92-12.555-16.067-17.1-16.782a7.993 7.993 0 0 0 -14.795-5.272 13.919 13.919 0 0 0 -13.468-.4 7.992 7.992 0 0 0 -13.555 8.454h-.082a1 1 0 0 0 -1 1v7a1 1 0 0 0 1 1h1.565l21.728 22.707a1 1 0 0 0 .425.252l16.605 4.884c.525 1.093 1.842 1.889 3.7 2.2a10.022 10.022 0 0 0 1.668.137 8.587 8.587 0 0 0 4.793-1.341l7.628-.847a1 1 0 0 0 .888-.992v-13a1 1 0 0 0 -.449-.835zm-51.551-32.165a5.966 5.966 0 0 1 5.371 3.339 1 1 0 0 0 1.415.411 11.931 11.931 0 0 1 13.142.463 1 1 0 0 0 1.506-.443 6 6 0 1 1 5.566 8.23 5.883 5.883 0 0 1 -.905-.077 1.018 1.018 0 0 0 -.832.258 1 1 0 0 0 -.315.812c.028.333.052.667.052 1.007a12 12 0 0 1 -24 0c0-.312.024-.62.048-.926a1.02 1.02 0 0 0 -.289-.755 1.059 1.059 0 0 0 -.759-.319 6 6 0 0 1 0-12zm9.3 31.851-13.569-14.533a1 1 0 0 0 -.731-.318h-1v-5h.734a8.014 8.014 0 0 0 4.266 1.931v.069a13.941 13.941 0 0 0 16.49 13.765l-.045.067 1.376.917a3.461 3.461 0 0 1 -3.114-.456 1 1 0 0 0 -1.707.707c0 1.621-1.782 2.5-2.7 2.851zm25 11.442a4.429 4.429 0 0 0 -1.013 1.453l-15.761-4.633-4.742-4.743a18.75 18.75 0 0 0 3.543.412l6.226 3.118.894-1.79-3.238-1.619a21.724 21.724 0 0 0 4.519-1.271 31.614 31.614 0 0 0 7.107 5.78h-2.673l-2.846-.949-.632 1.9 3 1a1 1 0 0 0 .316.049h6.511c.13.062.278.136.4.192l-1.464.976a1.063 1.063 0 0 0 -.154.125zm15.7 1.812-4.582.509a6.821 6.821 0 0 0 -.534-6.812 7.238 7.238 0 0 0 2.995-1.611 9.569 9.569 0 0 0 2.027-2.634l.094-.04zm-3.4-9.452a4.832 4.832 0 0 1 -3.475 1.355 1 1 0 0 0 -.831 1.7c.139.138 3.358 3.424.907 6.693-1.163 1.55-3.824 2.015-5.846 1.673-1.375-.232-2.137-.763-2.264-1.159-.086-.271.114-.684.552-1.14l2.913-1.942a1 1 0 0 0 -.2-1.769c-.035-.012-3.643-1.768-3.643-1.768-.027-.028-2.726-2.8-2.269-6.256.346-2.616 2.386-5.03 6.064-7.175l-1.008-1.729c-4.249 2.479-6.618 5.393-7.041 8.663a8.724 8.724 0 0 0 .554 4.265 26.883 26.883 0 0 1 -5.24-4.7 1 1 0 0 0 -1.216-.255 18.871 18.871 0 0 1 -13.013.863 5.247 5.247 0 0 0 2.169-2.42 7.039 7.039 0 0 0 5.738-.653 1 1 0 0 0 .108-1.727l-1.623-1.082a14.01 14.01 0 0 0 9.064-13.09 8.009 8.009 0 0 0 7.347-4.841c14.5 1.941 15.653 11.816 15.653 14.841 0 7.1-1.85 10.256-3.4 11.653z"/><circle cx="18.5" cy="18.5" r="1.5"/><circle cx="27.5" cy="18.5" r="1.5"/></g></svg>