<svg height="512" viewBox="0 0 64 64" width="512" xmlns="http://www.w3.org/2000/svg"><g id="Filled_outline" data-name="Filled outline"><path d="m33.947 22.919c-.078-.056-3.947 5.081-3.947 5.081h-9.99l-2.741-3.132s-10.269 11.132-3.269 36.132h10v-2h5v2h9l.286-2h4.714v2h8v-8c0-21-10-25-17.053-30.081z" fill="#ad6327"/><path d="m36.989 19.009-6.994 8.991h-9.99l-6.994-7.992 1.936-8.012 5.058-3.996h9.544l4.995 3.996z" fill="#d3843d"/><path d="m31 20c0 3.314-2.686 8-6 8s-6-4.686-6-8 2.686-5 6-5 6 1.686 6 5z" fill="#f9bb4b"/><path d="m29.553 7.981 1-2c1.247-2.494 4.531-4.125 7-2a4.221 4.221 0 0 1 -1 7l-2 1z" fill="#ad6327"/><path d="m19.938 7.981-1-2c-1.247-2.494-4.532-4.125-7-2a4.221 4.221 0 0 0 1 7l2 1z" fill="#ad6327"/><path d="m51 53h2a2 2 0 0 1 2 2 2 2 0 0 1 -2 2h-2a0 0 0 0 1 0 0v-4a0 0 0 0 1 0 0z" fill="#d3843d"/><ellipse cx="26" cy="44" fill="#f9bb4b" rx="5" ry="8"/><circle cx="25" cy="19" fill="#66342e" r="2"/><path d="m12.49 11.875 1.3.651-1.873 7.75 4.04 4.617c-2.141 2.85-9.1 14.308-2.92 36.377a1 1 0 0 0 .963.73h10a1 1 0 0 0 1-1v-1h3v1a1 1 0 0 0 1 1h9a1 1 0 0 0 .99-.858l.163-1.142h2.847v1a1 1 0 0 0 1 1h8a1 1 0 0 0 1-1v-3h1a3 3 0 0 0 0-6h-1.014c-.286-18.322-8.412-23.787-14.968-28.185-.559-.375-1.091-.747-1.63-1.119l2.724-3.5-2.337-6.705 1.225-.616a5.376 5.376 0 0 0 2.961-4.145 5.042 5.042 0 0 0 -1.755-4.507 4.859 4.859 0 0 0 -4.2-1.123 6.445 6.445 0 0 0 -4.347 3.434l-.733 1.466h-8.361l-.733-1.466a6.446 6.446 0 0 0 -4.348-3.434 4.861 4.861 0 0 0 -4.2 1.122 5.039 5.039 0 0 0 -1.754 4.508 5.375 5.375 0 0 0 2.96 4.145zm39.51 42.125h1a1 1 0 0 1 0 2h-1zm-24 3v1h-3v-1a3 3 0 0 0 -3-3h-1.095a39.2 39.2 0 0 1 -.1-5.446c1.03 2.676 2.947 4.446 5.195 4.446 2.766 0 5.035-2.674 5.757-6.428a13.047 13.047 0 0 1 .468 7.428h-1.225a3 3 0 0 0 -3 3zm-6-13c0-3.794 1.832-7 4-7s4 3.206 4 7-1.832 7-4 7-4-3.206-4-7zm13.9-18.524c6.611 4.433 14.1 9.457 14.1 27.524v7h-6v-3h2a1 1 0 0 0 .275-1.961 6.041 6.041 0 0 1 -3.69-3.386l-1.876.694a7.126 7.126 0 0 0 1.851 2.753 1 1 0 0 0 -.56.9v2h-2.561l1.551-10.858-1.98-.284-1.877 13.142h-7.133v-3a1 1 0 0 1 1-1h2a1 1 0 0 0 .961-.725 14.945 14.945 0 0 0 -2.042-12.714c-.447-4.338-2.883-7.561-5.919-7.561s-5.5 3.255-5.926 7.625c-2.066 4.24-1.108 12.162-1.066 12.5a1 1 0 0 0 .992.875h2a1 1 0 0 1 1 1v3h-8.238c-3.289-12.221-2.281-20.88-.833-26.025a25.357 25.357 0 0 1 3.386-7.531l2.236 2.556h10.933l3.667-4.714c.571.396 1.157.79 1.749 1.19zm-15.9-5.476c0-2.949 2.583-4 5-4s5 1.051 5 4c0 2.992-2.472 7-5 7s-5-4.008-5-7zm11.448-13.572a4.467 4.467 0 0 1 2.952-2.367 2.821 2.821 0 0 1 2.5.679 3.07 3.07 0 0 1 1.074 2.745 3.382 3.382 0 0 1 -1.87 2.6l-1.428.714-.658-.527 1.812-2.718-1.664-1.11-1.714 2.575-1.643-1.314zm-11.096 2.572h8.848l4.5 3.6 2.171 6.227s-4.606 5.829-6.371 8.173h-.4a11.058 11.058 0 0 0 2.9-7 5.559 5.559 0 0 0 -2.868-5h1.868v-2h-2v1.925a8.364 8.364 0 0 0 -4-.925 8.364 8.364 0 0 0 -4 .925v-1.925h-2v2h1.868a5.559 5.559 0 0 0 -2.868 5 11.058 11.058 0 0 0 2.9 7h-.446l-6.353-7.261 1.733-7.173zm-7.762-4.261a2.845 2.845 0 0 1 1.892-.739 3.113 3.113 0 0 1 .608.062 4.469 4.469 0 0 1 2.953 2.367l.639 1.277-1.424 1.138-2.551-2.551-1.414 1.414 2.394 2.393-.875.7-1.427-.714a3.379 3.379 0 0 1 -1.87-2.6 3.071 3.071 0 0 1 1.075-2.747z"/><path d="m44.051 40.316 1.9-.632c-2.085-6.254-8.137-10.345-8.394-10.516l-1.11 1.664c.053.038 5.74 3.893 7.604 9.484z"/><path d="m45 42h2v2h-2z"/><path d="m22 19a3 3 0 0 0 2 2.816v1.378a.894.894 0 0 1 -.569-.109 1.569 1.569 0 0 1 -.431-1.093l-1 .008h-1a3.516 3.516 0 0 0 1.258 2.7 2.7 2.7 0 0 0 1.622.5 4.4 4.4 0 0 0 1.12-.169 4.4 4.4 0 0 0 1.12.175 2.7 2.7 0 0 0 1.622-.5 3.516 3.516 0 0 0 1.258-2.706h-2a1.619 1.619 0 0 1 -.427 1.083.885.885 0 0 1 -.573.111v-1.378a2.995 2.995 0 1 0 -4-2.816zm3-1a1 1 0 1 1 -1 1 1 1 0 0 1 1-1z"/></g></svg>