<svg height="512" viewBox="0 0 64 64" width="512" xmlns="http://www.w3.org/2000/svg"><g id="Filled_outline" data-name="Filled outline"><path d="m59 20h-4l-1-3h-8v-1.893a2.075 2.075 0 0 0 -1.664-2.08 2 2 0 0 0 -2.336 1.973v5l-5 2h-23l-3 4v9l6 5 3 10 9 2 .515-2.06a2 2 0 0 0 -1.455-2.425l-2.06-.515-2-7 12-1-4 6 5 6 2.155-1.616a2 2 0 0 0 .214-3.015l-.369-.369 6-9 4-9h10a2 2 0 0 0 2-2v-4a2 2 0 0 0 -2-2z" fill="#ad6327"/><path d="m52 13a2 2 0 0 1 2 2v2a0 0 0 0 1 0 0h-4a0 0 0 0 1 0 0v-2a2 2 0 0 1 2-2z" fill="#d3843d"/><path d="m57 20h2a2 2 0 0 1 2 2v2a0 0 0 0 1 0 0h-2a2 2 0 0 1 -2-2v-2a0 0 0 0 1 0 0z" fill="#301a12"/><path d="m47.241 31.959 6.064 4.182a4 4 0 0 1 1.405 4.869l-1.432 2.637a2 2 0 0 1 -3.172.459l-1.106-1.106 1-3-5-3z" fill="#d3843d"/><path d="m3 43.206 5 7.794 3.2-1.921a2 2 0 0 0 .635-2.824l-.835-1.255 6-5-6-5z" fill="#d3843d"/><path d="m14 22-.986-.986c-1.063-1.063-3.114-1.214-4.014-.014l-.006.008a2.91 2.91 0 0 0 .521 3.507l1.485 1.485z" fill="#66342e"/><path d="m42.043 41.435 2.957-4.435 4-9-6 3z" fill="#f9bb4b"/><path d="m49 20h2v2h-2z"/><path d="m7.158 51.54a1 1 0 0 0 1.357.317l3.2-1.92a3 3 0 0 0 .953-4.237l-.337-.507 4.146-3.456 2.565 8.55a1 1 0 0 0 .741.689l9 2a1.018 1.018 0 0 0 .217.024 1 1 0 0 0 .969-.757l.515-2.06a3 3 0 0 0 -2.184-3.639l-1.5-.374-1.5-5.27 8.723-.728-2.851 4.277a1 1 0 0 0 .064 1.2l5 6a1 1 0 0 0 1.368.16l2.155-1.616a3 3 0 0 0 .523-4.3l5.018-7.545 3.5 2.1-.747 2.239a1 1 0 0 0 .242 1.023l1.105 1.103a3 3 0 0 0 4.758-.689l1.472-2.72a5.015 5.015 0 0 0 -1.756-6.086l-5.382-3.711 1.158-2.607h9.35a3 3 0 0 0 3-3v-4a3 3 0 0 0 -3-3h-3.279l-.721-2.163v-1.837a3 3 0 0 0 -6 0v1h-2v-.893a3.081 3.081 0 0 0 -2.5-3.066 3 3 0 0 0 -3.5 2.959v4.323l-4.192 1.677h-22.394l-.693-.693a4.134 4.134 0 0 0 -3.138-1.141 3.2 3.2 0 0 0 -2.389 1.242 3.9 3.9 0 0 0 .614 4.814l1.192 1.192v8.179l-7.716 7.914a1 1 0 0 0 -.126 1.239zm36.963-15.024-.721 1.084.546-5.952 3.009-1.505zm8.616.448a3 3 0 0 1 1.094 3.569l-1.431 2.636a.991.991 0 0 1 -.735.513 1 1 0 0 1 -.851-.283l-.669-.669.8-2.414a1 1 0 0 0 -.434-1.173l-4.238-2.543 1.392-3.132zm5.263-15.964h1a1 1 0 0 1 1 1v1h-1a1 1 0 0 1 -1-1zm-7-6a1 1 0 0 1 2 0v1h-2zm-36.5 8h22.5a1.012 1.012 0 0 0 .372-.071l5-2a1 1 0 0 0 .628-.929v-5a1 1 0 0 1 1.176-.985 1.082 1.082 0 0 1 .824 1.092v1.893a1 1 0 0 0 1 1h7.279l.772 2.316a1 1 0 0 0 .949.684h1v1a3 3 0 0 0 3 3h1v1a1 1 0 0 1 -1 1h-10a.991.991 0 0 0 -.443.114l-6 2.991a1 1 0 0 0 -.549.8l-.933 10.182-2.9 4.354a1 1 0 0 0 .125 1.262l.369.369a1 1 0 0 1 -.107 1.508l-1.4 1.046-3.914-4.7 3.586-5.379a1 1 0 0 0 -.917-1.547l-12 1a1 1 0 0 0 -.878 1.272l2 7a1 1 0 0 0 .719.7l2.059.515a1 1 0 0 1 .728 1.213l-.279 1.114-7.476-1.663-2.832-9.438a1 1 0 0 0 -.318-.481l-5.64-4.7v-8.2zm-4.7-1.4a1.264 1.264 0 0 1 .925-.439c.046 0 .093-.005.14-.005a2.1 2.1 0 0 1 1.442.565l.373.373-1.788 2.384-.67-.67a1.961 1.961 0 0 1 -.422-2.208zm1.27 14.76 4.368 3.64-5.078 4.232a1 1 0 0 0 -.192 1.323l.832 1.255a1 1 0 0 1 -.317 1.412l-2.365 1.421-4.047-6.309z"/></g></svg>