<?xml version="1.0" encoding="UTF-8"?>
<svg xmlns="http://www.w3.org/2000/svg" viewBox="0 0 64 64" width="512" height="512"><g id="Filled_outline" data-name="Filled outline"><path d="M48.213,14.03C39.292,13.6,36.2,18,32,18c-4,0-10,3-12,4a1.84,1.84,0,0,1-.474.151C19.8,20.727,19.764,19,18,19c-1.538,0-2.285,1.314-2.65,2.595-1.7-.357-3.379-.566-4.35.405-2,2-8,3-8,6s5,4,9,3,13,1,14,4,0,11,0,11H25a2,2,0,0,0,0,4h8a22.333,22.333,0,0,0,3-14l3,3s0,5-1,7a2,2,0,0,0,0,4H49s-2-8,1-12c3.058-4.077,11.309-2.96,10.991-11.471A13.255,13.255,0,0,0,48.213,14.03Z" style="fill:#995f5b"/><path d="M3,28a2.553,2.553,0,0,0,1,2H4a2.99,2.99,0,0,0,1.983-5.236C4.352,25.607,3,26.578,3,28Z" style="fill:#301a12"/><path d="M50,38c-1.659,2.212-1.787,5.643-1.572,8.272A10.26,10.26,0,0,0,54,45l-.851-9.362A8.484,8.484,0,0,0,50,38Z" style="fill:#66342e"/><rect x="11" y="24" width="2" height="2"/><path d="M3.476,30.875c1.877,1.466,5.485,1.917,8.766,1.095,3.851-.962,11.7,1.051,12.731,3.2.037.08.068.144.092.2.654,2.052.315,7.031.042,9.635H25a3,3,0,0,0,0,6h8a1,1,0,0,0,.832-.445A16.972,16.972,0,0,0,35.02,48.34,3,3,0,0,0,38,51H49a1,1,0,0,0,.971-1.242,24.442,24.442,0,0,1-.438-2.519,10.927,10.927,0,0,0,5.02-1.406A1,1,0,0,0,55,44.909l-.788-8.669q.423-.2.857-.392c3.188-1.436,7.155-3.223,6.925-9.357a14.312,14.312,0,0,0-13.729-13.46,22.725,22.725,0,0,0-11.8,2.571A10.956,10.956,0,0,1,32,17c-.2,0-1,.057-1,.057-3.528.345-7.958,2.343-10.367,3.515a3.143,3.143,0,0,0-.484-1.524A2.441,2.441,0,0,0,18,18a3.557,3.557,0,0,0-3.311,2.45c-1.362-.234-3.2-.352-4.4.843a12.39,12.39,0,0,1-3.112,1.781C4.752,24.2,2,25.484,2,28A3.575,3.575,0,0,0,3.476,30.875Zm45.89,14.381c-.1-2.284.139-4.93,1.434-6.656a5.752,5.752,0,0,1,1.492-1.334l.651,7.162A9.917,9.917,0,0,1,49.366,45.256ZM8,27a3.938,3.938,0,0,0-.5-1.87l.518-.243a13.191,13.191,0,0,0,3.684-2.179,2.953,2.953,0,0,1,2.43-.32A10.154,10.154,0,0,0,14,24h2c0-.04.086-4,2-4,.378,0,.459.118.493.169.393.578.007,2.381-.422,3.46l1.858.743a11.547,11.547,0,0,0,.463-1.455c.017-.008.038-.014.055-.022,1.816-.908,7.126-3.562,10.882-3.864a5.561,5.561,0,0,1,3.839,2.524l1.664-1.11a7.987,7.987,0,0,0-1.9-2.014c.773-.278,1.548-.632,2.374-1.014a20.686,20.686,0,0,1,10.863-2.388A12.3,12.3,0,0,1,59.992,26.566c.179,4.788-2.567,6.026-5.748,7.458-1.865.84-3.794,1.709-5.044,3.376-2.533,3.377-1.88,9.085-1.429,11.6H38a1,1,0,0,1,0-2h4V45H39.4a29.467,29.467,0,0,0,.6-6,1.909,1.909,0,0,0-.023-.216c-.019-.084-1.8-8.444,2.648-12l-1.25-1.562c-3.565,2.852-3.925,7.82-3.731,11.01l-.79-.789C36.276,33.964,35,30.419,35,29H33c0,2.01,1.654,6.313,2.019,7.239A21.7,21.7,0,0,1,32.435,49H25a1,1,0,0,1,0-2h4V45H27.116c.239-2.359.668-7.808-.168-10.316-.014-.044-.053-.131-.053-.131-.581-1.159-1.587-3.932-1-5.106l-1.79-.894a5.279,5.279,0,0,0-.238,3.246c-3.614-1.8-9.331-2.464-12.109-1.769a11.331,11.331,0,0,1-5.247.059A3.979,3.979,0,0,0,8,27ZM36.023,45.745a23.347,23.347,0,0,0,1.139-7.169L38,39.41a23.242,23.242,0,0,1-.7,5.673A3.006,3.006,0,0,0,36.023,45.745ZM5.737,26.043A1.927,1.927,0,0,1,6,27a2,2,0,0,1-1.637,1.963A1.463,1.463,0,0,1,4,28C4,27.271,4.746,26.628,5.737,26.043Z"/><path d="M56,26h2c0-6.678-7.41-8.872-7.726-8.961l-.548,1.922C49.788,18.979,56,20.814,56,26Z"/><rect x="56" y="28" width="2" height="2"/></g></svg>
