<svg height="512" viewBox="0 0 64 64" width="512" xmlns="http://www.w3.org/2000/svg"><g id="Filled_outline" data-name="Filled outline"><path d="m41 17-5 6h-8l-5-6 2-7 4-3h6l4 3z" fill="#ceac9a"/><path d="m29 7-1.1-2.21a3.309 3.309 0 0 0 -5.112-1.033 3.309 3.309 0 0 0 .673 5.471l1.539.772z" fill="#995f5b"/><path d="m35 7 1.1-2.21a3.309 3.309 0 0 1 5.112-1.033 3.309 3.309 0 0 1 -.673 5.471l-1.539.772z" fill="#995f5b"/><path d="m34 16c0 1.105-.9 3-2 3s-2-1.895-2-3 .895-1 2-1 2-.1 2 1z" fill="#301a12"/><path d="m39.125 19.25-3.125 3.75h-8l-3.125-3.75-6.875 11.75 3 13a27.817 27.817 0 0 0 0 17h8l-1-7 4-3 4 3-1 7h8a27.817 27.817 0 0 0 0-17l3-13z" fill="#995f5b"/><path d="m36.747 39.262.132-.486c-1.088-2.283-2.865-3.776-4.879-3.776s-3.791 1.493-4.879 3.776l.132.486a2.991 2.991 0 0 1 -1.161 3.223 13.384 13.384 0 0 0 -.092 1.515c0 3.927 1.68 7.258 4.018 8.487l1.982-1.487 1.982 1.487c2.338-1.229 4.018-4.56 4.018-8.487a13.384 13.384 0 0 0 -.092-1.515 2.991 2.991 0 0 1 -1.161-3.223z" fill="#ceac9a"/><path d="m28 12h2v2h-2z"/><path d="m34 12h2v2h-2z"/><path d="m32 20.031 3.758.939.484-1.94-2.022-.506a5.033 5.033 0 0 0 .78-2.524 1.926 1.926 0 0 0 -.531-1.425 2.914 2.914 0 0 0 -2.212-.575h-.514a2.891 2.891 0 0 0 -2.212.576 1.926 1.926 0 0 0 -.531 1.424 5.033 5.033 0 0 0 .78 2.524l-2.022.506.484 1.94zm-.272-4.031h.544c.226 0 .54 0 .728.018a2.788 2.788 0 0 1 -.956 1.963l-.044-.012-.041.01a2.776 2.776 0 0 1 -.959-1.962 7.092 7.092 0 0 1 .728-.017z"/><path d="m19.961 43.943a28.756 28.756 0 0 0 .091 17.373 1 1 0 0 0 .948.684h8a1 1 0 0 0 .99-1.142l-.917-6.413 2.927-2.195 2.927 2.2-.917 6.413a1 1 0 0 0 .99 1.137h8a1 1 0 0 0 .948-.684 28.756 28.756 0 0 0 .091-17.373l2.936-12.718a1 1 0 0 0 -.112-.73l-6.52-11.144 1.763-2.117-1.916-6.711.8-.4a4.309 4.309 0 1 0 -5.78-5.781l-.828 1.658h-4.764l-.829-1.658a4.308 4.308 0 1 0 -5.78 5.781l.8.4-1.916 6.711 1.763 2.117-6.519 11.149a1 1 0 0 0 -.112.73zm7.049 10.2.837 5.857h-6.115a27.273 27.273 0 0 1 .048-15.168l3.22-.826a11.45 11.45 0 0 0 3.334 8.494l-.934.7a1 1 0 0 0 -.39.942zm7.01-2.877-1.42-1.066a1 1 0 0 0 -1.2 0l-1.42 1.065c-1.799-1.294-2.98-4.104-2.98-7.265 0-.32.02-.655.05-1a3.994 3.994 0 0 0 1.168-4l-.028-.1c.958-1.819 2.36-2.9 3.81-2.9s2.852 1.081 3.81 2.9l-.028.1a3.97 3.97 0 0 0 1.166 3.978c.031.354.052.7.052 1.023 0 3.16-1.181 5.97-2.98 7.264zm8.248 8.734h-6.115l.837-5.858a1 1 0 0 0 -.39-.942l-.933-.7a11.456 11.456 0 0 0 3.333-8.492l3.22.825a27.27 27.27 0 0 1 .048 15.167zm-5.268-54.763a2.308 2.308 0 1 1 3.1 3.1l-.992.5-2.84-2.137zm-7.667 2.763h5.334l3.464 2.6 1.763 6.168-4.363 5.232h-7.062l-4.363-5.234 1.763-6.166zm-6.688-1.449a2.311 2.311 0 0 1 2.286-2.591 2.362 2.362 0 0 1 .463.047 2.288 2.288 0 0 1 1.606 1.23l.732 1.463-2.832 2.129-.992-.5a2.269 2.269 0 0 1 -1.263-1.778zm2.374 14.433.046.057 2.466 2.959h8.938l2.466-2.959.046-.057 5.956 10.178-2.681 11.616-3.247-.829a2 2 0 0 1 -1.3-2.424l2.253-8.262-1.93-.526-1.53 5.611a5.923 5.923 0 0 0 -4.502-2.348 5.923 5.923 0 0 0 -4.5 2.348l-1.53-5.611-1.93.526 2.253 8.262a1.991 1.991 0 0 1 -1.228 2.4l-3.316.848-2.686-11.611z"/></g></svg>