<svg height="512" viewBox="0 0 64 64" width="512" xmlns="http://www.w3.org/2000/svg"><g id="Filled_outline" data-name="Filled outline"><path d="m59 17h-4l-1-3h-8v-1.893a2.075 2.075 0 0 0 -1.664-2.08 2 2 0 0 0 -2.336 1.973v5l-14 5h-18v-1.893a2.075 2.075 0 0 0 -1.664-2.08 2 2 0 0 0 -2.336 1.973v2l-3 7 1 5 2.265 1.124-3.265 13.876 8 4 1.106-2.211a2 2 0 0 0 -.895-2.683l-2.211-1.106 3.628-6.219 1.372 1.219 15.74.656 1.26 11.344h9v-2a2 2 0 0 0 -2-2h-1v-7.042l1 .042 4-7 7-11h10a2 2 0 0 0 2-2v-4a2 2 0 0 0 -2-2z" fill="#d3843d"/><g fill="#ad6327"><path d="m21.037 42.293.963 7.707h1a2 2 0 0 1 2 2v2h-9l-2-12z"/><path d="m41.685 36.551 7.315 10.449.586-.586a2 2 0 0 1 2.828 0l1.586 1.586-6 6-10-11z"/><path d="m52 10a2 2 0 0 1 2 2v2a0 0 0 0 1 0 0h-4a0 0 0 0 1 0 0v-2a2 2 0 0 1 2-2z"/></g><path d="m57 17h2a2 2 0 0 1 2 2v2a0 0 0 0 1 0 0h-2a2 2 0 0 1 -2-2v-2a0 0 0 0 1 0 0z" fill="#143441"/><path d="m12.628 40.781 1.372 1.219 15.74.656-.422-3.79-15.132-.757z" fill="#ffd782"/><path d="m37 42.958 1 .042 4-7 7-11h-3l-9 12z" fill="#ffd782"/><path d="m49 17h2v2h-2z"/><path d="m59 16h-3.279l-.721-2.161v-1.839a3 3 0 0 0 -6 0v1h-2v-.893a3.082 3.082 0 0 0 -2.5-3.066 3 3 0 0 0 -3.5 2.959v4.3l-13.173 4.7h-16.827v-.893a3.082 3.082 0 0 0 -2.5-3.066 3 3 0 0 0 -3.5 2.959v1.8l-2.919 6.806a.987.987 0 0 0 -.061.59l1 5a1 1 0 0 0 .536.7l1.554.771-3.084 13.1a1 1 0 0 0 .527 1.133l8 4a1 1 0 0 0 1.342-.448l1.105-2.216a3 3 0 0 0 -1.342-4.025l-1.258-.628 2.476-4.244.195.174 1.942 11.652a1 1 0 0 0 .987.835h9a1 1 0 0 0 1-1v-2a3 3 0 0 0 -3-3h-.117l-.707-5.659 6.664.278 1.166 10.491a1 1 0 0 0 .994.89h9a1 1 0 0 0 1-1v-2a3 3 0 0 0 -3-3v-4.513l9.26 10.186a1 1 0 0 0 .717.327h.023a1 1 0 0 0 .707-.293l6-6a1 1 0 0 0 0-1.414l-1.586-1.586a3.007 3.007 0 0 0 -3.973-.239l-6.279-8.968 6.68-10.5h9.451a3 3 0 0 0 3-3v-4a3 3 0 0 0 -3-3zm-8-4a1 1 0 0 1 2 0v1h-2zm-28 39a1 1 0 0 1 1 1v1h-7.153l-1.659-9.95 4.961.207.859 6.867a1 1 0 0 0 .992.876zm-8.6-9.984-.493-.439.839-1.439 13.674.684.2 1.786zm33.783 6.557a1 1 0 0 0 1.526.134l.586-.585a1 1 0 0 1 1.414 0l.879.879-4.552 4.551-8.8-9.686 2.542-4.448zm-10.183-6.589v-3.651l8.5-11.333h.679zm22-17.984a1 1 0 0 1 -1 1h-13a1 1 0 0 0 -.8.4l-9 12a1 1 0 0 0 -.2.6v13a1 1 0 0 0 1 1h1a1 1 0 0 1 1 1v1h-7.1l-1.9-17.11-1.988.22.189 1.7-12.316-.616.985-1.689-1.734-1.005-7 12a1 1 0 0 0 .417 1.4l2.211 1.1a1 1 0 0 1 .447 1.342l-.658 1.316-6.4-3.2 3.82-16.23-1.948-.458-.446 1.9-.7-.345-.844-4.215 2.878-6.714a.989.989 0 0 0 .087-.396v-2a1 1 0 0 1 1.175-.986 1.085 1.085 0 0 1 .825 1.093v1.893a1 1 0 0 0 1 1h18a1.01 1.01 0 0 0 .336-.058l14-5a1 1 0 0 0 .664-.942v-5a1 1 0 0 1 1.175-.986 1.085 1.085 0 0 1 .825 1.093v1.893a1 1 0 0 0 1 1h7.279l.773 2.316a1 1 0 0 0 .948.684h1v1a3 3 0 0 0 3 3h1zm0-3h-1a1 1 0 0 1 -1-1v-1h1a1 1 0 0 1 1 1z"/></g></svg>