<svg height="512" viewBox="0 0 64 64" width="512" xmlns="http://www.w3.org/2000/svg"><g id="Filled_outline" data-name="Filled outline"><path d="m61 19c0-3.866-3.134-8-7-8a6.917 6.917 0 0 0 -6 3 15.99 15.99 0 0 0 -16-3 15.99 15.99 0 0 0 -16 3 6.917 6.917 0 0 0 -6-3c-3.866 0-7 4.134-7 8a7.282 7.282 0 0 0 6 7c-4.326 9.352-3.021 13.979 2 19 6 6 19 8 21 9 2-1 15-3 21-9 5.021-5.021 6.326-9.648 2-19a7.282 7.282 0 0 0 6-7z" fill="#d3843d"/><path d="m14.253 16.686a3.992 3.992 0 1 0 -3.58 6.281c1.073-1.93 2.467-4.407 3.58-6.281z" fill="#66342e"/><path d="m49.747 16.686a3.992 3.992 0 1 1 3.58 6.281c-1.073-1.93-2.467-4.407-3.58-6.281z" fill="#66342e"/><path d="m43 39c0 6.627-6 10-11 10s-11-3.373-11-10 6-14 11-14 11 7.373 11 14z" fill="#f9bb4b"/><path d="m37 33c0 1.657-2.239 2-5 2s-5-.343-5-2 2.239-4 5-4 5 2.343 5 4z" fill="#66342e"/><path d="m26 39a6 6 0 0 0 12 0z" fill="#dd3e46"/><path d="m11 14a4.99 4.99 0 0 0 -.409 9.964h.082a1 1 0 0 0 .874-.514c1.47-2.642 2.67-4.748 3.565-6.257a1 1 0 0 0 -.046-1.092 5.011 5.011 0 0 0 -4.066-2.101zm-.854 7.858a2.961 2.961 0 0 1 -2.146-2.858 2.991 2.991 0 0 1 5.025-2.2c-.778 1.326-1.744 3.022-2.879 5.058z"/><path d="m53 14a5.011 5.011 0 0 0 -4.066 2.1 1 1 0 0 0 -.046 1.092c1.141 1.923 2.569 4.464 3.565 6.256a1 1 0 0 0 .874.515h.082a4.99 4.99 0 0 0 -.409-9.963zm.854 7.858c-.856-1.536-1.932-3.444-2.879-5.06a2.991 2.991 0 0 1 5.025 2.202 2.961 2.961 0 0 1 -2.146 2.858z"/><path d="m54 10a8.187 8.187 0 0 0 -6.165 2.566 16.859 16.859 0 0 0 -15.835-2.634 16.859 16.859 0 0 0 -15.835 2.634 8.187 8.187 0 0 0 -6.165-2.566c-4.579 0-8 4.752-8 9a8.226 8.226 0 0 0 5.6 7.674c-3.64 8.388-2.882 13.46 2.691 19.033 4.713 4.714 13.515 7.043 18.242 8.3a25.613 25.613 0 0 1 3.018.893 1 1 0 0 0 .894 0 25.613 25.613 0 0 1 3.02-.9c4.727-1.252 13.529-3.581 18.242-8.3 5.573-5.573 6.331-10.645 2.691-19.033a8.226 8.226 0 0 0 5.602-7.667c0-4.248-3.421-9-8-9zm.831 15.015a1 1 0 0 0 -.738 1.405c4.3 9.29 2.765 13.308-1.8 17.873-4.332 4.332-12.794 6.572-17.34 7.775-1.334.353-2.312.612-2.953.849-.641-.237-1.619-.5-2.953-.849-4.546-1.2-13.008-3.443-17.34-7.775-4.565-4.565-6.1-8.583-1.8-17.873a1 1 0 0 0 -.738-1.405 6.3 6.3 0 0 1 -5.169-6.015c0-3.237 2.621-7 6-7a5.883 5.883 0 0 1 5.155 2.535 1 1 0 0 0 .7.454.978.978 0 0 0 .8-.237 14.847 14.847 0 0 1 14.955-2.829 1.016 1.016 0 0 0 .77 0 14.848 14.848 0 0 1 14.957 2.829.988.988 0 0 0 .8.237 1 1 0 0 0 .7-.454 5.883 5.883 0 0 1 5.163-2.535c3.379 0 6 3.763 6 7a6.3 6.3 0 0 1 -5.169 6.015z"/><path d="m32 24c-5.607 0-12 7.99-12 15 0 6.886 6.1 11 12 11s12-4.114 12-11c0-7.01-6.393-15-12-15zm0 24c-4.152 0-10-2.792-10-9 0-6.449 5.818-13 10-13s10 6.551 10 13c0 6.208-5.848 9-10 9z"/><circle cx="23" cy="24" r="2"/><circle cx="41" cy="24" r="2"/><path d="m32 28c-3.231 0-6 2.749-6 5 0 3 4.2 3 6 3s6 0 6-3c0-2.251-2.769-5-6-5zm0 6c-2.579 0-4-.355-4-1 0-1.027 1.689-3 4-3s4 1.973 4 3c0 .645-1.421 1-4 1z"/><path d="m25 39a7 7 0 0 0 14 0v-1h-14zm11.9 1a5 5 0 0 1 -9.8 0z"/><path d="m23 20v-2a5.785 5.785 0 0 0 -6 6h2a3.851 3.851 0 0 1 4-4z"/><path d="m41 18v2c.163 0 4 .046 4 4h2a5.785 5.785 0 0 0 -6-6z"/></g></svg>