<svg height="512" viewBox="0 0 64 64" width="512" xmlns="http://www.w3.org/2000/svg"><g id="Filled_outline" data-name="Filled outline"><path d="m39 8h-8l-1 4h-4a2 2 0 0 0 -2 2v4a2 2 0 0 0 2 2h6s-1 7-11 14-11 16-6 22l5 3h28a3 3 0 0 0 3-3 3 3 0 0 0 -3-3h-2s7-3 7-18-9-26-9-26z" fill="#ceac9a"/><path d="m39 8 .5-2.5a2.549 2.549 0 0 1 3-2 2.549 2.549 0 0 1 2 3l-.5 2.5z" fill="#995f5b"/><path d="m33 3a2 2 0 0 1 2 2v3a0 0 0 0 1 0 0h-4a0 0 0 0 1 0 0v-3a2 2 0 0 1 2-2z" fill="#995f5b"/><path d="m26 12h2a0 0 0 0 1 0 0v4a0 0 0 0 1 0 0h-4a0 0 0 0 1 0 0v-2a2 2 0 0 1 2-2z" fill="#66342e"/><path d="m15 56-1 .917a2.554 2.554 0 0 0 1 3.7 3.133 3.133 0 0 0 4-.955l1-.662z" fill="#995f5b"/><path d="m45.071 8.745.409-2.045a3.549 3.549 0 0 0 -6.96-1.4l-.34 1.7h-2.18v-2a3 3 0 0 0 -6 0v2.876l-.781 3.124h-3.219a3 3 0 0 0 -3 3v4a3 3 0 0 0 3 3h4.7c-.732 2.177-3.094 7.153-10.276 12.181-6.824 4.777-8.795 9.81-9.246 13.191a13.093 13.093 0 0 0 2.475 9.5l-.332.3a1.052 1.052 0 0 0 -.111.12 3.168 3.168 0 0 0 -.6 2.628 3.862 3.862 0 0 0 1.908 2.58 3.934 3.934 0 0 0 1.9.507 4.435 4.435 0 0 0 3.237-1.575l.645-.432h27.7a4 4 0 0 0 .816-7.917c2.229-2.309 5.184-7.229 5.184-17.083 0-13.817-7.327-24.159-8.929-26.255zm-4.591-3.045a1.55 1.55 0 0 1 3.04.608l-.3 1.519-3.038-.608zm-8.48-.7a1 1 0 0 1 2 0v2h-2zm-7 9a1 1 0 0 1 1-1h1v2h-2zm-9.518 45.745a1.855 1.855 0 0 1 -.909-1.219 1.192 1.192 0 0 1 .173-.936l.379-.348 3.059 1.835a2.171 2.171 0 0 1 -2.702.668zm28.418-16.192a5.421 5.421 0 0 0 -3.666-3.061c-3.928-.928-8.634 2.558-8.834 2.708l1.2 1.6c1.143-.858 4.659-2.953 7.17-2.362a3.465 3.465 0 0 1 2.335 2.009c.26.519 2.394 5.145-2.552 7.658a1 1 0 0 0 .447 1.895h8a2 2 0 0 1 0 4h-27.723l-4.615-2.769a11.035 11.035 0 0 1 -2.5-8.595c.57-4.279 3.479-8.365 8.409-11.817 8.4-5.877 10.668-11.775 11.238-13.877a13.233 13.233 0 0 0 5.744-2.11l-1.11-1.664a11.044 11.044 0 0 1 -5.443 1.832h-6a1 1 0 0 1 -1-1v-1h3a1 1 0 0 0 1-1v-3h1a1 1 0 0 0 .97-.757l.811-3.243h7.119l4.538.908c1.345 1.77 8.562 11.898 8.562 25.092 0 12.819-5.286 16.448-6.244 17h-2.843a7.091 7.091 0 0 0 .987-8.447z"/><path d="m33 11h2v2h-2z"/><path d="m15 47h2c0-6.322 10.375-12.065 10.479-12.122l-.958-1.756c-.47.257-11.521 6.371-11.521 13.878z"/><path d="m15 49h2v2h-2z"/></g></svg>