<svg height="512" viewBox="0 0 64 64" width="512" xmlns="http://www.w3.org/2000/svg"><g id="Filled_outline" data-name="Filled outline"><path d="m34.843 7.506c.587-1.346.978-3.292-.843-4.506-1.707-1.138-3.088.314-3.963 1.776-3.47-.405-10.057.904-12.037 2.224-3 2-2 5 0 6s10 1 11 4a15.382 15.382 0 0 1 .735 5.668 4.37 4.37 0 0 1 -.735.332c-3 1-8 3-7 7s4 1 4-1c0-.88 1.162-.405 3.059-.364-.02.123-.038.239-.059.364-1 6 4 15 4 15-2 9 3 13 3 13h-3a2 2 0 0 0 0 4h8s1-8 2-12 4-7 4-21c0-11.828-9.278-18.659-12.157-20.494z" fill="#d3843d"/><path d="m16.123 10.323a2.985 2.985 0 0 0 4.125-4.29 9.448 9.448 0 0 0 -2.248.967 3.594 3.594 0 0 0 -1.877 3.323z" fill="#66342e"/><path d="m46.006 39.7c-.967 4.677-2.379 6.793-3.006 9.3-.534 2.137-1.067 5.409-1.449 8h5.449c-1.712-5.135-.958-14.658-.994-17.3z" fill="#ad6327"/><path d="m25 8h2v2h-2z"/><path d="m47.006 39.791a58.987 58.987 0 0 0 .994-11.791c0-11.513-8.413-18.477-11.942-20.888a5.127 5.127 0 0 0 .216-2.381 3.819 3.819 0 0 0 -1.719-2.563 2.981 2.981 0 0 0 -2.717-.417 5.007 5.007 0 0 0 -2.316 1.98c-3.691-.218-9.941 1.014-12.077 2.437a4.547 4.547 0 0 0 -2.331 4.124 4.433 4.433 0 0 0 2.439 3.6 15.309 15.309 0 0 0 3.69.887c2.518.43 6.323 1.079 6.809 2.534a14.005 14.005 0 0 1 .684 4.713c-.018.007-.034.016-.052.022-2.215.739-8.955 2.986-7.654 8.192.591 2.362 1.866 2.728 2.6 2.728a2.272 2.272 0 0 0 .265-.016c1.554-.191 2.835-1.944 3.068-3.474.169.012.367.031.543.049l.426.04c-.522 5.6 3.132 12.916 4.014 14.581-1.218 5.939.454 9.8 1.864 11.849h-.81a3 3 0 0 0 0 6h8a1 1 0 0 0 .992-.876c0-.032.168-1.335.425-3.124h4.583a1 1 0 0 0 .948-1.316c-1.313-3.941-1.1-10.9-.989-14.639.029-.942.05-1.715.047-2.251zm-29.859-30a2.864 2.864 0 0 1 1.408-1.96 6.607 6.607 0 0 1 1.282-.606 1.913 1.913 0 0 1 .163.775 2 2 0 0 1 -2 2 1.88 1.88 0 0 1 -.853-.208zm25.566 46.209c.359-2.335.809-4.968 1.257-6.757a20.844 20.844 0 0 1 .9-2.606 43.036 43.036 0 0 0 .811 9.363zm.387-10.312a24.244 24.244 0 0 0 -1.065 3.069c-.823 3.271-1.624 9.043-1.914 11.243h-7.121a1 1 0 0 1 0-2h3a1 1 0 0 0 .625-1.781c-.046-.036-4.473-3.694-2.657-11.956.264-.761 1.17-2.714 2.479-3.368l-.894-1.79a6.7 6.7 0 0 0 -2.577 2.62c-1.3-2.743-3.483-8.092-3.036-12.107 2.557-.137 6.113-1.2 9.849-6l-1.578-1.228c-4.475 5.752-8.4 5.365-10.509 5.154-.937-.093-1.679-.167-2.236.338a1.456 1.456 0 0 0 -.466 1.118 2.407 2.407 0 0 1 -1.352 1.97c-.177.023-.474-.4-.678-1.213-.581-2.325 1.435-4.171 6.346-5.808 3.481-1.16 4.608-5.521 4.654-5.706l-1.94-.488a8.829 8.829 0 0 1 -1.344 2.751 15.263 15.263 0 0 0 -.738-3.822c-.863-2.593-5.025-3.3-8.369-3.873a16.11 16.11 0 0 1 -3.132-.706 2.289 2.289 0 0 1 -.2-.131 3.993 3.993 0 0 0 3.753-3.974 3.916 3.916 0 0 0 -.248-1.36 29.976 29.976 0 0 1 6.685-.94c-.215.491-.346.866-.385.983l1.9.632c.345-1.032 1.418-3.289 2.538-3.673a1.009 1.009 0 0 1 .959.189 1.8 1.8 0 0 1 .851 1.233 5.307 5.307 0 0 1 -1.1 3.336l1.6 1.2c.052-.07.217-.3.418-.634 3.409 2.392 10.782 8.753 10.782 19.034 0 10.372-1.68 14.6-2.9 17.688z"/></g></svg>