<svg height="512" viewBox="0 0 64 64" width="512" xmlns="http://www.w3.org/2000/svg"><g id="Filled_outline" data-name="Filled outline"><path d="m59 24c-5.495-16.485-19.376-17.87-30.124-15.682-.465-2.282-5.876-.318-5.876-.318-8-3-12 0-12 0s-5-3-7 0 4 5 4 5-3 5 1 12c0 0-3 15 3 29a2 2 0 0 0 -2 2 2 2 0 0 0 2 2h5a2 2 0 0 0 2-2 2 2 0 0 0 -2-2s2-13 5-14c0 0 5 8 5 14a2 2 0 0 0 -2 2 2 2 0 0 0 2 2h6a2 2 0 0 0 2-2 2 2 0 0 0 -2-2s4-9 5-12c0 0 12-5 7 13v3h8a2 2 0 0 0 2-2 2 2 0 0 0 -2-2h-1s13-12 7-30z" fill="#995f5b"/><path d="m18 16c0 1.105-.895 3-2 3s-2-1.895-2-3 .895-1 2-1 2-.1 2 1z" fill="#66342e"/><path d="m6.653 13.543c-.721 1.9-1.678 6.191 1.3 11.63-.422 2.392-2.364 15.411 2.69 28.153a3 3 0 0 0 1.357 5.674h5a3 3 0 0 0 1.139-5.775c.833-4.917 2.3-10.09 3.565-11.754 1.2 2.108 3.941 7.364 4.265 11.712a3 3 0 0 0 1.031 5.817h6a3 3 0 0 0 1.385-5.661c1.03-2.341 3.447-7.89 4.4-10.556.978-.31 3.519-.929 5.026.405 1.257 1.109 2.316 4.013.223 11.544a1.055 1.055 0 0 0 -.034.268v3a1 1 0 0 0 1 1h8a3 3 0 0 0 1.091-5.8c3.278-3.876 10.757-14.825 5.857-29.521-2.615-7.841-10.048-20.317-30.507-16.491-1.354-1.719-4.913-.763-6.433-.25-6.568-2.361-10.6-.853-12.025-.094-2.259-1.186-5.971-2.165-7.815.6a2.991 2.991 0 0 0 -.417 2.718c.575 1.675 2.621 2.815 3.902 3.381zm-1.821-4.988c1.423-2.136 5.613.278 5.654.3a1.018 1.018 0 0 0 1.107-.053c.148-.107 3.743-2.611 11.055.132a1.01 1.01 0 0 0 .694 0c1.959-.713 4.206-.966 4.531-.509.007.008.526.968-2.654 4.944l1.562 1.25c.253-.317.488-.621.71-.917 1.253 1.286 3.148 4.12 2.517 9.168l1.984.248c.772-6.177-1.786-9.6-3.353-11.083a8.135 8.135 0 0 0 1.246-2.9c8.5-1.553 22.664-1.332 28.167 15.174 5.716 17.148-6.606 28.834-6.731 28.95a1 1 0 0 0 .679 1.741h1a1 1 0 0 1 0 2h-7v-1.864c1.861-6.774 1.571-11.3-.862-13.448a6.6 6.6 0 0 0 -5.718-1.133 46.04 46.04 0 0 0 1.58-9.555h-2c0 3.778-1.905 10.524-1.958 10.712-.988 2.947-4.916 11.793-4.956 11.882a1 1 0 0 0 .914 1.406 1 1 0 0 1 0 2h-6a1 1 0 0 1 0-2 1 1 0 0 0 1-1c0-6.123-4.786-13.94-5.13-14.494a23.419 23.419 0 0 0 -4.163-5.213l-1.414 1.414a26.184 26.184 0 0 1 3.375 4.023c-2.685 2.615-4.218 11.27-4.656 14.118a1 1 0 0 0 .988 1.152 1 1 0 0 1 0 2h-5a1 1 0 0 1 0-2 1 1 0 0 0 .919-1.394c-4.596-10.726-3.772-22.19-3.219-26.566a42.374 42.374 0 0 0 4.743 3.792l1.11-1.664a45.345 45.345 0 0 1 -5.741-4.768c-3.544-6.3-1.06-10.7-.955-10.881a1 1 0 0 0 -.541-1.464c-1.032-.344-3.289-1.417-3.673-2.538a1 1 0 0 1 .189-.962z"/><path d="m12 12h2v2h-2z"/><path d="m18 12h2v2h-2z"/><path d="m13 16c0 1.592 1.2 4 3 4s3-2.408 3-4a1.926 1.926 0 0 0 -.531-1.425 2.91 2.91 0 0 0 -2.212-.575h-.514a2.887 2.887 0 0 0 -2.212.576 1.926 1.926 0 0 0 -.531 1.424zm2.728 0h.544a7.084 7.084 0 0 1 .728.018c-.01.819-.682 1.94-1 1.983-.321-.043-.993-1.164-1-1.983a6.833 6.833 0 0 1 .728-.018z"/><path d="m55.035 39.737 1.93.526a24.048 24.048 0 0 0 -3.165-19.863l-1.6 1.2a22.44 22.44 0 0 1 2.835 18.137z"/><path d="m54 42h2v2h-2z"/></g></svg>