<svg height="512" viewBox="0 0 64 64" width="512" xmlns="http://www.w3.org/2000/svg"><g id="Filled_outline" data-name="Filled outline"><path d="m28 44-1-2h7a2 2 0 0 0 2 2h17a4 4 0 0 0 4-4v-7c0-23-25-10-29-7a45.738 45.738 0 0 1 -6 4v-5a2 2 0 0 0 -2.336-1.973 2.075 2.075 0 0 0 -1.664 2.08v1.893h-8l-1 3h-4a2 2 0 0 0 -2 2v4a2 2 0 0 0 2 2h12l-8.9 2.53a1.558 1.558 0 0 0 -1.1 1.47 2.154 2.154 0 0 0 2 2z" fill="#d3843d"/><path d="m10 23h4a0 0 0 0 1 0 0v2a2 2 0 0 1 -2 2 2 2 0 0 1 -2-2v-2a0 0 0 0 1 0 0z" fill="#ad6327" transform="matrix(-1 0 0 -1 24 50)"/><path d="m5 30h2a0 0 0 0 1 0 0v2a2 2 0 0 1 -2 2h-2a0 0 0 0 1 0 0v-2a2 2 0 0 1 2-2z" fill="#143441" transform="matrix(-1 0 0 -1 10 64)"/><path d="m57 33h2a2 2 0 0 1 2 2 2 2 0 0 1 -2 2h-2a0 0 0 0 1 0 0v-4a0 0 0 0 1 0 0z" fill="#ad6327"/><path d="m12 30h4v2h-4z"/><path d="m59 32h-1.02c-.2-6.133-2.248-10.22-6.1-12.149-8.493-4.245-22.294 3.709-24.48 5.349-1.952 1.464-3.422 2.445-4.4 3.057v-3.257a3 3 0 0 0 -3.5-2.96 3.082 3.082 0 0 0 -2.5 3.067v.893h-2v-1a3 3 0 0 0 -6 0v1.837l-.721 2.163h-3.279a3 3 0 0 0 -3 3v4a3 3 0 0 0 3 3h4.822l-2 .568a1.09 1.09 0 0 0 -.121.043 2.523 2.523 0 0 0 -1.701 2.389 3.16 3.16 0 0 0 3 3h19a1 1 0 0 0 .895-1.447l-.277-.553h4.566a3 3 0 0 0 2.816 2h17a5.006 5.006 0 0 0 5-5v-2h1a3 3 0 0 0 0-6zm-48-7a1 1 0 0 1 2 0v1h-2zm-7 7a1 1 0 0 1 1-1h1v1a1 1 0 0 1 -1 1h-1zm52 8a3 3 0 0 1 -3 3h-17a1 1 0 0 1 -1-1v-1.173a.994.994 0 0 1 .909-1l9.181-.827a1 1 0 0 0 .285-1.923 4.114 4.114 0 0 1 -2.269-2.147 2.723 2.723 0 0 1 .694-2.33l-1.6-1.2a4.583 4.583 0 0 0 -1.018 4.072 4.4 4.4 0 0 0 1.027 1.778l-6.481.588a2.987 2.987 0 0 0 -2.728 2.989v.173h-5.382l-2.718-5.447-1.79.894 3.272 6.553h-17.382a1.169 1.169 0 0 1 -1-1c0-.13 0-.325.437-.527l8.836-2.511a1 1 0 0 0 -.273-1.962h-12a1 1 0 0 1 -1-1v-1h1a3 3 0 0 0 3-3v-1h1a1 1 0 0 0 .949-.684l.772-2.316h7.279a1 1 0 0 0 1-1v-1.893a1.084 1.084 0 0 1 .825-1.093 1.009 1.009 0 0 1 .822.224 1 1 0 0 1 .353.762v5a1 1 0 0 0 1.447.895 46.531 46.531 0 0 0 6.153-4.095c2.77-2.077 15.406-8.647 22.38-5.16 3.331 1.665 5.02 5.487 5.02 11.36zm3-4h-1v-2h1a1 1 0 0 1 0 2z"/><path d="m50.64 23.715c-3.643-2.551-8.765-.733-8.982-.655l.684 1.88c.043-.016 4.35-1.549 7.151.413 1.663 1.166 2.507 3.402 2.507 6.647h2c0-3.936-1.13-6.723-3.36-8.285z"/><path d="m52 34h2v2h-2z"/></g></svg>