<svg height="512" viewBox="0 0 64 64" width="512" xmlns="http://www.w3.org/2000/svg"><g id="Filled_outline" data-name="Filled outline"><path d="m53 44a2.357 2.357 0 0 0 -3 .742l-1 1.258a14.213 14.213 0 0 0 -12-12v-7c5 0 7-4 11-9s-3-11-4-5-7 6-7 6v-8a7.952 7.952 0 0 0 -1.084-4.008c.028 0 .055.008.084.008a2 2 0 1 0 -1.978-2.223 7.985 7.985 0 0 0 -10.044 0 2 2 0 1 0 -1.978 2.223c.029 0 .056-.007.084-.008a7.952 7.952 0 0 0 -1.084 4.008v8s-5 0-5 9c0 4.835 2.6 7.061 5 8.1v2.9s-6 8-3 18h-2a2 2 0 0 0 0 4h7l5-12 8-2 15 5 3-5a2.094 2.094 0 0 0 -1-3z" fill="#66342e"/><path d="m31 13c0 1.105-.895 3-2 3s-2-1.895-2-3 .895-1 2-1 2-.1 2 1z" fill="#301a12"/><path d="m25 9h2v2h-2z"/><path d="m31 9h2v2h-2z"/><path d="m29.256 11h-.512a2.9 2.9 0 0 0 -2.213.576 1.926 1.926 0 0 0 -.531 1.424c0 1.592 1.2 4 3 4s3-2.408 3-4a1.926 1.926 0 0 0 -.531-1.425 2.916 2.916 0 0 0 -2.213-.575zm-.256 4c-.321-.043-.994-1.164-1-1.983a6.819 6.819 0 0 1 .728-.017h.544a6.819 6.819 0 0 1 .728.018c-.009.818-.682 1.939-1 1.982z"/><path d="m55.171 45.075a3.282 3.282 0 0 0 -1.724-1.97 3.359 3.359 0 0 0 -3.941.647 15.1 15.1 0 0 0 -11.506-10.569v-5.233c3.992-.41 6.18-3.3 8.9-6.886.587-.774 1.207-1.592 1.884-2.439a5.948 5.948 0 0 0 .606-6.922 3.882 3.882 0 0 0 -3.841-2.167c-.764.146-2.11.768-2.532 3.3a5.909 5.909 0 0 1 -5.017 5.053v-6.889a8.964 8.964 0 0 0 -.642-3.324 3 3 0 1 0 -3.787-4.425 9.174 9.174 0 0 0 -9.142 0 3 3 0 1 0 -3.787 4.425 8.964 8.964 0 0 0 -.642 3.324v7.161c-1.711.476-5 2.365-5 9.839 0 4.968 2.5 7.468 5 8.726v1.955a22.638 22.638 0 0 0 -3.3 17.319h-.7a3 3 0 0 0 0 6h7a1 1 0 0 0 .923-.615l4.807-11.537 7.23-1.807 14.724 4.908a1 1 0 0 0 1.173-.434l3.011-5.015a3.054 3.054 0 0 0 .303-2.425zm-2.028 1.41-2.588 4.315-13.222-4.41a10.275 10.275 0 0 0 .667-3.39h-2a8.815 8.815 0 0 1 -.717 3.148l-7.226 1.807a6.333 6.333 0 0 1 -3.162-2.4l-1.79.894a7.637 7.637 0 0 0 3.588 3.091l-4.36 10.46h-6.333a1 1 0 0 1 0-2h2a1 1 0 0 0 .958-1.287c-2.812-9.375 2.786-17.038 2.842-17.113a1 1 0 0 0 .2-.6v-1.495a12.235 12.235 0 0 0 3 .495 1.012 1.012 0 0 0 .372-.071c.255-.1 2.508-1.061 2.817-3.142.221-1.493-.642-3.03-2.564-4.568-2.218-1.774-2.529-2.932-2.517-3.464a1.24 1.24 0 0 1 .447-.923l-1.11-1.664a3.213 3.213 0 0 0 -1.335 2.472c-.07 1.622 1.029 3.352 3.265 5.141 1.287 1.03 1.939 1.991 1.836 2.708s-.943 1.272-1.415 1.506c-1.273-.057-7.8-.7-7.8-7.995 0-7.787 3.851-8 4-8a1 1 0 0 0 1-1v-8a6.984 6.984 0 0 1 .949-3.506 1 1 0 0 0 -.032-1.012 1.035 1.035 0 0 0 -.878-.482 1.016 1.016 0 0 1 -.81-.369 1 1 0 0 1 .543-1.606.97.97 0 0 1 .8.159 1.008 1.008 0 0 1 .412.705 1 1 0 0 0 1.622.666 6.986 6.986 0 0 1 8.788 0 1 1 0 0 0 1.622-.666 1.008 1.008 0 0 1 .412-.7.983.983 0 0 1 .8-.159 1.009 1.009 0 0 1 -.124 1.976c-.035-.006-.109-.012-.144-.014a.959.959 0 0 0 -.893.486 1 1 0 0 0 -.007 1.016 6.984 6.984 0 0 1 .944 3.506v8a1 1 0 0 0 1 1 8.063 8.063 0 0 0 7.986-6.835c.16-.961.51-1.584.935-1.665s1.2.32 1.753 1.235a3.938 3.938 0 0 1 -.455 4.64c-.689.862-1.32 1.694-1.916 2.481-2.803 3.7-4.654 6.144-8.303 6.144a1 1 0 0 0 -1 1v7a1 1 0 0 0 .821.984 13.125 13.125 0 0 1 11.184 11.116 1 1 0 0 0 1.778.522l1.049-1.322a1.356 1.356 0 0 1 1.721-.4 1.309 1.309 0 0 1 .7.759 1.057 1.057 0 0 1 -.11.826z"/></g></svg>