<svg height="512" viewBox="0 0 64 64" width="512" xmlns="http://www.w3.org/2000/svg"><g id="Filled_outline" data-name="Filled outline"><path d="m59 50a2 2 0 0 0 -2 2v2l-12-6a24.946 24.946 0 0 0 -5.142-21.68l-2.863 3.68h-9.99l-3.087-3.528a24.79 24.79 0 0 0 -4.918 21.528l-12 6v-2a2 2 0 0 0 -4 0v5a2 2 0 0 0 2 2h23l4-2 4 2h23a2 2 0 0 0 2-2v-5a2 2 0 0 0 -2-2z" fill="#ad6327"/><path d="m43.989 21.009-6.994 8.991h-9.99l-6.994-7.992 1.936-8.012 5.058-3.996h9.544l4.995 3.996z" fill="#d3843d"/><path d="m38 22c0 3.314-2.686 8-6 8s-6-4.686-6-8 2.686-5 6-5 6 1.686 6 5z" fill="#f9bb4b"/><path d="m36.553 9.981 1-2c1.247-2.494 4.531-4.125 7-2a4.221 4.221 0 0 1 -1 7l-2 1z" fill="#ad6327"/><path d="m26.938 9.981-1-2c-1.247-2.494-4.532-4.125-7-2a4.221 4.221 0 0 0 1 7l2 1z" fill="#ad6327"/><circle cx="32" cy="21" fill="#66342e" r="2"/><path d="m5 60h23a1 1 0 0 0 .447-.1l3.553-1.782 3.553 1.782a1 1 0 0 0 .447.1h23a3 3 0 0 0 3-3v-5a3 3 0 0 0 -6 0v.382l-9.859-4.929a25.856 25.856 0 0 0 -4.994-21.162l3.965-5.1-2.337-6.705 1.225-.611a5.376 5.376 0 0 0 2.961-4.145 5.042 5.042 0 0 0 -1.755-4.507 4.863 4.863 0 0 0 -4.2-1.123 6.445 6.445 0 0 0 -4.347 3.434l-.733 1.466h-8.361l-.733-1.466a6.446 6.446 0 0 0 -4.348-3.434 4.857 4.857 0 0 0 -4.2 1.122 5.039 5.039 0 0 0 -1.754 4.508 5.375 5.375 0 0 0 2.96 4.145l1.3.651-1.873 7.75 3.684 4.21a25.758 25.758 0 0 0 -4.743 20.967l-9.858 4.929v-.382a3 3 0 0 0 -6 0v5a3 3 0 0 0 3 3zm33.448-51.572a4.467 4.467 0 0 1 2.952-2.367 2.823 2.823 0 0 1 2.5.679 3.07 3.07 0 0 1 1.074 2.745 3.382 3.382 0 0 1 -1.87 2.6l-1.428.714-.658-.527 1.812-2.718-1.664-1.11-1.716 2.574-1.641-1.313zm-18.063 3.658a3.379 3.379 0 0 1 -1.87-2.6 3.071 3.071 0 0 1 1.075-2.747 2.845 2.845 0 0 1 1.892-.739 3.113 3.113 0 0 1 .608.062 4.469 4.469 0 0 1 2.953 2.367l.639 1.277-1.424 1.139-2.551-2.552-1.414 1.414 2.394 2.393-.875.7zm.72 9.653 1.733-7.173 4.514-3.566h8.848l4.5 3.6 2.171 6.227-6.365 8.173h-.406a11.058 11.058 0 0 0 2.9-7 5.559 5.559 0 0 0 -2.868-5h1.868v-2h-2v1.925a8.364 8.364 0 0 0 -4-.925 8.364 8.364 0 0 0 -4 .925v-1.925h-2v2h1.868a5.559 5.559 0 0 0 -2.868 5 11.058 11.058 0 0 0 2.9 7h-.446zm10.895 7.261c-2.528 0-5-4.008-5-7 0-2.949 2.583-4 5-4s5 1.051 5 4c0 2.992-2.472 7-5 7zm-28 23a1 1 0 0 1 2 0v2a1 1 0 0 0 1.447.9l12-6a1 1 0 0 0 .528-1.12 24.185 24.185 0 0 1 3.976-19.746l2.6 2.966h10.933l2.392-3.075a24.167 24.167 0 0 1 4.149 19.85 1 1 0 0 0 .528 1.12l12 6a1 1 0 0 0 1.447-.895v-2a1 1 0 0 1 2 0v5a1 1 0 0 1 -1 1h-22.764l-3.789-1.9a1 1 0 0 0 -.894 0l-3.789 1.9h-22.764a1 1 0 0 1 -1-1z"/><path d="m27.287 54.068a4.862 4.862 0 0 0 .855-.078 4.7 4.7 0 0 0 3.233-1.953 4.076 4.076 0 0 0 .625-1.491 4.076 4.076 0 0 0 .625 1.491 4.673 4.673 0 0 0 3.2 1.947 4.849 4.849 0 0 0 .871.08 4.492 4.492 0 0 0 4.288-3.885l2-11-1.968-.358-2 10.983a2.5 2.5 0 0 1 -2.878 2.206 2.7 2.7 0 0 1 -1.865-1.1 2.07 2.07 0 0 1 -.3-1.685l3-13-1.95-.45-3 13c-.015.067-.013.133-.026.2-.012-.065-.01-.131-.025-.2l-3-13-1.95.45 3 13a2.067 2.067 0 0 1 -.3 1.681 2.726 2.726 0 0 1 -1.9 1.106c-2.209.39-2.757-1.773-2.841-2.2l-2-11-1.968.358 2 11.017a4.483 4.483 0 0 0 4.274 3.881z"/><path d="m29 21a3 3 0 0 0 2 2.816v1.378a.887.887 0 0 1 -.569-.109 1.569 1.569 0 0 1 -.431-1.093l-1 .008h-1a3.516 3.516 0 0 0 1.258 2.7 2.7 2.7 0 0 0 1.622.5 4.4 4.4 0 0 0 1.12-.169 4.4 4.4 0 0 0 1.12.175 2.7 2.7 0 0 0 1.622-.5 3.516 3.516 0 0 0 1.258-2.706h-2a1.619 1.619 0 0 1 -.427 1.083.887.887 0 0 1 -.573.111v-1.378a2.995 2.995 0 1 0 -4-2.816zm3-1a1 1 0 1 1 -1 1 1 1 0 0 1 1-1z"/></g></svg>