<svg height="512" viewBox="0 0 64 64" width="512" xmlns="http://www.w3.org/2000/svg"><g id="Filled_outline" data-name="Filled outline"><path d="m46 35c-3-3-2-13 3-19s6-9 4-11-5 1-8 2-6 1-10 9-12 11-18 12-14 6-14 15 7 15 7 15h15a2 2 0 0 0 2-2 2 2 0 0 0 -2-2h-2a10.317 10.317 0 0 0 2.43-6.075c5.657-.974 7.57-1.925 7.57-1.925-2 8 1 12 1 12h6a2 2 0 0 0 2-2 2 2 0 0 0 -2-2c-1-4 1-11 1-11a20.039 20.039 0 0 0 17 1c1.232-.5 3-1.67 3-3 0-1.633-2.381-1.786-4-2-3.739-.493-8.928-1.928-11-4z" fill="#ad6327"/><path d="m51 8a3 3 0 0 0 2.766-1.838 3.27 3.27 0 0 0 -.766-1.162c-1.312-1.312-3.055-.471-4.945.544a3 3 0 0 0 2.945 2.456z" fill="#301a12"/><path d="m57.525 38.059-.394-.05c-3.84-.507-8.653-1.946-10.424-3.716-2.394-2.393-1.954-11.635 3.061-17.653 4.444-5.332 6.814-9.472 3.939-12.347-1.906-1.907-4.307-.611-6.425.531a17.365 17.365 0 0 1 -2.6 1.227c-.334.112-.667.21-1 .308-2.738.808-5.842 1.724-9.577 9.194-4.073 8.147-12.568 10.677-17.27 11.461-5.963.993-14.835 6.071-14.835 15.986 0 9.353 7.049 15.5 7.349 15.759a1 1 0 0 0 .651.241h15a3 3 0 0 0 0-6h-.076a10.6 10.6 0 0 0 1.476-4.23 47.747 47.747 0 0 0 5.253-1.224c-1.269 7.19 1.423 10.889 1.547 11.054a1 1 0 0 0 .8.4h6a3 3 0 0 0 .842-5.88c-.431-2.756.354-6.7.817-8.655a21.2 21.2 0 0 0 16.717.462c1.672-.678 3.624-2.114 3.624-3.927 0-2.386-2.8-2.734-4.475-2.941zm-5.232-32.352a2.534 2.534 0 0 1 .338.418 1.975 1.975 0 0 1 -3.339-.093c1.495-.744 2.367-.958 3.001-.325zm5.331 37.366a19.049 19.049 0 0 1 -16.138-.947l-.029-.016c-.037-.019-3.712-2.036-6.508-10.426l-1.9.632c2.388 7.164 5.442 10.1 6.8 11.118-.488 1.923-1.692 7.32-.82 10.809a1 1 0 0 0 .971.757 1 1 0 0 1 0 2h-5.437c-.616-1.153-2.093-4.757-.593-10.757a1 1 0 0 0 -1.41-1.143 29 29 0 0 1 -6.225 1.645q-.042-.257-.105-.515c-.736-3.029-3.384-5.44-7.871-7.166l-.718 1.868c3.832 1.473 6.067 3.411 6.643 5.76.823 3.353-2 6.611-2.032 6.641a1 1 0 0 0 .748 1.667h2a1 1 0 0 1 0 2h-14.611c-1.232-1.173-6.389-6.529-6.389-14 0-8.672 7.873-13.132 13.165-14.014 5.076-.846 14.26-3.6 18.73-12.539 3.346-6.692 5.778-7.409 8.353-8.169.357-.106.712-.211 1.068-.329a15.005 15.005 0 0 0 2.209-.987 3.987 3.987 0 0 0 5.164 1.664c-.505 1.447-1.8 3.542-4.457 6.734-5.045 6.054-6.584 16.7-2.939 20.347 2.507 2.507 8.457 3.873 11.576 4.284l.41.052c1.021.126 2.721.338 2.721.957 0 .6-1.088 1.551-2.376 2.073z"/><path d="m42.17 16.442c-.2.3-.941 1.177-1.626 1.242a1.016 1.016 0 0 1 -.837-.391 1.006 1.006 0 0 1 -.391-.837c.065-.685.94-1.422 1.242-1.626l-.558-.83-.555-.832a4.868 4.868 0 0 0 -2.119 3.088 2.975 2.975 0 0 0 .967 2.451 3.028 3.028 0 0 0 2.18.98c.095 0 .186-.005.271-.013a4.868 4.868 0 0 0 3.088-2.119z"/><path d="m42.882 10.5h2.236v2h-2.236z" transform="matrix(.894 -.447 .447 .894 -.498 20.891)"/><path d="m6.03 45.243 1.94-.486c-1.78-7.119 7.385-11.817 7.478-11.863l-.895-1.789c-.438.219-10.693 5.459-8.523 14.138z"/><path d="m7 47h2v2h-2z"/></g></svg>