<svg height="512" viewBox="0 0 64 64" width="512" xmlns="http://www.w3.org/2000/svg"><g id="Filled_outline" data-name="Filled outline"><path d="m61 19c0-3.866-3.134-8-7-8a6.917 6.917 0 0 0 -6 3 15.99 15.99 0 0 0 -16-3 15.99 15.99 0 0 0 -16 3 6.917 6.917 0 0 0 -6-3c-3.866 0-7 4.134-7 8a7.282 7.282 0 0 0 6 7c-4.326 9.352-3.021 13.979 2 19 6 6 19 8 21 9 2-1 15-3 21-9 5.021-5.021 6.326-9.648 2-19a7.282 7.282 0 0 0 6-7z" fill="#d3843d"/><path d="m14.253 16.686a3.992 3.992 0 1 0 -3.58 6.281c1.073-1.93 2.467-4.407 3.58-6.281z" fill="#66342e"/><path d="m49.747 16.686a3.992 3.992 0 1 1 3.58 6.281c-1.073-1.93-2.467-4.407-3.58-6.281z" fill="#66342e"/><path d="m43 39c0 6.627-6 10-11 10s-11-3.373-11-10 6-14 11-14 11 7.373 11 14z" fill="#f9bb4b"/><path d="m37 33c0 1.657-2.239 2-5 2s-5-.343-5-2 2.239-4 5-4 5 2.343 5 4z" fill="#66342e"/><circle cx="32" cy="41" fill="#dd3e46" r="2"/><path d="m10.591 23.964h.082a1 1 0 0 0 .874-.514c1-1.8 2.428-4.34 3.565-6.257a1 1 0 0 0 -.046-1.092 4.993 4.993 0 0 0 -9.066 2.899 4.959 4.959 0 0 0 4.591 4.964zm.409-7.964a2.992 2.992 0 0 1 2.025.8c-.944 1.612-2.022 3.522-2.879 5.06a2.961 2.961 0 0 1 -2.146-2.86 3 3 0 0 1 3-3z"/><path d="m52.453 23.453a1 1 0 0 0 .874.514h.082a4.99 4.99 0 0 0 -.409-9.967 5.011 5.011 0 0 0 -4.066 2.1 1 1 0 0 0 -.046 1.092c1.137 1.921 2.567 4.464 3.565 6.261zm.547-7.453a3 3 0 0 1 3 3 2.961 2.961 0 0 1 -2.146 2.858c-.854-1.538-1.935-3.448-2.879-5.058a2.992 2.992 0 0 1 2.025-.8z"/><path d="m7.6 26.674c-3.64 8.388-2.882 13.46 2.691 19.033 4.713 4.714 13.514 7.043 18.242 8.3a25.613 25.613 0 0 1 3.018.893 1 1 0 0 0 .894 0 25.613 25.613 0 0 1 3.02-.9c4.728-1.252 13.529-3.581 18.242-8.3 5.573-5.573 6.331-10.645 2.691-19.033a8.226 8.226 0 0 0 5.602-7.667c0-4.248-3.421-9-8-9a8.189 8.189 0 0 0 -6.165 2.566 16.862 16.862 0 0 0 -15.835-2.634 16.862 16.862 0 0 0 -15.835 2.634 8.189 8.189 0 0 0 -6.165-2.566c-4.579 0-8 4.752-8 9a8.226 8.226 0 0 0 5.6 7.674zm2.4-14.674a5.885 5.885 0 0 1 5.155 2.535 1 1 0 0 0 .7.454.979.979 0 0 0 .8-.237 14.847 14.847 0 0 1 14.955-2.829 1.012 1.012 0 0 0 .77 0 14.851 14.851 0 0 1 14.957 2.829.976.976 0 0 0 .8.237 1 1 0 0 0 .7-.454 5.885 5.885 0 0 1 5.163-2.535c3.379 0 6 3.763 6 7a6.3 6.3 0 0 1 -5.169 6.015 1 1 0 0 0 -.739 1.405c4.3 9.289 2.766 13.308-1.8 17.873-4.332 4.332-12.794 6.572-17.34 7.775-1.334.353-2.312.612-2.953.849-.641-.237-1.619-.5-2.953-.849-4.546-1.2-13.008-3.443-17.34-7.775-4.565-4.565-6.1-8.584-1.8-17.873a1 1 0 0 0 -.739-1.405 6.3 6.3 0 0 1 -5.167-6.015c0-3.237 2.621-7 6-7z"/><path d="m20 39c0 6.886 6.1 11 12 11s12-4.114 12-11c0-7.01-6.393-15-12-15s-12 7.99-12 15zm12-13c4.182 0 10 6.551 10 13 0 6.208-5.848 9-10 9s-10-2.792-10-9c0-6.449 5.818-13 10-13z"/><circle cx="23" cy="24" r="2"/><circle cx="41" cy="24" r="2"/><path d="m32 36c1.8 0 6 0 6-3 0-2.251-2.769-5-6-5s-6 2.749-6 5c0 3 4.205 3 6 3zm0-6c2.311 0 4 1.973 4 3 0 .645-1.42 1-4 1s-4-.355-4-1c0-1.027 1.689-3 4-3z"/><path d="m32 38a3 3 0 1 0 3 3 3 3 0 0 0 -3-3zm0 4a1 1 0 1 1 1-1 1 1 0 0 1 -1 1z"/><path d="m23 20v-2a5.785 5.785 0 0 0 -6 6h2a3.851 3.851 0 0 1 4-4z"/><path d="m45 24h2a5.785 5.785 0 0 0 -6-6v2c.163 0 4 .046 4 4z"/></g></svg>