<svg height="512" viewBox="0 0 64 64" width="512" xmlns="http://www.w3.org/2000/svg"><g id="Filled_outline" data-name="Filled outline"><path d="m39.431 24.868-2.436 3.132h-9.99l-2.741-3.132s-11.264 11.132-4.264 36.132h10v-3h4v3h10c7-25-4.569-36.132-4.569-36.132z" fill="#66342e"/><path d="m43.989 19.009-6.994 8.991h-9.99l-6.994-7.992 1.936-8.012 5.058-3.996h9.544l4.995 3.996z" fill="#995f5b"/><path d="m38 20c0 3.314-2.686 8-6 8s-6-4.686-6-8 2.686-5 6-5 6 1.686 6 5z" fill="#ffd782"/><path d="m36.553 7.981 1-2c1.247-2.494 4.531-4.125 7-2a4.221 4.221 0 0 1 -1 7l-2 1z" fill="#66342e"/><path d="m26.938 7.981-1-2c-1.247-2.494-4.532-4.125-7-2a4.221 4.221 0 0 0 1 7l2 1z" fill="#66342e"/><ellipse cx="32" cy="43" fill="#995f5b" rx="5" ry="8"/><circle cx="32" cy="19" fill="#301a12" r="2"/><path d="m46.961 7.73a5.038 5.038 0 0 0 -1.756-4.507 4.857 4.857 0 0 0 -4.2-1.123 6.446 6.446 0 0 0 -4.348 3.434l-.732 1.466h-8.36l-.733-1.466a6.446 6.446 0 0 0 -4.348-3.434 4.852 4.852 0 0 0 -4.2 1.122 5.042 5.042 0 0 0 -1.755 4.508 5.379 5.379 0 0 0 2.961 4.145l1.3.651-1.873 7.75 4.012 4.585c-2.361 2.855-10.077 14.319-3.892 36.409a1 1 0 0 0 .963.73h10a1 1 0 0 0 1-1v-2h2v2a1 1 0 0 0 1 1h10a1 1 0 0 0 .963-.73c6.217-22.2-1.835-33.671-4.223-36.457l4.371-5.62-2.336-6.705 1.225-.613a5.375 5.375 0 0 0 2.961-4.145zm-26.576 2.356a3.379 3.379 0 0 1 -1.87-2.6 3.071 3.071 0 0 1 1.075-2.747 2.845 2.845 0 0 1 1.892-.739 3.131 3.131 0 0 1 .609.062 4.47 4.47 0 0 1 2.952 2.367l.639 1.277-1.424 1.138-2.551-2.551-1.414 1.414 2.394 2.393-.875.7zm12.615 46.914h-2a3 3 0 0 0 -3-3h-1.095a37.38 37.38 0 0 1 -.035-6.287c1.043 2.587 2.93 4.287 5.13 4.287s4.087-1.7 5.13-4.287a37.38 37.38 0 0 1 -.03 6.287h-1.1a3 3 0 0 0 -3 3zm-5-14c0-3.794 1.832-7 4-7s4 3.206 4 7-1.832 7-4 7-4-3.206-4-7zm15.438-8.989c1.729 5.137 3.071 13.784-.2 25.989h-8.238v-3a1 1 0 0 1 1-1h2a1 1 0 0 0 .992-.876c.041-.333.974-8.07-1-12.344-.075-4.94-2.677-8.78-5.992-8.78s-5.917 3.84-5.993 8.78c-1.973 4.274-1.04 12.011-1 12.344a1 1 0 0 0 .993.876h2a1 1 0 0 1 1 1v3h-8.237c-5.343-19.907 1.274-30.678 3.514-33.6l2.274 2.6h10.933l1.978-2.543.015-.019a25.121 25.121 0 0 1 3.961 7.573zm-16.438-14.011c0-2.949 2.583-4 5-4s5 1.051 5 4c0 2.992-2.472 7-5 7s-5-4.008-5-7zm15.865-1.176-6.359 8.176h-.406a11.058 11.058 0 0 0 2.9-7 5.559 5.559 0 0 0 -2.868-5h1.868v-2h-2v1.925a8.364 8.364 0 0 0 -4-.925 8.364 8.364 0 0 0 -4 .925v-1.925h-2v2h1.868a5.559 5.559 0 0 0 -2.868 5 11.058 11.058 0 0 0 2.9 7h-.445l-6.354-7.261 1.733-7.173 4.519-3.566h8.847l4.5 3.6zm.24-8.738-1.427.714-.659-.526 1.813-2.719-1.664-1.11-1.716 2.575-1.643-1.315.638-1.277a4.47 4.47 0 0 1 2.953-2.367 2.82 2.82 0 0 1 2.5.679 3.072 3.072 0 0 1 1.074 2.746 3.377 3.377 0 0 1 -1.869 2.6z"/><path d="m29 19a3 3 0 0 0 2 2.816v1.378a.887.887 0 0 1 -.569-.109 1.569 1.569 0 0 1 -.431-1.093l-1 .008h-1a3.516 3.516 0 0 0 1.258 2.7 2.7 2.7 0 0 0 1.622.5 4.4 4.4 0 0 0 1.12-.169 4.4 4.4 0 0 0 1.12.175 2.7 2.7 0 0 0 1.622-.5 3.516 3.516 0 0 0 1.258-2.706h-2a1.619 1.619 0 0 1 -.427 1.083.892.892 0 0 1 -.573.11v-1.377a2.995 2.995 0 1 0 -4-2.816zm3-1a1 1 0 1 1 -1 1 1 1 0 0 1 1-1z"/></g></svg>