<?xml version="1.0" encoding="UTF-8"?>
<svg xmlns="http://www.w3.org/2000/svg" viewBox="0 0 64 64" width="512" height="512"><g id="Filled_outline" data-name="Filled outline"><path d="M42,50c1-4,3-23,0-29V11a7.952,7.952,0,0,0-1.084-4.008c.028,0,.055.008.084.008a2,2,0,1,0-1.978-2.223,7.985,7.985,0,0,0-10.044,0A2,2,0,1,0,27,7c.029,0,.056-.007.084-.008A7.952,7.952,0,0,0,26,11V21a44.173,44.173,0,0,1-3,8,2.924,2.924,0,0,0,1,4,54.346,54.346,0,0,0-2,13,35.412,35.412,0,0,1-2,12v3h7a24.886,24.886,0,0,0,3-7,4.829,4.829,0,0,0,4,0l1,7h8S41,54,42,50Z" style="fill:#d3843d"/><path d="M35,13c0,1.105-.9,3-2,3s-2-1.895-2-3,.895-1,2-1S35,11.9,35,13Z" style="fill:#66342e"/><rect x="30" y="9" width="2" height="2"/><rect x="35" y="9" width="2" height="2"/><path d="M33.257,11h-.514a2.9,2.9,0,0,0-2.212.576A1.926,1.926,0,0,0,30,13c0,1.592,1.2,4,3,4s3-2.408,3-4a1.926,1.926,0,0,0-.531-1.425A2.919,2.919,0,0,0,33.257,11ZM33,15c-.321-.043-.993-1.164-1-1.983A7.107,7.107,0,0,1,32.728,13h.544c.227,0,.54,0,.728.018C33.99,13.836,33.318,14.957,33,15Z"/><path d="M43,20.773V11a8.965,8.965,0,0,0-.642-3.325A3,3,0,1,0,38.57,3.25a9.178,9.178,0,0,0-9.14,0,3,3,0,1,0-3.788,4.425A8.965,8.965,0,0,0,25,11v9.872a43.544,43.544,0,0,1-2.895,7.681,3.82,3.82,0,0,0,.773,4.806A53,53,0,0,0,21,46a34.781,34.781,0,0,1-1.929,11.629A1.007,1.007,0,0,0,19,58v3a1,1,0,0,0,1,1h7a1,1,0,0,0,.832-.445,25.674,25.674,0,0,0,2.853-6.276,5.85,5.85,0,0,0,2.5.054l.829,5.809A1,1,0,0,0,35,62h8a1,1,0,0,0,.962-1.275c-.02-.067-1.916-6.785-.992-10.482C44.013,46.074,46.027,27.34,43,20.773ZM41.711,60H35.867L35.1,54.665a11.844,11.844,0,0,0,3.6-1.958l-1.414-1.414a12.618,12.618,0,0,1-3.609,1.758s-.088.033-.131.054a3.853,3.853,0,0,1-3.106,0,13.038,13.038,0,0,1-2.74-1.812l-1.414,1.414a12.731,12.731,0,0,0,2.53,1.794A24.879,24.879,0,0,1,26.442,60H21V58.185A36.812,36.812,0,0,0,23,46a49.118,49.118,0,0,1,1.625-11.381l1.014.675c-.037.15-.084.3-.107.45A3.68,3.68,0,0,0,26.2,38.6a3.166,3.166,0,0,0,2.385,1.265c.093.007.186.01.282.01,4.538,0,11.989-7.317,12.84-8.168l-1.414-1.414c-3.031,3.032-8.833,7.755-11.566,7.577a1.164,1.164,0,0,1-.927-.47,1.708,1.708,0,0,1-.289-1.358c.463-3.088,5.988-7.712,8.077-9.233l-1.176-1.618a43.231,43.231,0,0,0-3.723,3.084l-1.982-1.982-1.414,1.414,1.972,1.972A18.837,18.837,0,0,0,26.4,33.4l-1.812-1.208a1.934,1.934,0,0,1-.7-2.746,44.822,44.822,0,0,0,3.075-8.2A1,1,0,0,0,27,21V11a6.993,6.993,0,0,1,.948-3.506.991.991,0,0,0-.031-1.012A1.034,1.034,0,0,0,27.035,6,1.019,1.019,0,0,1,26,5a.994.994,0,0,1,1.983-.111,1,1,0,0,0,1.623.666,6.986,6.986,0,0,1,8.788,0,1,1,0,0,0,1.623-.666A1,1,0,1,1,41.1,6.006c-.035-.006-.11-.012-.146-.014a1,1,0,0,0-.9,1.5A6.993,6.993,0,0,1,41,11V21a1,1,0,0,0,.1.447c2.861,5.72.874,24.513-.075,28.31C40.233,52.943,41.17,57.729,41.711,60Z"/><path d="M38.03,47.757l1.94.486A38.156,38.156,0,0,0,41,40H39A36.786,36.786,0,0,1,38.03,47.757Z"/></g></svg>
