<svg height="512" viewBox="0 0 64 64" width="512" xmlns="http://www.w3.org/2000/svg"><g id="Filled_outline" data-name="Filled outline"><path d="m52 7a2.812 2.812 0 0 0 -3-3 3.3 3.3 0 0 0 -3 3l-2 12-1 1h-4l-3 3h-8l-3-3h-4l-1-1-2-12a3.3 3.3 0 0 0 -3-3 2.812 2.812 0 0 0 -3 3l1 18 10 4a54.615 54.615 0 0 0 -3 32h9l-1-7 4-3 4 3-1 7h9a54.615 54.615 0 0 0 -3-32l10-4z" fill="#ad6327"/><path d="m41 17-5 6h-8l-5-6 2-7 4-3h6l4 3z" fill="#d3843d"/><path d="m29 7-1.1-2.21a3.309 3.309 0 0 0 -5.112-1.033 3.309 3.309 0 0 0 .673 5.471l1.539.772z" fill="#ad6327"/><path d="m35 7 1.1-2.21a3.309 3.309 0 0 1 5.112-1.033 3.309 3.309 0 0 1 -.673 5.471l-1.539.772z" fill="#ad6327"/><path d="m34 16c0 1.105-.9 3-2 3s-2-1.895-2-3 .895-1 2-1 2-.1 2 1z" fill="#66342e"/><path d="m38 44c0-5.523-2.686-11-6-11s-6 5.477-6 11c0 4.39 1.7 7.11 4.06 8.455l1.94-1.455 1.94 1.456c2.36-1.344 4.06-4.065 4.06-8.456z" fill="#f9bb4b"/><path d="m32 20.031 3.758.939.484-1.94-2.022-.506a5.033 5.033 0 0 0 .78-2.524 1.926 1.926 0 0 0 -.531-1.425 2.9 2.9 0 0 0 -2.212-.575h-.514a2.885 2.885 0 0 0 -2.212.576 1.926 1.926 0 0 0 -.531 1.424 5.033 5.033 0 0 0 .78 2.524l-2.022.506.484 1.94zm-.272-4.031h.544c.226 0 .54 0 .728.018a2.788 2.788 0 0 1 -.956 1.963l-.044-.012-.041.01a2.776 2.776 0 0 1 -.959-1.962 7.1 7.1 0 0 1 .728-.017z"/><path d="m28 12h2v2h-2z"/><path d="m34 12h2v2h-2z"/><path d="m20.934 18.52-1.943-11.652a4.316 4.316 0 0 0 -3.991-3.868 4.057 4.057 0 0 0 -2.985 1.206 3.8 3.8 0 0 0 -1.015 2.85l1 18a1 1 0 0 0 .627.873l9.07 3.628a55.008 55.008 0 0 0 -2.665 31.7 1 1 0 0 0 .968.743h9a1 1 0 0 0 .99-1.142l-.917-6.413 2.927-2.194 2.925 2.194-.917 6.413a1 1 0 0 0 .992 1.142h9a1 1 0 0 0 .966-.742 55.008 55.008 0 0 0 -2.665-31.7l9.07-3.628a1 1 0 0 0 .627-.873l1-18v-.009a3.8 3.8 0 0 0 -1.014-2.842 4.057 4.057 0 0 0 -2.984-1.206 4.3 4.3 0 0 0 -3.99 3.835l-1.948 11.685-.48.48h-1.947l1.471-1.766-1.916-6.711.8-.4a4.309 4.309 0 1 0 -5.78-5.781l-.828 1.658h-4.764l-.829-1.658a4.308 4.308 0 1 0 -5.78 5.781l.8.4-1.916 6.711 1.472 1.766h-1.951zm13.035 32.711-1.369-1.031a1 1 0 0 0 -1.2 0l-1.369 1.027c-1.979-1.407-3.031-3.881-3.031-7.227 0-5.14 2.43-10 5-10s5 4.86 5 10c0 3.348-1.052 5.823-3.031 7.231zm3.031-45.994a2.308 2.308 0 1 1 3.1 3.1l-.992.5-2.84-2.137zm-7.667 2.763h5.334l3.464 2.6 1.763 6.168-1.537 1.842-2.826 3.39h-7.062l-2.825-3.39-1.537-1.844 1.762-6.166zm-6.688-1.449a2.311 2.311 0 0 1 2.286-2.591 2.362 2.362 0 0 1 .463.047 2.288 2.288 0 0 1 1.606 1.23l.732 1.463-2.832 2.129-.992-.5a2.269 2.269 0 0 1 -1.263-1.778zm1.941 14.449 2.672 2.672.273.328h8.938l.292-.351 2.649-2.649h3.59a1 1 0 0 0 .707-.293l1-1a.992.992 0 0 0 .279-.542l2.001-12.033a2.333 2.333 0 0 1 2.013-2.132 2.087 2.087 0 0 1 1.538.586 1.8 1.8 0 0 1 .462 1.363l-.964 17.359-9.408 3.763a1 1 0 0 0 -.554 1.31 54.749 54.749 0 0 1 3.126 30.619h-7.051l.837-5.858a1 1 0 0 0 -.39-.942l-.965-.723c2.178-1.829 3.369-4.777 3.369-8.477 0-5.8-2.813-12-7-12s-7 6.2-7 12c0 3.7 1.191 6.646 3.368 8.475l-.968.725a1 1 0 0 0 -.39.942l.837 5.858h-7.047a54.619 54.619 0 0 1 3.127-30.619 1 1 0 0 0 -.554-1.31l-9.408-3.763-.965-17.356a1.8 1.8 0 0 1 .463-1.366 2.087 2.087 0 0 1 1.537-.586 2.348 2.348 0 0 1 2.014 2.165l2 12a1 1 0 0 0 .279.542l1 1a1 1 0 0 0 .707.293z"/></g></svg>