<svg height="512" viewBox="0 0 64 64" width="512" xmlns="http://www.w3.org/2000/svg"><g id="Filled_outline" data-name="Filled outline"><path d="m28.013 22.977 4.98-5.977-.733-2.567-2.267.567c-4 1-10 8-10 8h8z" fill="#ad6327"/><path d="m23.993 11 6.429-1.429-3.429-2.571h-6l-4 3-1.823 7.212c2.917-4.635 8.823-6.212 8.823-6.212z" fill="#ad6327"/><path d="m14.993 29a54.615 54.615 0 0 0 -3 32h9l-1-7 4-3 4 3-1 7h9a54.615 54.615 0 0 0 -3-32l19-9a2.751 2.751 0 0 0 1-4 2.384 2.384 0 0 0 -3-1l-4 2-15.571 3.113-2.432 2.887h-8s6-7 10-8l4-1c1.635-.272 2.616-1.461 2-3a3.015 3.015 0 0 0 -3-2l-9 2s-14.997 4-8.997 18z" fill="#d3843d"/><g fill="#f9bb4b"><path d="m20.993 7-1.1-2.21a3.309 3.309 0 0 0 -5.112-1.033 3.309 3.309 0 0 0 .674 5.471l1.538.772z"/><path d="m29.993 44c0-5.523-2.686-11-6-11s-6 5.477-6 11c0 4.39 1.7 7.11 4.06 8.455l1.938-1.455 1.941 1.456c2.361-1.344 4.061-4.065 4.061-8.456z"/><path d="m32.82 9.038a3.3 3.3 0 1 0 -4.72-4.248l-1.107 2.21 3.429 2.571z"/></g><path d="m54.357 18.5a3.636 3.636 0 0 0 -.532-3.057 3.4 3.4 0 0 0 -4.279-1.337l-3.88 1.941-12.69 2.537.786-.943a1 1 0 0 0 .193-.915l-.45-1.575.653-.164a3.608 3.608 0 0 0 2.658-1.687 3.047 3.047 0 0 0 .106-2.669 4.5 4.5 0 0 0 -2.112-2.3 4.33 4.33 0 0 0 .537-1.782 4.236 4.236 0 0 0 -1.486-3.549 4.308 4.308 0 0 0 -6.661 1.342l-.825 1.658h-4.763l-.829-1.658a4.309 4.309 0 1 0 -5.783 5.781l.825.412-1.59 6.287c-.187.306-.365.622-.526.953-1.58 3.248-1.511 7.024.2 11.23a55.077 55.077 0 0 0 -2.885 32.253 1 1 0 0 0 .967.742h9a1 1 0 0 0 .989-1.142l-.916-6.413 2.925-2.194 2.924 2.194-.913 6.413a1 1 0 0 0 .99 1.142h9a1 1 0 0 0 .966-.742 55.018 55.018 0 0 0 -2.687-31.758l18.138-8.59a3.577 3.577 0 0 0 1.95-2.41zm-25.364-13.263a2.308 2.308 0 0 1 3.567-.72 2.254 2.254 0 0 1 .792 1.883 2.3 2.3 0 0 1 -.935 1.7l-1.763.4-2.393-1.8zm-7.666 2.763h5.333l1.423 1.067-4.347.967a19.146 19.146 0 0 0 -6.6 3.482l.74-2.928zm-6.689-1.449a2.311 2.311 0 0 1 2.286-2.591 2.362 2.362 0 0 1 .463.047 2.292 2.292 0 0 1 1.607 1.23l.732 1.463-2.838 2.129-.991-.5a2.271 2.271 0 0 1 -1.259-1.778zm11.325 44.679-1.371-1.03a1 1 0 0 0 -1.2 0l-1.37 1.027c-1.977-1.407-3.028-3.881-3.028-7.227 0-5.14 2.429-10 5-10s5 4.86 5 10c0 3.348-1.053 5.822-3.031 7.23zm25.602-32.13-19 9a1 1 0 0 0 -.5 1.285 54.745 54.745 0 0 1 3.126 30.615h-7.048l.836-5.858a1 1 0 0 0 -.389-.942l-.966-.724c2.176-1.829 3.37-4.776 3.37-8.476 0-5.8-2.813-12-7-12s-7 6.2-7 12c0 3.7 1.19 6.645 3.367 8.474l-.967.726a1 1 0 0 0 -.39.942l.837 5.858h-7.05a54.629 54.629 0 0 1 3.127-30.619 1 1 0 0 0 0-.775c-1.628-3.8-1.766-7.145-.409-9.945 2.391-4.932 8.685-6.678 8.706-6.685l8.981-2c.688-.13 1.572.636 1.874 1.391a1.069 1.069 0 0 1 .008.945 1.794 1.794 0 0 1 -1.322.714l-4 1c-4.26 1.065-10.263 8.024-10.517 8.319a1 1 0 0 0 .755 1.655h8a1.835 1.835 0 0 0 .707-.293c.021-.021 2.264-2.682 2.264-2.682l15.225-3.045a1.018 1.018 0 0 0 .251-.085l3.924-1.966a1.386 1.386 0 0 1 1.771.585 1 1 0 0 0 .058.086 1.665 1.665 0 0 1 .225 1.4 1.613 1.613 0 0 1 -.854 1.1zm-19.678-2.333-4.363 5.233h-5.262c2.178-2.269 5.626-5.443 7.974-6.03l1.328-.333z"/></g></svg>