<svg id="Layer_1" enable-background="new 0 0 512 512" height="512" viewBox="0 0 512 512" width="512" xmlns="http://www.w3.org/2000/svg"><path d="m491.73.255c-13.6 0-30.03 5.34-47.13 13.16-37.53 29.16-60.25 82.81-55.21 102.96 2.521 10.097-5.115 19.88-15.54 19.88-7.17 0-13.69-4.85-15.51-12.12-5.97-23.91 5.46-52.95 13.5-69.25-35.3 22.01-53.54 32.81-68.59 25.28-10.7-5.34-34.65-7.36-47.25-7.38-12.6.02-36.55 2.04-47.25 7.38-15.05 7.53-33.29-3.27-68.59-25.28 8.04 16.3 19.47 45.34 13.5 69.25-1.82 7.27-8.35 12.12-15.51 12.12-10.451 0-18.054-9.813-15.54-19.88 5.04-20.15-17.68-73.8-55.21-102.96-17.1-7.82-33.53-13.16-47.13-13.16-16.75 0-20.27 9.36-20.27 11.2 0 15.15 0 50.62 7.38 65.38 25.91 51.81 58.73 90.89 76.35 90.89 14.08 0 20.61-1.47 23.21-2.31 8.936-12.67 29.06-6.373 29.06 9.24 0 1.69-.34 5.81-3.19 10.18-20.43 41.28-51.21 111.81-51.21 134.89 0 30.691 60.836 143.823 83.54 158.95 19.17 12.78 68.82 27.32 90.86 33.07 22.04-5.75 71.69-20.29 90.86-33.07 22.694-15.12 83.54-128.218 83.54-158.95 0-23.08-30.78-93.61-51.21-134.89-2.85-4.37-3.19-8.49-3.19-10.18 0-15.633 20.133-21.897 29.06-9.24 2.6.84 9.13 2.31 23.21 2.31 17.62 0 50.44-39.08 76.35-90.89 7.38-14.76 7.38-50.23 7.38-65.38 0-1.84-3.52-11.2-20.27-11.2zm-176.8 192.53c12.52 0 22.67 10.15 22.67 22.67s-10.15 22.67-22.67 22.67-22.66-10.15-22.66-22.67 10.14-22.67 22.66-22.67zm-35.53 113.21c18.37 4.95 19.8 18.7 19.8 22.79 0 17.87-20.59 34.14-43.2 34.14s-43.2-16.27-43.2-34.14c0-4.09 1.43-17.84 19.8-22.79 11.383-3.071 35.407-3.074 46.8 0zm-82.33-113.21c12.52 0 22.66 10.15 22.66 22.67s-10.14 22.67-22.66 22.67-22.67-10.15-22.67-22.67 10.15-22.67 22.67-22.67zm156.41 147.06c-4.902 36.253-23.824 77.48-61.21 77.48-17.08 0-28.7-3.12-36.27-6.48-7.57 3.36-19.19 6.48-36.27 6.48-37.389 0-56.309-41.234-61.21-77.48-1.09-8.77 5.12-16.77 13.89-17.87 8.75-1.09 16.75 5.11 17.86 13.86 1.35 10.46 10.3 49.49 29.46 49.49 17.65 0 24.75-4.42 25.62-5.02 1.675-1.306 2.834-2.195 4.85-2.95 3.749-1.469 7.954-1.432 11.61 0 2.355.98 3.062 1.563 4.84 2.95.87.6 7.97 5.02 25.62 5.02 19.16 0 28.11-39.03 29.46-49.49 1.13-8.75 9.14-14.94 17.89-13.84 8.75 1.12 14.95 9.09 13.86 17.85z"/></svg>