<svg id="Layer_1" enable-background="new 0 0 512 512" height="512" viewBox="0 0 512 512" width="512" xmlns="http://www.w3.org/2000/svg"><path d="m479.106 175.949c-5.54-27.662-14.278-59.126-26.48-75.399-23.313-31.087-54.619-39.566-54.936-39.646-7.893-1.976-12.937-9.581-11.785-17.634 1.777-12.5 3.048-25.577 3.594-35.823-16.373 9.889-42.317 20.652-75.687 7.307-32.388-12.967-45.941-3.872-47.043-3.068.327-.278.467-.447.467-.447l-11.231-11.239-11.23 11.239c3.577 4.343-7.134-12.277-46.576 3.515-33.371 13.344-59.325 2.582-75.697-7.307.586 10.773 1.966 24.335 3.604 35.813 1.152 8.062-3.972 15.688-11.875 17.663-.228.06-31.534 8.539-54.847 39.626-12.222 16.293-20.96 47.758-26.49 75.399 11.837-3.638 23.085 7.088 20.086 19.033-5.63 22.588-15.678 78.041-10.048 116.465 17.331-14.72 36.684-9.578 37.789 5.967 2.822 15.288 34.009 102.839 71.239 143.521 2.84-16.283 6.801-28.317 7.06-29.092 4.647-13.965 24.315-14.607 29.826-.874 10.604 26.433 40.996 81.032 67.159 81.032s56.555-54.599 67.168-81.039c5.475-13.644 25.146-13.128 29.816.884.258.774 4.22 12.808 7.059 29.092 13.493-14.744 27.751-37.372 41.622-66.325 17.624-36.796 28.476-71.011 29.618-77.197 1.094-15.4 20.362-20.78 37.809-5.957 5.639-38.444-4.428-93.897-10.068-116.475-3.007-11.981 8.278-22.652 20.077-19.034zm-314.119-39.428c0-10.048 8.152-18.2 18.209-18.2 10.048 0 18.2 8.152 18.2 18.2 0 10.058-8.152 18.209-18.2 18.209-10.057.001-18.209-8.151-18.209-18.209zm152.259 110.27c-3.584 26.341-21.009 51.243-61.241 51.243s-57.657-24.902-61.241-51.243c-20.96-12.798-22.479-36.757-17.544-51.58l30.144 10.048c.426-1.217-1.278 3.372-.377 8.122.556 2.959 1.976 6.007 8.539 8.191 14.893 4.964 23.035-2.482 24.703-4.964.374-3.83 2.538-7.707 5.262-10.068-9.859-5.292-16.79-16.939-16.79-24.505 0-10.058 12.222-18.209 27.304-18.209s27.304 8.152 27.304 18.209c0 7.566-6.93 19.212-16.79 24.505 2.823 2.446 4.897 6.33 5.262 10.068 1.668 2.482 9.81 9.929 24.703 4.964 6.563-2.184 7.983-5.233 8.539-8.191.898-4.736-.807-9.348-.377-8.122l30.144-10.048c4.935 14.824 3.416 38.782-17.544 51.58zm11.567-92.06c-10.048 0-18.2-8.152-18.2-18.209 0-10.048 8.152-18.2 18.2-18.2 10.058 0 18.209 8.152 18.209 18.2 0 10.057-8.151 18.209-18.209 18.209z"/><path d="m281.969 254.764c-5.927 9.979-16.978 11.498-25.964 11.498s-20.036-1.519-25.964-11.498c10.076-.887 19.222-4.555 25.964-9.611 6.729 5.047 15.873 8.722 25.964 9.611z"/></svg>