<svg id="Layer_1" enable-background="new 0 0 511.97 511.97" height="512" viewBox="0 0 511.97 511.97" width="512" xmlns="http://www.w3.org/2000/svg"><path d="m293.215 285.895c-4.185 18.467-19.196 32.4-37.23 32.4-18.069 0-33.054-13.971-37.23-32.4 11.507 2.171 26.433.781 37.23-6.01 10.798 6.791 25.752 8.176 37.23 6.01z"/><path d="m369.685 361.565c-1.023 1.492-1.434 2.693-1.57 2.92-7.525 18.817-41.142 55.09-48.84 60.71-13.48 9.97-26.23 19.39-35.98 30.02-9.43 6.66-18.61 12.21-27.31 16.5-8.7-4.29-17.88-9.84-27.31-16.5-9.75-10.63-22.5-20.05-35.98-30.02-7.461-5.447-41.173-41.538-48.84-60.71-.142-.236-.536-1.413-1.57-2.92-1.995-15.092-.198-28.319 8.38-41.32 8.295-12.443 25.158-28.945 35.4-36.29 4.02 37.28 33.83 66.34 69.92 66.34s65.9-29.06 69.92-66.34c10.161 7.287 26.979 23.659 35.4 36.29 8.395 12.723 10.418 25.905 8.38 41.32z"/><path d="m511.355 135.535c-7.466-48.771-81.287-72.466-129.78-81.58-2.102-.39-16.463-2.96-18.57-2.96-4.277 0-11.081-3.947-13.36-10.74-15.157 12.474-33.827 20.353-48.79 7.78-2.005-1.708-1.803-2.282-4.38-1.92-6.603.947-15.513 7.043-20.79 11.16-9.02 7.07-9.633 9.738-15.38 11.34-1.222.407-3.662.731-5.77.53-7.622-.693-9.469-5.068-18.68-12.2-5.175-3.995-13.866-9.899-20.36-10.83-2.577-.363-2.376.212-4.38 1.92-14.965 12.575-33.636 4.691-48.79-7.78-1.912 5.698-7.051 10.01-13.31 10.73-6.446 0-138.341 18.843-148.4 84.55-1.175 7.662-.355 34.526-.08 41.75 10.123-9.034 26.323-2.102 26.64 11.59 0 16.648 4.925 42.034 13.94 59.64 1.087-22.543 2.648-42.306 7.21-64.55 11.591-56.426 39.291-102.38 94.26-118.87 8.624-2.439 17.386 2.288 19.93 10.73 2.53 8.47-2.27 17.39-10.73 19.92-96.959 29.157-74.064 185.798-80.91 200.27-.921 1.893-2.635 4.14-4.53 5.56-1.58 10.94-2.89 25.05-2.89 41.78 0 41.96 32.81 66.05 63.45 83.34-22.372-64.949-29.609-101.39 18.03-149.05 52.087-52.089 64.635-22.82 83.85-22.82 3.056 0 10.391-.574 11.23-3.09.355-4.249 2.216-8.381 5.58-11.19-9.87-5.84-16.81-18.45-16.81-24.12 0-7.51 12.18-9.07 27.2-9.07s27.2 1.56 27.2 9.07c0 5.67-6.94 18.28-16.81 24.12 3.253 2.716 5.211 6.776 5.58 11.19.837 2.51 7.961 3.09 11.23 3.09 19.196 0 31.769-29.263 83.85 22.82 47.813 47.834 40.263 84.503 18.03 149.05 30.64-17.29 63.45-41.38 63.45-83.34 0-16.73-1.31-30.84-2.89-41.78-1.683-1.26-3.476-3.395-4.53-5.56-6.911-14.61 16.143-171.084-80.91-200.27-8.46-2.53-13.26-11.45-10.73-19.92 2.539-8.424 11.278-13.177 19.93-10.73 54.961 16.488 82.667 62.432 94.26 118.87 4.563 22.247 6.124 42.033 7.21 64.55 9.088-17.747 13.94-43.187 13.94-59.64.316-13.67 16.503-20.636 26.64-11.59.279-7.319 1.092-34.104-.08-41.75zm-336.97 53.69c-10.01 0-18.13-8.12-18.13-18.13 0-10.02 8.12-18.14 18.13-18.14s18.13 8.12 18.13 18.14c0 10.01-8.12 18.13-18.13 18.13zm63.27-41.09c-7.28 4.86-17.1 2.95-22.05-4.24-.01-.01-.02-.02-.03-.03-9.287-11.762-30.237-9.292-44.31-3.25-37.102 14.831-44.769 43.489-44.87 43.59-1.87 7.18-8.36 11.96-15.46 11.96-10.441 0-18.055-9.808-15.54-19.89.25-1 3.8-14.52 15.8-29.94 16.067-20.653 40.155-34.73 63.52-40.39 45.93-11.16 66.45 18.6 67.38 20.01 4.9 7.35 2.92 17.28-4.44 22.18zm99.93 41.09c-10.01 0-18.13-8.12-18.13-18.13 0-10.02 8.12-18.14 18.13-18.14s18.13 8.12 18.13 18.14c0 10.01-8.12 18.13-18.13 18.13zm63.19-42.89c12 15.42 15.55 28.94 15.8 29.94 2.516 10.089-5.107 19.89-15.54 19.89-7.684 0-14.05-5.559-15.51-12.13-9.866-31.738-53.87-53.93-77.58-47.24-6.213 2.075-7.61 3.13-11.58 7.1-3.911 6.519-14.223 9.461-22.05 4.24-7.36-4.9-9.34-14.83-4.44-22.18.93-1.41 21.45-31.17 67.38-20.01 23.3 5.644 47.344 19.598 63.52 40.39z"/></svg>