<svg id="Layer_1" enable-background="new 0 0 512 512" height="512" viewBox="0 0 512 512" width="512" xmlns="http://www.w3.org/2000/svg"><path d="m276.08 416.675c-1.76 6.25-11.77 19.89-20.08 19.89s-18.32-13.64-20.08-19.89c1.81-3.64 9.86-11.58 20.08-11.58s18.27 7.94 20.08 11.58z"/><path d="m499.89 39.175c-21.24 4.223-80.493 65.556-95.97 81.13-47.106 47.414-65.046 65.19-82.54 56.43-19.311-9.646-111.441-9.65-130.76 0-17.543 8.784-35.573-9.156-82.54-56.43-15.305-15.401-74.708-76.903-95.97-81.13-6.09 7.01-12.11 20.13-12.11 32.59 0 44.095 5.302 150.682 39.33 177.9 20.27 16.22 36.32 24.41 47.14 28.56 4.85-46.13 37.67-87.64 39.17-89.52 5.52-6.9 15.59-8.02 22.49-2.5 6.89 5.51 8.02 15.57 2.51 22.47-.5.64-32.77 41.76-32.77 80.69 0 43.23 17.55 74.39 22.51 79.35 10.22 10.22 30.04 39.45 40.13 69.72 8.49 25.48 13.74 34.39 39.22 34.39 11.03 0 15.04-4.7 17.24-8.94-19.99-10-33.24-33.73-33.24-47.59 0-19.44 24.12-43.2 52.27-43.2s52.27 23.76 52.27 43.2c0 13.86-13.25 37.59-33.24 47.59 3.432 6.83 9.626 8.94 17.24 8.94 25.48 0 30.73-8.91 39.22-34.39 10.09-30.27 29.91-59.5 40.13-69.72 4.96-4.96 22.51-36.12 22.51-79.35 0-39.03-32.44-80.28-32.77-80.69-5.5-6.91-4.36-16.97 2.54-22.48 6.9-5.5 16.95-4.39 22.46 2.51 1.5 1.88 34.32 43.39 39.17 89.52 10.82-4.15 26.87-12.34 47.14-28.56 34.055-27.24 39.33-133.386 39.33-177.9 0-12.46-6.02-25.58-12.11-32.59zm-334.56 313.65c-15.02 0-27.2-12.17-27.2-27.2 0-15.02 12.18-27.2 27.2-27.2 15.03 0 27.2 12.18 27.2 27.2 0 15.03-12.17 27.2-27.2 27.2zm208.54-27.2c0 15.03-12.18 27.2-27.2 27.2-15.03 0-27.2-12.17-27.2-27.2 0-15.02 12.17-27.2 27.2-27.2 15.02 0 27.2 12.18 27.2 27.2z"/></svg>