<svg id="Layer_1" enable-background="new 0 0 512 512" height="512" viewBox="0 0 512 512" width="512" xmlns="http://www.w3.org/2000/svg"><path d="m333.91 466.89c-13.724 17.396-55.229 17.91-77.91 17.91-22.043 0-62.743-.573-76.99-16.81 4.51 2.19 9.06 3.48 13.52 3.48 14.57 0 43.57-.02 62.87-15.39 19.3 15.37 48.3 15.39 62.87 15.39 5.16 0 10.45-1.73 15.64-4.58z"/><path d="m286.1 356.19c-.46 2.45-3.7 9.2-11.87 17.13-8.33 8.09-16 11.64-18.2 11.75-2.26-.11-9.93-3.66-18.26-11.75-8.17-7.93-11.42-14.68-11.87-17.13 3.357-8.44 5.799-15.934 8.25-17.71 5.501-4.063 38.199-4.063 43.7 0 2.428 1.759 4.801 9.037 8.25 17.71z"/><path d="m401.61 70.08c-54.13-34.06-84.07-42.88-145.61-42.88-61.55 0-91.48 8.82-145.61 42.88-42.14 26.515-110.39 16.129-110.39 113.39 0 79.156 51.47 126.61 55.09 162.46 16.133-7.452 30.49-21.097 30.78-26.48 0-23.76-48.923-133.096 16.19-176.5 7.35-4.9 17.28-2.91 22.19 4.44 4.9 7.35 2.91 17.29-4.44 22.19-38.621 25.743-9.418 103.643-3.28 137.61 14.927 7.447 24.744 23.752 31.1 39.08 10.28-22.76 21.38-42.79 21.85-43.64 4.29-7.72 14.03-10.51 21.75-6.22 7.73 4.29 10.51 14.03 6.22 21.76-9.621 17.321-33.19 63.805-35.33 83.59.17 1.11.34 2.23.51 3.36 8.47 15.57 24.56 32.12 30.69 34.35 19.69-.05 38.45-1.74 45.52-12.25.31-4.7 2.69-9.08 6.53-11.88-25.582-7.868-59.992-44.036-49.56-70.08 5.091-12.761 8.422-24.563 19.46-32.63 8.92-6.51 20.72-9.16 40.73-9.16s31.81 2.65 40.73 9.16c11.04 8.069 14.368 19.868 19.46 32.63 10.486 26.178-24.492 62.933-50.44 70.34 3.64 2.8 5.91 7.05 6.21 11.62 7.07 10.51 25.83 12.2 45.52 12.25 6.28-2.29 23.05-19.63 31.32-35.54.498-16.811-26.802-70.191-35.45-85.76-4.29-7.72-1.51-17.46 6.21-21.76 7.73-4.29 17.47-1.5 21.76 6.22 6.094 10.919 15.843 30.13 22.48 45.05 6.412-15.916 16.37-32.857 31.67-40.49 6.209-34.125 35.315-111.884-3.28-137.61-7.35-4.9-9.34-14.84-4.44-22.19 4.91-7.35 14.84-9.34 22.19-4.44 65.134 43.418 16.19 152.722 16.19 176.52.286 5.26 14.243 18.821 30.78 26.46 3.643-36.08 55.09-83.138 55.09-162.46 0-97.181-68.312-86.914-110.39-113.39zm-222.68 158.72c-12.52 0-22.66-10.15-22.66-22.67s10.14-22.66 22.66-22.66 22.67 10.14 22.67 22.66-10.15 22.67-22.67 22.67zm154.14 0c-12.52 0-22.67-10.15-22.67-22.67s10.15-22.66 22.67-22.66 22.66 10.14 22.66 22.66-10.14 22.67-22.66 22.67z"/></svg>