<svg id="Layer_1" enable-background="new 0 0 512 512" height="512" viewBox="0 0 512 512" width="512" xmlns="http://www.w3.org/2000/svg"><path d="m293.88 466.96c-22.443 11.693-53.314 11.695-75.76 0 15.053-5.01 32.766-13.63 37.88-13.63 5.077 0 22.871 8.634 37.88 13.63z"/><path d="m302.19 350.82c-8.12 25.18-13.3 25.18-19.87 25.18-8.157 0-18.421 3.537-26.32 10.57-7.863-7.001-18.176-10.57-26.32-10.57-6.57 0-11.75 0-19.87-25.18-7.422-22.995 9.091-34.2 21.61-46.44 5.853-1.137 19.247 3.01 20.33 3.29 2.199.451 3.6.787 6.04.48 3.17-.238 15.991-5.09 22.79-3.77 12.373 12.096 29.073 23.315 21.61 46.44z"/><path d="m400.28 57.09c-15.036 10.025-32.949 4.901-48.07-5.51-16.19-11.16-67.6-15.31-96.21-15.31-28.62.01-80.06 4.18-96.21 15.31-15.084 10.385-33.008 15.552-48.07 5.51-36.151 14.748-111.72 52.405-111.72 90.11 0 59.76 36.64 81.72 43.99 85.52 22.95 11.85 40.58 49.39 43.37 78.89 5.623-7.819 4.153-12.592-3.37-51.68-16.74-86.99-26.88-154.91 6.73-172.28 7.85-4.05 17.5-.98 21.56 6.87 4.04 7.82 1 17.43-6.79 21.52-.5.46-7.55 7.84-4.07 49.06.55 6.61 1.33 13.49 2.26 20.47 13.672 30.786 45.48 109.142 45.48 142.96 0 17.31 0 46.27 4.17 71.01 3.91 23.27 10.99 38.38 18.93 40.44 22.785 5.895 48.143-9.065 67.6-15.55-1-13.94-7.49-16.17-10.55-16.43-32.05-.18-42.59-24.53-49.96-47.35-13.05-40.48 14.5-65.36 26.26-75.98 1.53-1.38 2.97-2.68 3.8-3.53 12.44-12.86 34.87-8.9 46.59-5.62 11.72-3.28 34.15-7.24 46.59 5.62 8.05 8.245 44.753 33.933 30.06 79.51-7.37 22.82-17.91 47.17-49.96 47.35-3.06.26-9.55 2.49-10.55 16.43 19.473 6.49 44.757 21.429 67.6 15.55 7.94-2.06 15.02-17.17 18.93-40.44 4.17-24.74 4.17-53.7 4.17-71.01 0-33.817 31.815-112.191 45.48-142.96.93-6.98 1.71-13.86 2.26-20.47 3.48-41.22-3.57-48.6-4.07-49.06-7.79-4.09-10.83-13.7-6.79-21.52 4.06-7.85 13.71-10.93 21.56-6.87 33.61 17.37 23.47 85.29 6.73 172.28-7.725 40.14-8.833 44.083-3.37 51.68 2.79-29.5 20.42-67.04 43.37-78.89 7.35-3.8 43.99-25.76 43.99-85.52 0-37.736-75.572-75.363-111.72-90.11zm-253.96 126.379c-12.52 0-22.66-10.15-22.66-22.67s10.14-22.67 22.66-22.67 22.67 10.15 22.67 22.67-10.15 22.67-22.67 22.67zm219.36 0c-12.52 0-22.67-10.15-22.67-22.67s10.15-22.67 22.67-22.67 22.66 10.15 22.66 22.67-10.14 22.67-22.66 22.67z"/></svg>