<svg id="Layer_1" enable-background="new 0 0 512 512" height="512" viewBox="0 0 512 512" width="512" xmlns="http://www.w3.org/2000/svg"><path d="m276.302 238.743c-1.763 3.566-9.204 10.416-20.302 10.416-11.147 0-18.599-6.911-20.322-10.406 8.309-4.597 32.244-4.613 40.624-.01z"/><path d="m353.973 364.049c-5.689 18.569-13.381 35.515-17.477 44.009-33.462 10.096-66.354 15.535-80.496 15.535s-47.034-5.439-80.496-15.535c-4.096-8.493-11.788-25.449-17.477-44.009-9.064-29.616-9.375-51.48-.871-59.994 20.153-20.111 34.3-38.957 52.472-46.663 6.56 9.825 17.598 17.738 30.347 21.474v27.222c-35.285 8.333-52.582 42.106-53.393 43.739-5.338 10.676 2.433 23.236 14.332 23.236 5.859 0 11.488-3.225 14.292-8.824.14-.28 14.673-27.944 40.794-27.944 25.931 0 40.433 27.263 40.784 27.934 2.824 5.569 8.463 8.794 14.312 8.794 11.714 0 19.707-12.427 14.322-23.196-.811-1.633-18.108-35.405-53.393-43.739v-27.222c12.75-3.736 23.787-11.648 30.347-21.474 18.171 7.705 32.404 26.636 52.472 46.663 8.504 8.513 8.193 30.378-.871 59.994z"/><path d="m512 214.665c-10.216 9.805-24.138 27.413-24.138 50.519 0 8.573-5.599 22.786-14.272 31.499 4.684-71.996-38.505-159.862-68.207-198.1 15.023-.1 27.423 2.073 36.247 6.49 19.901 9.957 51.35 66.715 70.37 109.592z"/><path d="m362.126 101.699c-.971-.311-1.903-.721-2.794-1.202-21.874-8.714-67.455-12.079-94.157-12.089h-18.359c-22.782.009-82.546 3.226-101.278 15.665-24.018 16.029-75.498 112.928-75.498 179.47 0 67.848 33.22 60.632 45.04 95.79 1.032 2.003 6.17 6.77 18.799 13.01-13.187-34.864-25.84-84.492.621-110.953 22.924-22.925 41.383-48.266 71.862-56.799 5.959-11.719 21.013-21.343 49.638-21.343s43.678 9.625 49.638 21.343c30.483 8.533 48.864 33.799 71.862 56.799 26.46 26.46 13.809 76.086.621 110.953 12.63-6.24 17.768-11.007 18.799-13.01 11.831-35.188 45.04-27.929 45.04-95.79.001-70.814-55.876-170.753-79.834-181.844zm-230.07 154.301c-17.748 0-32.13-14.382-32.13-32.13 0-17.747 14.383-32.14 32.13-32.14s32.13 14.393 32.13 32.14c.001 17.748-14.382 32.13-32.13 32.13zm247.888 0c-17.748 0-32.13-14.382-32.13-32.13 0-17.747 14.383-32.14 32.13-32.14 17.748 0 32.13 14.393 32.13 32.14 0 17.748-14.383 32.13-32.13 32.13z"/><path d="m38.41 296.684c-8.674-8.714-14.272-22.926-14.272-31.499 0-23.106-13.922-40.714-24.138-50.519 19.02-42.877 50.469-99.636 70.36-109.591 8.834-4.417 21.233-6.59 36.257-6.49-32.952 42.421-72.671 129.486-68.207 198.099z"/></svg>