<svg id="Layer_1" enable-background="new 0 0 512 512" height="512" viewBox="0 0 512 512" width="512" xmlns="http://www.w3.org/2000/svg"><path d="m255.998 345.495c-29.052-19.367-41.604-25.03-31.034-46.171 2.571-5.152 18.798-9.224 31.054-9.294 11.945.01 28.443 4.152 31.014 9.294 10.782 21.564-3.356 27.72-31.034 46.171z"/><path d="m358.464 486.768c-3.351 6.273-4.922 7.154-6.573 7.563-3.332.841-12.386.861-35.526-8.404-26.972-10.793-39.845-82.221-43.469-113.221 22.438-14.955 55.468-32.305 49.182-68.931 12.418 18.232 17.688 47.509 17.688 70.031 0 41.436 18.148 93.424 18.148 108.849 0 1.422.2 2.793.55 4.113z"/><path d="m291.104 507.798c-22.34 5.6-47.846 5.607-70.212 0 14.327-11.355 26.082-31.174 35.106-59.226 9.024 28.052 20.78 47.871 35.106 59.226z"/><path d="m239.1 372.707c-3.54 30.501-16.589 102.473-43.469 113.221-23.14 9.254-32.194 9.244-35.526 8.404-1.651-.41-3.221-1.291-6.573-7.563.647-2.441.644-4.439.43-7.513 4.152-24.279 18.268-68.661 18.268-105.447 0-22.455 5.246-51.765 17.688-70.031-6.191 36.071 26.105 53.549 49.182 68.929z"/><path d="m430.767 111.27c-12.053-30.593-15.198-44.813-29.043-75.374-11.375-25.121-18.329-33.415-20.92-35.896-7.543 1.581-16.007 11.135-23.561 26.752-8.474 17.528-12.375 35.606-12.676 38.948-.08 4.972-2.301 9.734-6.123 13.106-6.303 5.563-16.207 8.134-50.443 5.753-58.126-4.043-5.898-4.042-64.009 0-34.235 2.371-44.14-.19-50.443-5.753-3.822-3.372-6.043-8.134-6.123-13.106-.3-3.341-4.202-21.419-12.676-38.948-7.551-15.617-16.014-25.171-23.558-26.752-2.591 2.481-9.544 10.775-20.919 35.896-13.85 30.571-16.988 44.773-29.043 75.374-24.946 63.233-23.439 72.234-10.085 93.722 18.698-61.758 51.883-109.719 53.824-112.49 5.062-7.243 15.047-9.004 22.29-3.932 7.233 5.062 9.004 15.037 3.942 22.28-.61.871-60.607 87.809-60.607 172.248 0 50.99 21.093 95.209 43.059 139.983 3.562-16.658 6.563-34.225 6.563-49.272 0-50.423 20.898-115.792 70.432-115.792h90.701c49.54 0 70.432 65.359 70.432 115.792 0 15.047 3.001 32.614 6.563 49.272 22.105-45.056 43.059-88.953 43.059-139.983 0-84.678-59.997-171.367-60.597-172.238-5.072-7.243-3.312-17.218 3.932-22.29 7.243-5.072 17.228-3.311 22.29 3.932 1.941 2.771 35.126 50.733 53.824 112.501 13.356-21.535 14.87-30.478-10.085-93.733zm-265.479 135.541c-10.015 0-18.138-8.124-18.138-18.139 0-10.014 8.124-18.138 18.138-18.138 10.025 0 18.148 8.124 18.148 18.138 0 10.015-8.124 18.139-18.148 18.139zm199.559-18.138c0 10.015-8.124 18.139-18.138 18.139-10.025 0-18.148-8.124-18.148-18.139 0-10.014 8.124-18.138 18.148-18.138 10.014 0 18.138 8.123 18.138 18.138z"/></svg>