<svg id="Layer_1" enable-background="new 0 0 511.993 511.993" height="512" viewBox="0 0 511.993 511.993" width="512" xmlns="http://www.w3.org/2000/svg"><path d="m487.221 172.683c-15.071-30.142-44.866-24.974-99.58-107.02-20.09-30.15-47.88-50.32-82.57-59.94-25.24-7.01-45.36-5.68-47.38-5.52-.136 0-.054.01-.18.01-4.364.437-84.246-8.032-133.21 65.45-55.008 82.486-84.371 76.603-99.58 107.02-1.46 2.93-3.23 10.73 1.42 30.04 9.776 40.521 37.593 93.693 37.41 127.19 5.07-3.11 10.92-7.16 16.33-11.39-7.52-30.65-12.08-60.14-12.08-80.51 0-58.13 28.26-105.9 29.46-107.91 4.55-7.57 14.38-10.03 21.96-5.48 7.57 4.54 10.03 14.37 5.48 21.95-.23.39-24.9 42.42-24.9 91.44 0 51.879 35.761 180.961 73.79 203.76 37.73 22.65 68.96 56.52 80.78 70.22h3.2c11.82-13.7 43.05-47.57 80.78-70.22 38.06-22.818 73.79-151.93 73.79-203.76 0-49.36-24.65-91.03-24.9-91.44-4.55-7.58-2.09-17.41 5.48-21.95 7.58-4.55 17.41-2.09 21.96 5.48 1.2 2.01 29.46 49.78 29.46 107.91 0 20.37-4.56 49.86-12.08 80.51 5.41 4.23 11.26 8.28 16.33 11.39-.11-20.18 9.45-46.06 20.23-75.24 5.981-16.199 26.047-67.044 18.6-81.99zm-158.76-70.59c10.01 0 18.13 8.11 18.13 18.12s-8.12 18.13-18.13 18.13-18.12-8.12-18.12-18.13 8.11-18.12 18.12-18.12zm-144.98 0c10.01 0 18.12 8.11 18.12 18.12s-8.11 18.13-18.12 18.13-18.13-8.12-18.13-18.13 8.12-18.12 18.13-18.12zm181.41 274.92c-14.216 16.274-35.32 15.67-47.87 6.74-35.5 20.325-86.569 20.342-122.1 0-12.841 9.137-33.87 9.288-47.87-6.74-26.99-30.86-19.82-108.98-15.49-141.13 6.113-45.337 37.279-74.636 80.46-88 7.13-6.54 20.21-11.95 43.95-11.95s36.82 5.41 43.95 11.95c43.176 13.363 74.346 42.658 80.46 88 4.33 32.15 11.5 110.27-15.49 141.13z"/><path d="m300.591 356.293c-25.513 14.255-63.681 14.281-89.24 0 4.877-18.152 5.677-35.602 18.8-39.51 10.36-3.09 19.05-9.23 25.82-18.08 6.77 8.85 15.46 14.99 25.82 18.08 13.175 3.923 13.972 21.541 18.8 39.51z"/><path d="m334.561 356.373c-7.833-13.365-4.726-58.666-43.62-70.26-18.22-5.43-18.97-38.75-18.97-39.03 0-8.84-7.16-16-16-16s-16 7.16-16 16c0 .33-.81 33.62-18.97 39.03-38.909 11.599-35.767 56.861-43.62 70.26-6.067 10.352-26.721-22.552-14.11-116.22 3.743-27.7 20.576-46.152 46.01-57.21 19.682 27.997 73.471 28.32 93.38 0 25.433 11.058 42.267 29.51 46.01 57.21 12.609 93.659-8.107 126.463-14.11 116.22z"/></svg>