<svg id="Layer_1" enable-background="new 0 0 512 512" height="512" viewBox="0 0 512 512" width="512" xmlns="http://www.w3.org/2000/svg"><path d="m277.052 426.247c-3.645 12.656-15.221 29.165-21.188 29.165-5.646 0-17.335-15.785-21.187-29.165 9.782-6.343 32.555-6.367 42.375 0z"/><path d="m436.982 0c-4.619 42.456-24.815 114.948-17.229 145.276 3.007 12.037 4.52 34.608-.241 61.859-4.618 26.565 5.356 35.597-6.284 54.342.251-5.282.401-10.714.401-16.357 0-49.852-20.376-88.779-58.942-112.763 19.406-35.449 56.601-100.862 82.295-132.357z"/><path d="m328.819 154.236c-.71-.19-27.948-15.675-72.824-15.675-22.252 0-46.956 4.031-67.662 13.24-5.93 4.203-57.89 20.761-57.89 93.32 0 100.317 47.156 135.295 47.156 179.182 0 22.12 2.666 45.242 7.126 61.849 5.091 18.963 11.496 25.848 14.553 25.848 17.18 0 36.595-17.122 40.12-28.634-23.102-11.806-37.294-45.743-37.294-59.063 0-46.538 107.522-46.525 107.522 0 0 13.27-14.102 47.026-37.053 58.942 3.474 11.796 23.24 28.755 40.15 28.755 3.057 0 9.451-6.885 14.553-25.848 4.46-16.607 7.126-39.729 7.126-61.849 0-43.843 47.156-78.939 47.156-179.182-.001-50.063-24.626-76.743-52.739-90.885zm-148.394 138.04c-10.423 0-18.862-8.439-18.862-18.862 0-10.413 8.439-18.862 18.862-18.862 10.414 0 18.852 8.449 18.852 18.862.001 10.424-8.438 18.862-18.852 18.862zm151.15 0c-10.414 0-18.862-8.439-18.862-18.862 0-10.413 8.449-18.862 18.862-18.862 10.423 0 18.862 8.449 18.862 18.862 0 10.424-8.439 18.862-18.862 18.862z"/><path d="m98.371 245.121c0 5.643.15 11.075.401 16.357-11.514-18.542-1.72-28.089-6.284-54.342-4.761-27.251-3.247-49.822-.241-61.859 7.607-30.413-12.586-102.605-17.229-145.277 25.674 31.47 62.838 96.816 82.295 132.357-38.566 23.984-58.942 62.912-58.942 112.764z"/></svg>