<svg id="Layer_1" enable-background="new 0 0 512.119 512.119" height="512" viewBox="0 0 512.119 512.119" width="512" xmlns="http://www.w3.org/2000/svg"><path d="m335.93 489.37c-41.093 30.308-118.604 30.355-159.73 0 5.87-23.44 18.12-45.1 34.53-45.1 19.38 0 34.59-4.25 45.33-12.62 10.74 8.37 25.95 12.62 45.33 12.62 16.409 0 28.659 21.66 34.54 45.1z"/><path d="m256.06 385.07c-20.558 0-21.424-28.599-19.73-33.33 2.36-1.24 4.36-3.05 5.83-5.25 6.699-2.635 21.086-2.641 27.8 0 1.47 2.2 3.48 4.01 5.83 5.25 1.608 4.491 1.057 33.33-19.73 33.33z"/><path d="m229.58 409.82c-4.44 1.46-10.56 2.45-18.85 2.45-32.188 0-52.563 28.388-62.58 58.91-1.83-6.21-3.02-11.91-3.02-15.71 0-16.806-22.807-22.211-30.31-7.16-3.32 6.63-9.08 19.36-13.54 35.57-11.002-34.693-6.148-75.514 4.89-92.07 23.62-35.43 66.19-39.07 97.7-38.77-1.171 20.83 6.927 45.111 25.71 56.78z"/><path d="m410.84 483.88c-4.46-16.21-10.22-28.94-13.53-35.57-7.515-15.031-30.32-9.667-30.32 7.16 0 3.8-1.19 9.5-3.02 15.71-10.016-30.664-30.524-58.91-62.58-58.91-8.29 0-14.41-.99-18.85-2.45 18.517-11.504 26.902-35.553 25.71-56.78 31.51-.3 74.08 3.34 97.7 38.77 10.989 16.485 15.891 57.381 4.89 92.07z"/><path d="m493.77 54.62c-5.669-11.323-45.582-18.695-72.67-28.35-26.465-9.449-47.256-26.27-58.09-26.27-16.256 0-25.707 16.785-29.64 32.47-1.5 7.48-8.06 12.86-15.69 12.86h-123.24c-7.63 0-14.19-5.38-15.69-12.86 0-.02-2-9.36-7.47-18.18-8.85-14.29-18.88-14.29-22.171-14.29-5.75 0-15.06 5.11-24.91 10.52-23.659 12.981-30.856 15.74-60.92 24.33-18.22 5.22-40.9 11.72-44.93 19.77-.09.18-2.17 4.65 2.64 21.31 6.295 21.734 19.893 49.574 27.5 71.24 10.28-14.797 21.765-33.93 30.77-50.17 2.05-8.078 6.973-22.147 13.95-26.68 7.035-14.642 14.683-41.141 39.51-46.23 19.92-4.09 35.1 10.4 36.77 12.06l-22.63 22.63c1.18 1.179-4.188-4.118-7.75-3.34-2.52.56-7.02 5.11-11.41 16.1-3.62 9.05-10.33 22.54-18.43 37.33-4.5 23.35.35 56.29 4.64 63.98 14.088 15.044 31.843 65.74 21.33 97.28-7.6 22.81-12.64 45.17-15.23 67.63 32.786-17.145 68.07-17.153 101.33-16.31 8.36-5.326 18.788-8.92 34.72-8.92 15.936 0 26.363 3.596 34.72 8.92 34.57-.876 68.839-.681 101.33 16.31-2.59-22.46-7.63-44.82-15.23-67.64-6.34-19.01-2.37-41.51 2.06-57.05 3.77-13.19 11.02-31.41 19.27-40.22 4.29-7.69 9.15-40.63 4.65-63.98-8.11-14.79-14.81-28.28-18.43-37.33-4.4-10.99-8.9-15.54-11.42-16.1-3.538-.776-8.895 4.485-7.75 3.34l-22.63-22.63c1.67-1.66 16.85-16.15 36.77-12.06 24.795 5.083 32.651 31.956 39.51 46.23 6.971 4.529 11.895 18.584 13.95 26.68 8.907 16.023 20.309 35.128 30.78 50.17 7.512-21.462 21.156-49.374 27.49-71.24 4.811-16.66 2.73-21.13 2.641-21.31zm-319.31 156.05c-10.01 0-18.13-8.12-18.13-18.14 0-10.01 8.12-18.13 18.13-18.13s18.13 8.12 18.13 18.13c0 10.02-8.121 18.14-18.13 18.14zm59.23-82.73c-4.38 7.66-14.13 10.32-21.79 5.98-6.61-3.71-26.83-12.05-40.95-6.24-8.04 3.31-13.72 11.13-17.37 23.92-2.01 7.02-8.42 11.6-15.38 11.6-10.65 0-18.307-10.196-15.39-20.4 8.03-28.12 24.1-39.88 36.16-44.79 30.98-12.61 64.99 5.94 68.76 8.1 7.67 4.38 10.34 14.16 5.96 21.83zm103.969 82.73c-10.01 0-18.13-8.12-18.13-18.14 0-10.01 8.12-18.13 18.13-18.13 10.02 0 18.13 8.12 18.13 18.13 0 10.02-8.109 18.14-18.13 18.14zm15.5-112.66c12.05 4.91 28.12 16.67 36.15 44.79 2.43 8.5-2.49 17.36-10.99 19.78-8.554 2.443-17.368-2.555-19.78-10.98-3.66-12.83-9.37-20.66-17.45-23.95-14.25-5.8-34.76 2.78-40.82 6.24-7.67 4.39-17.45 1.72-21.83-5.95-4.39-7.67-1.72-17.45 5.95-21.83 3.77-2.16 37.78-20.71 68.77-8.1z"/></svg>