<svg width="20" height="20" viewBox="0 0 20 20" fill="none" xmlns="http://www.w3.org/2000/svg">
<circle cx="10" cy="10" r="10" fill="white"/>
<path fill-rule="evenodd" clip-rule="evenodd" d="M14.7487 10.624C14.7727 10.424 14.7887 10.216 14.7887 10C14.7887 9.78401 14.7727 9.57601 14.7407 9.37601L16.0927 8.32001C16.2127 8.22401 16.2447 8.04801 16.1727 7.91201L14.8927 5.69601C14.8127 5.55201 14.6447 5.50401 14.5007 5.55201L12.9087 6.19201C12.5727 5.93601 12.2207 5.72801 11.8287 5.56801L11.5887 3.87201C11.5647 3.71201 11.4287 3.60001 11.2687 3.60001H8.70874C8.54874 3.60001 8.42074 3.71201 8.39674 3.87201L8.15674 5.56801C7.76474 5.72801 7.40474 5.94401 7.07674 6.19201L5.48474 5.55201C5.34074 5.49601 5.17274 5.55201 5.09274 5.69601L3.81274 7.91201C3.73274 8.05601 3.76474 8.22401 3.89274 8.32001L5.24474 9.37601C5.21274 9.57601 5.18874 9.79201 5.18874 10C5.18874 10.208 5.20474 10.424 5.23674 10.624L3.88474 11.68C3.76474 11.776 3.73274 11.952 3.80474 12.088L5.08474 14.304C5.16474 14.448 5.33274 14.496 5.47674 14.448L7.06874 13.808C7.40474 14.064 7.75674 14.272 8.14874 14.432L8.38874 16.128C8.42074 16.288 8.54874 16.4 8.70874 16.4H11.2687C11.4287 16.4 11.5647 16.288 11.5807 16.128L11.8207 14.432C12.2127 14.272 12.5727 14.056 12.9007 13.808L14.4927 14.448C14.6367 14.504 14.8047 14.448 14.8847 14.304L16.1647 12.088C16.2447 11.944 16.2127 11.776 16.0847 11.68L14.7487 10.624ZM9.98873 12.4C8.66874 12.4 7.58874 11.32 7.58874 10C7.58874 8.68001 8.66874 7.60001 9.98873 7.60001C11.3087 7.60001 12.3887 8.68001 12.3887 10C12.3887 11.32 11.3087 12.4 9.98873 12.4Z" fill="#2F80ED"/>
</svg>
