<svg id="Capa_1" enable-background="new 0 0 512 512" height="512" viewBox="0 0 512 512" width="512" xmlns="http://www.w3.org/2000/svg"><g><g><path d="m194.324 48.925c51.417 17.457 49.923 83.138 49.923 83.138s-38.805 53.014-90.222 35.557c-43.094-14.631-81.37-74.12-92.633-92.997-1.892-3.171-.606-6.961 2.826-8.325 20.429-8.116 87.013-32.004 130.106-17.373z" fill="#a1e8c3"/><path d="m194.324 48.375c-4.836-1.642-9.97-2.795-15.299-3.544 27.689 18.109 26.782 58.05 26.782 58.05s-29.67 40.534-68.983 27.187c-29.806-10.12-56.595-48.302-67.81-66.18-1.795.682-3.406 1.309-4.796 1.861-3.432 1.363-4.718 5.153-2.826 8.324 11.263 18.877 49.539 78.366 92.633 92.997 51.417 17.457 90.222-35.557 90.222-35.557s1.495-65.681-49.923-83.138z" fill="#85adc2"/><path d="m317.675 48.925c-51.417 17.457-49.923 83.138-49.923 83.138s38.805 53.014 90.222 35.557c43.094-14.631 81.37-74.12 92.633-92.997 1.892-3.171.605-6.961-2.826-8.325-20.428-8.116-87.012-32.004-130.106-17.373z" fill="#a1e8c3"/><path d="m447.781 66.299c-20.428-8.118-87.012-32.005-130.106-17.374-.534.181-1.053.375-1.575.567 31.67-10.074 79.726 7.159 94.578 13.06 2.52 1.001 3.465 3.785 2.076 6.113-8.272 13.864-36.384 57.555-68.033 68.3-37.763 12.821-66.262-26.114-66.262-26.114s-.804-35.461 22.769-53.656c-34.623 24.142-33.475 74.868-33.475 74.868s38.805 53.014 90.222 35.557c43.094-14.631 81.37-74.12 92.633-92.997 1.891-3.171.605-6.961-2.827-8.324z" fill="#85adc2"/><path d="m256 369.885c-13.923 0-25.21-11.287-25.21-25.21v-237.671c0-13.923 11.287-25.21 25.21-25.21 13.923 0 25.21 11.287 25.21 25.21v237.672c0 13.923-11.287 25.209-25.21 25.209z" fill="#a1e8c3"/><path d="m501.884 413.388h-491.768v-43.55c0-15.258 12.369-27.627 27.627-27.627h27.478c39.369 0 78.048-10.844 111.404-31.758 20.829-13.059 48.208-25.184 78.066-25.184 28.887 0 54.42 11.348 73.838 23.913 33.736 21.829 73.25 33.029 113.432 33.029h32.297c15.258 0 27.627 12.369 27.627 27.627v43.55z" fill="#ccf3e2"/><path d="m474.257 342.211h-32.297c-2.753 0-5.502-.058-8.246-.162v13.612 20.047c0 15.917-8.396 29.866-20.997 37.681h89.167v-43.55c0-15.259-12.369-27.628-27.627-27.628z" fill="#b1b6e1"/><path d="m10.116 388.8h491.768v78.942h-491.768z" fill="#a07575"/><path d="m431.746 388.8c-5.584 18.082-22.429 31.221-42.345 31.221h-379.285v47.721h491.768v-78.942z" fill="#925873"/><path d="m41.107 163.046 8.31 23.366c.356 1 1.06 1.793 1.949 2.194l20.759 9.353c2.933 1.321 2.933 5.994 0 7.316l-20.759 9.353c-.889.4-1.593 1.193-1.949 2.193l-8.31 23.366c-1.174 3.301-5.326 3.301-6.5 0l-8.31-23.366c-.356-1-1.06-1.793-1.949-2.193l-20.759-9.353c-2.933-1.321-2.933-5.994 0-7.316l20.759-9.353c.889-.401 1.593-1.193 1.949-2.194l8.31-23.366c1.174-3.301 5.326-3.301 6.5 0z" fill="#ccf3e2"/><path d="m423.579 225.122 6.164 17.332c.264.742.786 1.33 1.446 1.627l15.399 6.938c2.176.98 2.176 4.446 0 5.427l-15.399 6.938c-.659.297-1.182.885-1.446 1.627l-6.164 17.332c-.871 2.449-3.95 2.449-4.821 0l-6.164-17.332c-.264-.742-.786-1.33-1.446-1.627l-15.399-6.938c-2.175-.98-2.175-4.446 0-5.427l15.399-6.938c.659-.297 1.182-.885 1.446-1.627l6.164-17.332c.871-2.448 3.951-2.448 4.821 0z" fill="#ccf3e2"/><g fill="#a1e8c3"><ellipse cx="477.604" cy="168.37" rx="18.145" ry="18.145" transform="matrix(.232 -.973 .973 .232 203.22 594.008)"/><ellipse cx="104.101" cy="260.073" rx="7.827" ry="7.827" transform="matrix(.726 -.688 .688 .726 -150.387 142.98)"/></g></g><g><path d="m244.66 337.775c-5.304 0-9.758-4.131-10.087-9.496-.343-5.577 3.9-10.375 9.476-10.717 3.782-.234 7.588-.3 11.311-.196 5.585.153 9.988 4.805 9.834 10.39s-4.823 10.008-10.39 9.835c-3.128-.087-6.329-.03-9.515.166-.21.012-.42.018-.629.018z" fill="#fff"/><path d="m179.391 359.259c-3.417 0-6.75-1.731-8.654-4.864-2.902-4.774-1.384-10.997 3.391-13.898 12.157-7.389 24.862-13.122 37.762-17.042 5.347-1.625 10.996 1.393 12.62 6.738 1.625 5.345-1.392 10.996-6.738 12.62-11.278 3.427-22.427 8.465-33.136 14.973-1.641.997-3.455 1.473-5.245 1.473z" fill="#fff"/><g fill="#3c122c"><path d="m474.257 332.095h-32.297c-38.86 0-76.184-10.86-107.936-31.406-14.124-9.139-28.396-15.826-42.699-20.067v-113.613c14.912 9.451 30.364 14.24 45.702 14.24 8.131 0 16.232-1.345 24.199-4.049 45.225-15.354 83.648-73.225 98.069-97.393 2.423-4.061 2.96-8.9 1.474-13.276-1.485-4.375-4.858-7.886-9.253-9.632-26.154-10.393-91.869-32.908-137.093-17.552-18.293 6.211-32.76 18.541-42.595 36.091-4.765-2.399-10.139-3.759-15.828-3.759-5.69 0-11.066 1.36-15.832 3.761-9.835-17.549-24.299-29.882-42.592-36.093-45.226-15.354-110.939 7.158-137.093 17.551-4.395 1.746-7.767 5.257-9.253 9.632-1.486 4.376-.948 9.215 1.475 13.276 14.42 24.168 52.843 82.038 98.068 97.392 7.968 2.705 16.067 4.049 24.199 4.049 15.336 0 30.79-4.79 45.702-14.24v112.756c-16.296 4.336-32.821 11.708-49.423 22.118-31.524 19.765-68.189 30.212-106.03 30.212h-27.478c-20.812.002-37.743 16.933-37.743 37.745v18.962 24.588 54.353c0 5.587 4.529 10.116 10.116 10.116h491.768c5.587 0 10.116-4.529 10.116-10.116v-54.353-24.588-18.962c0-20.812-16.932-37.743-37.743-37.743zm-153.329-273.591c37.044-12.575 95.091 6.537 118.318 15.335-13.07 21.122-47.484 71.627-84.524 84.202-17.985 6.107-36.475 2.848-54.959-9.681-3.073-2.083-5.886-4.265-8.438-6.416v-16.006l53.721-20.865c3.125-1.214 4.674-4.73 3.46-7.855-1.214-3.124-4.73-4.674-7.855-3.46l-49.326 19.158v-5.912c0-6.106-1.558-11.855-4.297-16.871 7.417-15.857 18.773-26.493 33.9-31.629zm-108.691 89.856c-18.484 12.53-36.975 15.788-54.959 9.681-37.04-12.575-71.455-63.081-84.524-84.202 23.227-8.798 81.277-27.91 118.318-15.335 15.126 5.136 26.487 15.765 33.906 31.616-2.743 5.019-4.304 10.772-4.304 16.884v5.415l-48.046-18.661c-3.125-1.214-6.642.335-7.855 3.46-1.214 3.125.335 6.642 3.46 7.855l52.441 20.367v16.506c-2.55 2.151-5.365 4.331-8.437 6.414zm28.669-41.356c0-8.322 6.771-15.093 15.094-15.093 8.322 0 15.093 6.771 15.093 15.093v169.266c-5.473-.729-10.943-1.117-16.403-1.117-4.567 0-9.164.278-13.784.788zm-203.163 245.323h27.478c41.647 0 82.028-11.516 116.777-33.303 25.017-15.686 49.475-23.639 72.692-23.639 22.491 0 45.485 7.5 68.342 22.29 35.034 22.67 76.159 34.652 118.927 34.652h32.297c9.656 0 17.511 7.855 17.511 17.511v8.846h-471.535v-8.846c0-9.656 7.855-17.511 17.511-17.511zm454.025 105.298h-471.536v-58.709h471.536z"/><path d="m313.857 363.924c-3.352 0-6.07-2.718-6.07-6.07v-11.462c0-3.352 2.718-6.07 6.07-6.07s6.07 2.718 6.07 6.07v11.462c0 3.352-2.718 6.07-6.07 6.07z"/><path d="m448.443 440.706c-3.352 0-6.07-2.718-6.07-6.07v-11.462c0-3.352 2.718-6.07 6.07-6.07s6.07 2.718 6.07 6.07v11.462c0 3.353-2.718 6.07-6.07 6.07z"/><path d="m385.465 440.706c-3.352 0-6.07-2.718-6.07-6.07v-11.462c0-3.352 2.718-6.07 6.07-6.07s6.07 2.718 6.07 6.07v11.462c0 3.353-2.718 6.07-6.07 6.07z"/></g></g></g></svg>