<svg id="Capa_1" enable-background="new 0 0 512 512" height="512" viewBox="0 0 512 512" width="512" xmlns="http://www.w3.org/2000/svg"><g><g><path d="m256 235.566c-62.576 0-113.755 50.886-114.119 113.449l-.007 71.03h50.775c.001-.137.01-.272.01-.41l.01-70.298c.27-34.661 28.646-62.83 63.331-62.83s63.061 28.169 63.331 62.83l.01 70.298c0 .137.01.273.01.41h50.775l-.007-71.03c-.364-62.564-51.543-113.449-114.119-113.449z" fill="#96b4eb"/><path d="m474.638 419.612-.01-70.526c0-.132-.001-.263-.001-.394-.303-58.16-23.178-112.789-64.409-153.822-41.251-41.052-96.019-63.66-154.217-63.66s-112.967 22.608-154.217 63.66c-41.231 41.034-64.106 95.662-64.41 153.822 0 .132-.001.263-.001.394l-.01 70.526c0 .145.01.287.011.432h50.436l.007-71.104c0-.046 0-.092 0-.137.234-44.74 17.831-86.764 49.55-118.331 31.732-31.58 73.864-48.971 118.634-48.971s86.901 17.392 118.634 48.971c31.719 31.566 49.316 73.59 49.55 118.331v.137l.007 71.104h50.436c0-.145.01-.287.01-.432z" fill="#d789b9"/><path d="m424.183 348.802c-.234-44.74-17.831-86.764-49.55-118.331-31.732-31.58-73.864-48.971-118.634-48.971s-86.901 17.392-118.634 48.971c-31.719 31.566-49.316 73.59-49.55 118.331v.137l-.007 71.104h54.065l.007-71.03c.364-62.563 51.543-113.449 114.119-113.449s113.755 50.886 114.119 113.449l.007 71.03h54.065l-.007-71.104c0-.045 0-.091 0-.137z" fill="#f6e06e"/><path d="m37.371 370.819c0-.027-.001-.053-.002-.079l-.007 48.873.432.432h50.827l-.589-49.225h-50.661z" fill="#c668b9"/><path d="m134.334 370.819h-46.302l.589 49.225h53.371l.273-50.231c-2.537.657-5.196 1.006-7.931 1.006z" fill="#dda86a"/><path d="m192.461 286.279c-27.667 23.283-26.265 52.682-26.265 52.682-.002 14.786-10.213 27.304-23.931 30.852l-.273 50.231h50.656c.004-.004.006-.007.01-.01l.01-70.697c.27-34.661 28.646-62.83 63.331-62.83 2.938 0 5.826.218 8.661.609-8.992-16.127-48.501-20.781-72.199-.837z" fill="#8286ea"/><path d="m368.578 370.819h-49.244l.007 48.815c.159.159.251.25.41.41h50.328v-49.263c-.497.023-.997.038-1.501.038z" fill="#8286ea"/><path d="m474.638 420.033-.01-70.947c0-.131-.001-.263-.001-.394-.303-58.161-23.178-112.789-64.409-153.823-41.251-41.052-96.019-63.66-154.217-63.66-6.524 0-13.002.3-19.426.862 41.553 4.032 80.127 22.122 110.099 51.949 17.153 17.071 30.474 36.978 39.526 58.669 6.489 6.138 11.19 14.144 14.834 22.162 22.885 48.515 29.254 101.983 24.33 155.194h49.264c.003-.005.006-.008.01-.012z" fill="#c668b9"/><path d="m401.033 264.851c-3.644-8.017-8.345-16.024-14.834-22.162 9 21.562 13.781 44.885 13.906 68.939 0 .109.001.218.001.327l.004 27.328c.003 16.913-13.311 30.714-30.03 31.498v49.263h55.284c4.923-53.21-1.446-106.678-24.331-155.193z" fill="#dda86a"/><path d="m491.939 501.85h-471.878c-5.434 0-9.839-4.405-9.839-9.839v-53.361c0-5.434 4.405-9.839 9.839-9.839h471.878c5.434 0 9.839 4.405 9.839 9.839v53.361c0 5.433-4.405 9.839-9.839 9.839z" fill="#a1e8c3"/><path d="m46.427 84.192 8.338 23.445c.357 1.004 1.064 1.799 1.956 2.201l20.83 9.385c2.943 1.326 2.943 6.015 0 7.341l-20.83 9.385c-.892.402-1.599 1.197-1.956 2.201l-8.338 23.445c-1.178 3.312-5.344 3.312-6.522 0l-8.338-23.445c-.357-1.004-1.064-1.799-1.956-2.201l-20.83-9.385c-2.943-1.326-2.943-6.015 0-7.341l20.83-9.385c.892-.402 1.599-1.197 1.956-2.201l8.338-23.445c1.178-3.312 5.344-3.312 6.522 0z" fill="#e8c2d8"/><path d="m137.217 1.843 6.185 17.391c.265.745.789 1.335 1.451 1.633l15.452 6.961c2.183.984 2.183 4.462 0 5.445l-15.452 6.961c-.661.298-1.186.888-1.451 1.633l-6.185 17.391c-.874 2.457-3.964 2.457-4.838 0l-6.185-17.391c-.265-.745-.789-1.335-1.451-1.633l-15.451-6.961c-2.183-.984-2.183-4.462 0-5.445l15.451-6.961c.662-.298 1.186-.888 1.451-1.633l6.185-17.391c.874-2.457 3.964-2.457 4.838 0z" fill="#c1e5ef"/><ellipse cx="347.727" cy="49.709" fill="#f6e06e" rx="18.207" ry="18.207" transform="matrix(.23 -.973 .973 .23 219.456 376.713)"/><circle cx="472.779" cy="150.166" fill="#96b4eb" r="7.854"/><path d="m444.67 37.979 6.185 17.391c.265.745.789 1.335 1.451 1.633l15.452 6.961c2.183.984 2.183 4.462 0 5.445l-15.452 6.962c-.662.298-1.186.888-1.451 1.633l-6.185 17.391c-.874 2.457-3.964 2.457-4.838 0l-6.185-17.391c-.265-.745-.789-1.335-1.451-1.633l-15.452-6.962c-2.183-.984-2.183-4.462 0-5.445l15.452-6.961c.662-.298 1.186-.888 1.451-1.633l6.185-17.391c.874-2.457 3.964-2.457 4.838 0z" fill="#e8c2d8"/></g><g><path d="m491.939 418.66h-7.151l-.011-70.02c-.317-60.861-24.254-118.026-67.4-160.965-43.166-42.958-100.477-66.616-161.377-66.616s-118.211 23.658-161.377 66.616c-43.146 42.938-67.083 100.103-67.4 161.017l-.011 69.967h-7.151c-11.023 0-19.99 8.967-19.99 19.99v53.361c0 11.022 8.967 19.99 19.99 19.99h471.878c11.023 0 19.99-8.967 19.99-19.99v-53.361c0-11.022-8.967-19.989-19.99-19.989zm-309.429-8.766h-34.546l.008-60.844c.344-59.217 48.806-107.394 108.028-107.394s107.684 48.177 108.028 107.36l.008 60.878h-34.546l-.009-60.636c-.314-40.198-33.278-72.902-73.482-72.902s-73.167 32.704-73.481 72.979zm193.707 0-.008-60.914c-.384-65.895-54.309-119.505-120.209-119.505s-119.825 53.61-120.209 119.539l-.008 60.88h-41.884l.009-61.06c.225-43.121 17.186-83.623 47.755-114.046 30.584-30.436 71.19-47.198 114.337-47.198 43.148 0 83.754 16.762 114.338 47.198 30.57 30.423 47.53 70.925 47.755 114.014l.009 61.091h-41.885zm-173.397-60.478c.227-29.092 24.084-52.759 53.18-52.759 29.097 0 52.953 23.667 53.18 52.681l.01 69.321h-106.38zm-155.297-.329.001-.341c.289-55.46 22.101-107.552 61.419-146.68 39.335-39.147 91.561-60.706 147.057-60.706s107.722 21.559 147.057 60.704c39.318 39.129 61.129 91.221 61.419 146.628l.01 61.201h-34.204l-.008-61.123c-.243-46.362-18.476-89.908-51.344-122.616-32.882-32.722-76.54-50.744-122.93-50.744s-90.048 18.021-122.93 50.744c-32.867 32.708-51.101 76.254-51.344 122.648l-.009 61.091h-34.203zm444.105 142.612h-471.256v-52.738h471.256z" fill="#3c122c"/><g fill="#fff"><path d="m122.373 472.886c-7.932 0-15.891-.052-24.157-.155-5.606-.069-10.094-4.67-10.024-10.276.069-5.562 4.601-10.024 10.147-10.024.044 0 .086 0 .129.001 16.362.203 31.5.203 47.648 0 5.626-.067 10.206 4.416 10.277 10.022s-4.416 10.207-10.022 10.277c-8.159.104-16.065.155-23.998.155z"/><path d="m62.107 472.733h-10.957c-5.606 0-10.151-4.544-10.151-10.151 0-5.606 4.545-10.151 10.151-10.151h10.957c5.606 0 10.15 4.544 10.15 10.151 0 5.606-4.545 10.151-10.15 10.151z"/></g></g></g></svg>