<svg id="Capa_1" enable-background="new 0 0 512 512" height="512" viewBox="0 0 512 512" width="512" xmlns="http://www.w3.org/2000/svg"><g><g><path d="m489.478 499.393h-466.956c-6.925 0-12.538-5.613-12.538-12.538v-293.43c0-31.489 25.527-57.016 57.016-57.016h378c31.489 0 57.016 25.527 57.016 57.016v293.431c0 6.924-5.614 12.537-12.538 12.537z" fill="#c49a8b"/><path d="m502.016 264.909v-59.711c0-37.991-21.158-68.788-47.257-68.788h-397.518c-26.1 0-47.257 30.798-47.257 68.788v59.711h303.903l1.133 46.65c0 28.582 48.031 28.582 48.031 0l.453-46.65h36.476l.227 63.139c0 34.737 49.391 34.737 49.39 0l-.227-63.139z" fill="#a1e8c3"/><path d="m448.65 333.774c8.986-21.965-.998-45.926 0-68.889 18.113-2.717 35.406-2.152 53.366-2.768v-68.693c0-31.489-25.527-57.015-57.016-57.015h-70.764c26.366 0 47.741 21.374 47.741 47.741v167.699c11.495 1.539 22.65-7.615 26.673-18.075z" fill="#85adc2"/><path d="m448.65 264.886c-.998 22.963 8.986 46.924 0 68.889-4.023 10.459-15.178 19.614-26.672 18.075v12.1c0 42.194-34.205 76.398-76.398 76.398h-325.098c-5.798 0-10.498-4.7-10.498-10.498v57.007c0 6.924 5.613 12.538 12.538 12.538h466.956c6.925 0 12.538-5.613 12.538-12.538v-224.739c-17.96.616-35.254.051-53.366 2.768z" fill="#b2748a"/><path d="m88.023 5.066 8.201 23.06c.351.987 1.046 1.77 1.924 2.165l20.488 9.231c2.895 1.304 2.895 5.916 0 7.22l-20.488 9.231c-.877.395-1.572 1.178-1.924 2.165l-8.201 23.06c-1.159 3.258-5.256 3.258-6.415 0l-8.201-23.06c-.351-.987-1.046-1.77-1.924-2.165l-20.488-9.231c-2.894-1.304-2.894-5.916 0-7.22l20.488-9.231c.877-.395 1.572-1.178 1.924-2.165l8.201-23.06c1.159-3.258 5.256-3.258 6.415 0z" fill="#ccf3e2"/><path d="m326.656 43.396 6.083 17.106c.26.732.776 1.313 1.427 1.606l15.198 6.847c2.147.967 2.147 4.388 0 5.356l-15.198 6.847c-.651.293-1.166.874-1.427 1.606l-6.083 17.106c-.859 2.417-3.899 2.417-4.758 0l-6.083-17.106c-.26-.732-.776-1.313-1.427-1.606l-15.198-6.847c-2.147-.967-2.147-4.388 0-5.356l15.198-6.847c.651-.293 1.166-.874 1.427-1.606l6.083-17.106c.859-2.416 3.898-2.416 4.758 0z" fill="#ccf3e2"/><g fill="#a1e8c3"><ellipse cx="442.361" cy="48.353" rx="17.908" ry="17.908" transform="matrix(.23 -.973 .973 .23 293.667 467.771)"/><circle cx="190.043" cy="65.777" r="7.725"/></g></g><g><path d="m445 126.425h-378.001c-36.943 0-66.999 30.056-66.999 67v293.431c0 12.419 10.103 22.522 22.522 22.522h466.956c12.419 0 22.522-10.103 22.522-22.522v-293.431c0-36.944-30.056-67-67-67zm-378.001 19.968h378.001c25.934 0 47.032 21.098 47.032 47.031v61.343h-43.008c-2.649 0-5.189 1.053-7.062 2.926-1.873 1.874-2.924 4.415-2.922 7.064l.038 56.587c0 12.623-5.354 19.862-14.69 19.862s-14.69-7.239-14.69-19.86l.012-56.594c.001-2.648-1.051-5.188-2.923-7.061s-4.412-2.925-7.06-2.925h-36.702c-5.511 0-9.98 4.465-9.984 9.977l-.024 34.347c0 7.187-1.909 19.244-14.69 19.244s-14.69-12.057-14.69-19.243l.005-34.34c.001-2.648-1.051-5.188-2.923-7.06-1.872-1.873-4.412-2.925-7.06-2.925h-293.691v-61.343c0-25.932 21.098-47.03 47.031-47.03zm422.479 343.016h-466.956c-1.408 0-2.554-1.146-2.554-2.554v-212.12h283.705l-.004 24.356c0 27.087 17.406 39.212 34.657 39.212s34.658-12.125 34.658-39.205l.017-24.363h16.74l-.01 46.61c0 27.514 17.406 39.83 34.657 39.83s34.658-12.316 34.658-39.837l-.032-46.604h33.018v212.12c0 1.41-1.146 2.555-2.554 2.555z" fill="#3c122c"/><path d="m170.035 403.469c-13.405 0-24.311-10.906-24.311-24.311 0-13.406 10.906-24.312 24.311-24.312s24.311 10.906 24.311 24.312c0 13.405-10.906 24.311-24.311 24.311zm0-36.642c-6.799 0-12.331 5.532-12.331 12.331s5.532 12.331 12.331 12.331 12.331-5.532 12.331-12.331c0-6.8-5.532-12.331-12.331-12.331z" fill="#3c122c"/><path d="m245.69 444.422c-13.405 0-24.311-10.906-24.311-24.311s10.906-24.311 24.311-24.311 24.311 10.906 24.311 24.311-10.906 24.311-24.311 24.311zm0-36.642c-6.799 0-12.331 5.532-12.331 12.331s5.532 12.331 12.331 12.331 12.331-5.532 12.331-12.331-5.532-12.331-12.331-12.331z" fill="#3c122c"/><path d="m151.9 197.971c-10.162 0-20.323-.01-30.438-.03-5.514-.011-9.975-4.489-9.964-10.003.011-5.507 4.479-9.964 9.983-9.964h.02c25.32.05 50.93.037 76.118-.038h.03c5.501 0 9.967 4.45 9.983 9.954.016 5.514-4.441 9.997-9.954 10.014-15.158.044-30.469.067-45.778.067z" fill="#fff"/><path d="m83.871 197.903h-14.217c-5.514 0-9.984-4.47-9.984-9.984s4.47-9.984 9.984-9.984h14.217c5.514 0 9.984 4.47 9.984 9.984s-4.47 9.984-9.984 9.984z" fill="#fff"/><g fill="#3c122c"><path d="m334.336 397.904c-3.308 0-5.99-2.682-5.99-5.99v-11.312c0-3.308 2.682-5.99 5.99-5.99s5.99 2.682 5.99 5.99v11.312c0 3.308-2.682 5.99-5.99 5.99z"/><path d="m423.07 418.703c-3.308 0-5.99-2.682-5.99-5.99v-11.312c0-3.308 2.682-5.99 5.99-5.99s5.99 2.682 5.99 5.99v11.312c0 3.308-2.682 5.99-5.99 5.99z"/><path d="m364.653 447.89c-3.308 0-5.99-2.682-5.99-5.99v-11.312c0-3.308 2.682-5.99 5.99-5.99s5.99 2.682 5.99 5.99v11.312c.001 3.308-2.682 5.99-5.99 5.99z"/><path d="m184.996 452.173c-3.308 0-5.99-2.682-5.99-5.99v-11.312c0-3.308 2.682-5.99 5.99-5.99s5.99 2.682 5.99 5.99v11.312c0 3.308-2.682 5.99-5.99 5.99z"/></g></g></g></svg>