<svg id="Capa_1" enable-background="new 0 0 512 512" height="512" viewBox="0 0 512 512" width="512" xmlns="http://www.w3.org/2000/svg"><g><g><g fill="#c1e5ef"><path d="m470.747 243.793c-4.462-14.965-20.21-23.48-35.176-19.017l-11.527 3.436 1.999-7.621c4.085-15.572-10.104-29.783-25.682-25.722-7.413 1.932-13.192 7.737-15.09 15.16l-8.237 32.199-57.317 17.088c-7.132 2.127-14.885.662-20.661-4.031-1.881-1.528-3.842-2.96-5.876-4.291-6.385-4.176-10.204-11.314-10.204-18.943v-63.431l28.625-15.874c6.699-3.715 10.853-10.775 10.846-18.436-.014-16.099-17.354-26.229-31.385-18.336l-8.087 4.55v-4.969c0-15.852-12.973-29.207-28.822-28.907-15.364.291-27.729 12.837-27.729 28.27v4.25l-8.056-4.223c-14.293-7.493-31.431 2.883-31.416 19.02v.001c.007 7.927 4.385 15.204 11.385 18.925l28.086 14.927v64.231c0 7.64-3.838 14.776-10.231 18.959-1.972 1.291-3.875 2.677-5.703 4.153-5.777 4.666-13.509 6.125-20.625 4.003l-55.172-16.449-8.635-33.756c-1.899-7.422-7.678-13.227-15.091-15.159-15.578-4.061-29.767 10.15-25.682 25.721l2.408 9.181-13.179-3.929c-14.965-4.462-30.714 4.052-35.175 19.017-4.462 14.965 4.053 30.714 19.018 35.175l13.534 4.035-6 6.587c-10.867 11.931-5.166 31.137 10.45 35.208 7.671 2 15.82-.394 21.191-6.225l20.181-21.908 53.677 16.004c7.527 2.244 13.345 8.225 15.412 15.804.875 3.207 1.971 6.323 3.271 9.33 3.19 7.379 2.027 15.923-2.8 22.352l-33.841 45.075-34.508-3.58c-7.62-.79-15.068 2.62-19.449 8.904-9.206 13.207-.792 31.44 15.231 33.003l9.273.905-8.92 11.88c-9.376 12.488-6.853 30.213 5.636 39.589 12.488 9.375 30.212 6.852 39.588-5.636l9.254-12.325 4.176 8.056c7.427 14.327 27.418 15.634 36.647 2.396 4.534-6.503 5.111-14.976 1.503-22.035l-13.624-26.649 37.821-50.376c4.366-5.815 11.251-9.078 18.523-9.066h.114c.256 0 .511-.002.766-.005 7.281-.081 14.177 3.237 18.549 9.059l38.893 51.805-13.445 26.299c-3.608 7.059-3.031 15.532 1.503 22.035 9.229 13.239 29.22 11.932 36.647-2.395l3.996-7.709 8.191 10.91c9.376 12.488 27.1 15.012 39.588 5.636 12.488-9.376 15.011-27.101 5.636-39.589l-8.088-10.773 9.684-.945c16.023-1.563 24.438-19.797 15.231-33.004-4.381-6.284-11.829-9.694-19.449-8.903l-34.918 3.622-35.116-46.773c-4.809-6.406-5.952-14.899-2.829-22.275 1.166-2.754 2.162-5.597 2.974-8.517 2.1-7.555 7.765-13.597 15.279-15.836l54.783-16.334 21.22 23.036c5.371 5.831 13.52 8.224 21.191 6.225 15.616-4.071 21.317-23.276 10.45-35.207l-7.029-7.719 13.321-3.971c14.97-4.458 23.484-20.207 19.023-35.172zm-187.568 69.988-3.279 10.092c-2.8 8.618-10.832 14.454-19.894 14.454h-10.612c-9.062 0-17.094-5.835-19.894-14.454l-3.279-10.092c-2.8-8.618.267-18.06 7.599-23.387l8.585-6.237c7.331-5.327 17.259-5.327 24.59 0l8.585 6.237c7.331 5.327 10.399 14.768 7.599 23.387z"/><path d="m124.829 2.545 8.542 24.019c.366 1.028 1.09 1.843 2.003 2.255l21.34 9.615c3.015 1.358 3.015 6.162 0 7.52l-21.34 9.615c-.914.412-1.638 1.227-2.003 2.255l-8.542 24.019c-1.207 3.394-5.475 3.394-6.682 0l-8.542-24.019c-.366-1.028-1.09-1.843-2.003-2.255l-21.34-9.615c-3.015-1.358-3.015-6.162 0-7.52l21.34-9.615c.914-.412 1.638-1.227 2.003-2.255l8.542-24.019c1.207-3.393 5.475-3.393 6.682 0z"/><path d="m458.925 82.5 6.336 17.817c.271.763.808 1.367 1.486 1.673l15.83 7.132c2.236 1.008 2.236 4.571 0 5.579l-15.83 7.132c-.678.305-1.215.91-1.486 1.673l-6.336 17.817c-.895 2.517-4.061 2.517-4.956 0l-6.336-17.817c-.271-.763-.808-1.367-1.486-1.673l-15.83-7.132c-2.236-1.008-2.236-4.571 0-5.579l15.83-7.132c.678-.305 1.215-.91 1.486-1.673l6.336-17.817c.895-2.517 4.061-2.517 4.956 0z"/></g><circle cx="379.418" cy="38.261" fill="#96b4eb" r="18.653"/><ellipse cx="51.121" cy="144.352" fill="#96b4eb" rx="8.046" ry="8.046" transform="matrix(.925 -.381 .381 .925 -51.119 30.344)"/></g><g fill="#3c122c"><path d="m260.006 344.566h-10.611c-11.802 0-22.181-7.541-25.828-18.765l-3.279-10.092c-3.647-11.224.318-23.426 9.866-30.363l8.584-6.238c9.548-6.936 22.378-6.937 31.925 0l8.585 6.238c9.548 6.937 13.512 19.139 9.866 30.363l-3.279 10.092c-3.648 11.224-14.028 18.765-25.829 18.765zm-13.933-55.361-8.585 6.237c-5.161 3.749-7.303 10.344-5.332 16.411l3.279 10.092c1.971 6.066 7.581 10.142 13.96 10.142h10.611c6.379 0 11.988-4.076 13.96-10.142l3.279-10.092c1.971-6.067-.172-12.662-5.332-16.411l-8.585-6.237c-5.16-3.75-12.095-3.75-17.255 0z"/><path d="m372.495 512c-1.836 0-3.683-.13-5.532-.393-9.587-1.365-18.137-6.152-24.278-13.55-5.498 6.408-13.338 10.38-22.039 10.949-11.224.726-21.774-4.338-28.209-13.57-6.746-9.677-7.601-22.213-2.231-32.716l10.488-20.515-34.994-46.611c-2.311-3.078-6.031-4.905-9.974-4.905-.048 0-.094 0-.143.001l-.996.005c-.008 0-.015 0-.023 0-4.135 0-7.84 1.789-10.183 4.91l-33.921 45.183 10.667 20.866c5.37 10.502 4.515 23.038-2.231 32.715-6.434 9.231-16.983 14.304-28.209 13.57-8.809-.576-16.735-4.641-22.242-11.189-12.846 16.871-37.005 20.247-53.989 7.498-8.261-6.203-13.613-15.25-15.069-25.478-1.348-9.467.792-18.895 6.036-26.797-7.548-2.876-13.715-8.575-17.232-16.194-4.732-10.254-3.701-21.908 2.758-31.172 6.542-9.384 17.674-14.482 29.052-13.301l28.654 2.973 30.307-40.367c2.642-3.519 3.244-8.111 1.571-11.982-1.499-3.469-2.763-7.074-3.758-10.718-1.132-4.149-4.254-7.355-8.351-8.577l-47.456-14.149-15.783 17.134c-7.992 8.676-20.043 12.219-31.462 9.242-10.889-2.839-19.301-10.973-22.502-21.76-2.499-8.419-1.456-17.216 2.725-24.628-9.247-3.147-16.853-9.566-21.525-18.207-4.913-9.088-5.993-19.544-3.042-29.444 2.951-9.899 9.582-18.057 18.669-22.97 8.079-4.367 17.24-5.706 26.129-3.875.019-8.165 3.233-16.023 9.222-22.021 7.98-7.993 19.269-11.062 30.197-8.215 11.069 2.885 19.707 11.562 22.542 22.646l7.175 28.049 49.527 14.767c3.882 1.156 8.038.362 11.12-2.128 2.09-1.688 4.291-3.291 6.542-4.764 3.462-2.265 5.527-6.099 5.527-10.258v-57.981l-22.568-11.995c-10.416-5.537-16.893-16.303-16.904-28.098-.01-11.252 5.73-21.449 15.356-27.277 7.925-4.798 17.254-5.89 25.863-3.21 4.849-15.466 19.236-26.916 36.184-27.237 10.279-.207 20.055 3.733 27.523 11.061 4.831 4.741 8.346 10.657 10.253 17.059 8.437-2.76 17.62-1.821 25.524 2.796 9.752 5.697 15.58 15.841 15.59 27.135.01 11.44-6.199 21.993-16.203 27.54l-23.269 12.903v57.307c0 4.16 2.055 7.988 5.498 10.24 2.324 1.52 4.592 3.177 6.743 4.925 3.075 2.497 7.236 3.297 11.13 2.134l51.674-15.406 6.777-26.493c2.835-11.083 11.473-19.76 22.542-22.646 10.926-2.85 22.216.222 30.197 8.214 5.671 5.68 8.854 13.028 9.192 20.725 8.505-1.472 17.204-.064 24.916 4.105 9.087 4.913 15.717 13.071 18.669 22.971 5.896 19.778-4.842 40.629-24.063 47.475 4.791 7.658 6.104 16.975 3.464 25.87-3.202 10.787-11.614 18.922-22.502 21.76-11.416 2.975-23.471-.566-31.463-9.242l-16.822-18.262-48.562 14.479c-3.977 1.186-7.054 4.422-8.232 8.657-.922 3.316-2.071 6.609-3.416 9.786-1.651 3.899-1.05 8.488 1.569 11.976l31.582 42.066 29.063-3.015c11.374-1.182 22.509 3.915 29.052 13.299 6.459 9.265 7.49 20.919 2.757 31.173-3.586 7.771-9.932 13.545-17.686 16.363 4.668 7.639 6.526 16.582 5.248 25.56-1.456 10.227-6.808 19.275-15.069 25.478-6.77 5.079-14.827 7.751-23.141 7.751zm-30.883-43.015c3.254 0 6.341 1.527 8.315 4.156l8.191 10.91c2.867 3.818 7.049 6.292 11.776 6.965 4.729.673 9.434-.535 13.252-3.402s6.292-7.049 6.965-11.777c.673-4.727-.535-9.434-3.402-13.252l-8.088-10.773c-2.257-3.005-2.716-6.995-1.201-10.434 1.514-3.44 4.767-5.794 8.507-6.159l9.684-.945c5.491-.536 7.874-4.475 8.644-6.143.77-1.669 2.22-6.038-.934-10.564-2.217-3.179-5.985-4.908-9.845-4.507l-34.919 3.622c-3.63.376-7.197-1.18-9.389-4.1l-35.115-46.773c-7.052-9.392-8.619-21.873-4.089-32.573.997-2.354 1.848-4.791 2.53-7.247 3.107-11.172 11.453-19.776 22.328-23.018l54.782-16.334c3.808-1.137 7.927-.003 10.62 2.92l21.221 23.036c2.773 3.011 6.958 4.239 10.919 3.208 5.447-1.42 7.276-5.755 7.81-7.553s1.365-6.427-2.425-10.589l-7.03-7.719c-2.408-2.645-3.289-6.342-2.331-9.788s3.62-6.158 7.048-7.18l13.321-3.971c4.576-1.364 8.346-4.429 10.617-8.629s2.77-9.033 1.406-13.609c-1.364-4.576-4.429-8.347-8.629-10.618-4.199-2.271-9.033-2.769-13.609-1.406l-11.527 3.437c-3.602 1.074-7.501.121-10.201-2.491-2.701-2.612-3.782-6.479-2.829-10.113l1.999-7.621c1.4-5.336-1.469-8.936-2.767-10.237-1.298-1.3-4.896-4.176-10.233-2.784-3.751.977-6.678 3.918-7.639 7.673l-8.237 32.199c-.905 3.54-3.602 6.345-7.104 7.389l-57.318 17.089c-10.487 3.128-21.774.913-30.189-5.924-1.599-1.3-3.284-2.531-5.01-3.659-9.337-6.108-14.912-16.442-14.912-27.646v-63.431c0-3.779 2.05-7.262 5.356-9.094l28.626-15.874c3.39-1.88 5.494-5.455 5.491-9.332-.005-5.516-3.696-8.268-5.283-9.195-1.587-.928-5.796-2.791-10.604-.086l-8.087 4.549c-3.219 1.812-7.159 1.778-10.348-.086-3.189-1.865-5.149-5.282-5.149-8.977v-4.968c0-4.983-2.064-9.867-5.663-13.399-3.449-3.385-7.911-5.207-12.563-5.112-9.664.183-17.527 8.202-17.527 17.874v4.25c0 3.64-1.903 7.014-5.017 8.898-3.114 1.883-6.986 2.003-10.21.312l-8.056-4.223c-4.986-2.613-9.255-.637-10.859.334s-5.334 3.837-5.329 9.466c.004 4.095 2.252 7.832 5.867 9.753l28.086 14.927c3.396 1.805 5.518 5.337 5.518 9.182v64.231c0 11.201-5.583 21.542-14.936 27.661-1.672 1.095-3.309 2.287-4.862 3.542-8.416 6.797-19.679 8.994-30.131 5.879l-55.172-16.45c-3.502-1.044-6.198-3.849-7.104-7.389l-8.635-33.755c-.961-3.756-3.888-6.696-7.638-7.673-5.337-1.39-8.934 1.484-10.233 2.784-1.298 1.3-4.167 4.901-2.767 10.236l2.408 9.18c.953 3.635-.128 7.501-2.829 10.113s-6.601 3.567-10.201 2.491l-13.179-3.929c-4.577-1.364-9.41-.865-13.61 1.406s-7.265 6.041-8.629 10.617-.865 9.41 1.406 13.61 6.042 7.265 10.618 8.629l13.534 4.035c3.428 1.022 6.09 3.734 7.048 7.18s.078 7.143-2.331 9.788l-6 6.587c-3.791 4.161-2.959 8.791-2.425 10.589s2.363 6.132 7.81 7.552c3.964 1.032 8.146-.196 10.919-3.208l20.181-21.908c2.691-2.922 6.81-4.056 10.62-2.92l53.677 16.004c11.035 3.29 19.437 11.901 22.473 23.033.737 2.698 1.674 5.37 2.785 7.94 4.629 10.707 3.085 23.246-4.029 32.722l-33.841 45.075c-2.192 2.921-5.755 4.476-9.389 4.1l-34.508-3.58c-3.859-.4-7.628 1.327-9.845 4.507-3.154 4.525-1.704 8.895-.934 10.563.77 1.669 3.154 5.607 8.644 6.143l9.273.905c3.74.365 6.993 2.72 8.507 6.159 1.515 3.44 1.056 7.429-1.201 10.434l-8.92 11.88c-2.867 3.818-4.075 8.525-3.402 13.252s3.147 8.91 6.965 11.777c7.883 5.919 19.111 4.32 25.029-3.564l9.254-12.325c2.147-2.86 5.613-4.416 9.177-4.12s6.726 2.403 8.372 5.577l4.176 8.056c2.591 4.998 7.223 5.822 9.094 5.944 1.87.122 6.57-.091 9.79-4.71 2.341-3.358 2.638-7.709.775-11.354l-13.624-26.649c-1.809-3.539-1.443-7.799.943-10.977l37.821-50.376c6.217-8.281 16.233-13.222 26.801-13.222h.054l.76-.004c10.564-.126 20.668 4.821 26.969 13.214l38.894 51.805c2.386 3.178 2.752 7.438.943 10.977l-13.445 26.299c-1.863 3.645-1.566 7.996.775 11.354 3.219 4.617 7.912 4.832 9.79 4.71 1.871-.122 6.503-.947 9.093-5.944l3.996-7.709c1.646-3.175 4.808-5.282 8.372-5.578.287-.019.575-.03.862-.03z"/></g></g></svg>