<svg id="Capa_1" enable-background="new 0 0 512 512" height="512" viewBox="0 0 512 512" width="512" xmlns="http://www.w3.org/2000/svg"><g><g><path d="m355.827 501.355c11.59 0 21.98-7.185 26.013-18.051 9.927-26.747 19.741-57.314 28.684-90.128 31.138-114.247 39.934-212.404 19.646-219.239-20.287-6.835-61.976 80.239-93.114 194.486-13.445 49.332-22.721 95.656-27.292 132.931h46.063z" fill="#ccf3e2"/><path d="m139.282 501.355h46.063c-4.571-37.275-13.847-83.599-27.292-132.931-31.138-114.247-72.826-201.321-93.114-194.486s-11.492 104.992 19.646 219.239c8.943 32.813 18.757 63.38 28.684 90.128 4.033 10.865 14.423 18.05 26.013 18.05z" fill="#ccf3e2"/><path d="m324.107 501.355c15.132-35.226 30.097-78.33 43.009-125.703 35.445-130.051 28.68-243.885 14.621-252.176-14.059-8.292-78.292 88.73-113.738 218.781-16.175 59.347-26.328 115.116-29.99 159.098z" fill="#a1e8c3"/><path d="m182.086 501.355h86.098c-3.662-43.982-13.815-99.751-29.99-159.098-35.445-130.051-97.942-225.123-113.737-218.781-15.796 6.342-20.825 122.125 14.621 252.176 12.911 47.373 27.876 90.477 43.008 125.703z" fill="#a1e8c3"/><path d="m238.195 342.257c-35.445-130.051-97.942-225.123-113.737-218.781-.17.068-.337.166-.504.259 14.544 7.265 53.271 84.756 76.008 187.785 5.996 27.168 10.803 53.465 14.372 77.823 4.552 31.064-19.444 58.953-50.839 58.953h-1.92c6.683 19.103 13.579 36.916 20.513 53.059h86.098c-3.663-43.982-13.817-99.751-29.991-159.098z" fill="#85adc2"/><path d="m291.237 501.355c7.492-48.105 12.022-110.713 12.022-179.174 0-151.732-37.945-275.159-49.688-274.735s-49.688 123.003-49.688 274.735c0 68.462 4.53 131.07 12.022 179.174z" fill="#ccf3e2"/><path d="m253.582 47.447c10.19-.288 43.055 114.809 43.055 246.273 0 59.338-14.988 147.14-43.652 147.14s-42.48-87.802-42.48-147.14c0-131.464 32.865-245.826 43.055-246.272-11.755.497-49.677 123.046-49.677 274.733 0 68.462 4.53 131.069 12.022 179.174h75.332c7.492-48.105 12.022-110.713 12.022-179.174 0-151.687-37.922-275.083-49.677-274.734z" fill="#b1b6e1"/><path d="m154.57 430.712h-28.557c-9.786 0-18.559-6.067-21.964-15.242-8.382-22.585-16.668-48.394-24.22-76.101-14.673-53.835-23.467-103.43-25.399-137.762-2.697 38.107 8.147 110.814 30.156 191.57 8.943 32.813 18.757 63.38 28.684 90.128 4.033 10.866 14.423 18.051 26.013 18.051h38.662z" fill="#b1b6e1"/><path d="m390.303 272.94c4.568-23.853 7.197-47.221 9.623-70.452-2.394 4.081-4.839 8.542-7.326 13.372 2.236-52.337-3.239-87.886-10.865-92.383-6.234-3.677-32.034 19.261-24.31 21.864 17.13 5.771 21.073 97.105-5.219 193.571-7.552 27.707-13.006 53.974-21.388 76.559-3.405 9.175-12.178 15.242-21.964 15.242h-10.05l-7.981 70.644h25.955c11.07-23.78 22.947-46.802 29.882-71.943 14.903-53.223 34.063-101.123 43.643-156.474z" fill="#85adc2"/><path d="m430.169 173.938c-7.624-2.569-18.271 8.137-30.243 28.55-2.427 23.231-5.056 46.598-9.623 70.452-9.58 55.351-28.74 103.251-43.642 156.473-6.935 25.14-18.812 48.163-29.882 71.943h39.048c11.59 0 21.98-7.186 26.013-18.051 9.927-26.747 19.741-57.314 28.684-90.128 31.137-114.247 39.933-212.404 19.645-219.239z" fill="#b1b6e1"/><path d="m45.921 2.605 8.744 24.586c.374 1.053 1.116 1.887 2.051 2.308l21.844 9.841c3.086 1.39 3.086 6.307 0 7.698l-21.845 9.842c-.935.421-1.676 1.256-2.051 2.308l-8.744 24.586c-1.235 3.473-5.604 3.473-6.839 0l-8.744-24.586c-.374-1.053-1.115-1.887-2.051-2.308l-21.843-9.841c-3.086-1.39-3.086-6.307 0-7.698l21.844-9.841c.935-.421 1.676-1.256 2.051-2.308l8.744-24.586c1.235-3.474 5.604-3.474 6.839-.001z" fill="#ccf3e2"/><path d="m481.944 66.904 6.486 18.238c.278.781.827 1.4 1.521 1.712l16.203 7.3c2.289 1.031 2.289 4.679 0 5.71l-16.203 7.3c-.694.313-1.243.931-1.521 1.712l-6.486 18.238c-.916 2.576-4.157 2.576-5.073 0l-6.486-18.238c-.278-.781-.827-1.4-1.521-1.712l-16.203-7.3c-2.289-1.031-2.289-4.679 0-5.71l16.203-7.3c.694-.313 1.243-.931 1.521-1.712l6.486-18.238c.916-2.577 4.157-2.577 5.073 0z" fill="#ccf3e2"/><g fill="#a1e8c3"><ellipse cx="368.05" cy="20.93" rx="19.093" ry="19.093" transform="matrix(.23 -.973 .973 .23 263.12 374.326)"/><ellipse cx="171.817" cy="18.829" rx="8.236" ry="8.236" transform="matrix(.122 -.993 .993 .122 132.177 187.069)"/></g></g><g><path d="" fill="#3c122c"/><path d="m450.594 193.649c-.803-6.221-3.246-25.156-17.026-29.798-3.504-1.18-9.105-1.831-15.886 1.786-4.668 2.489-9.54 7.014-14.527 13.204-.378-12.618-1.276-23.948-2.669-33.464-2.831-19.337-7.064-28.523-14.612-31.707-2.751-1.16-7.231-1.961-12.948.821-19.145 9.313-46.554 57.674-54.499 72.275-3.9 7.168-7.716 14.57-11.443 22.148-4.371-36.017-9.95-64.793-14.065-83.309-5.288-23.791-11.16-44.636-16.981-60.28-7.835-21.059-13.688-28.523-22.368-28.523-8.679 0-14.533 7.464-22.368 28.523-5.821 15.644-11.692 36.49-16.981 60.28-4.066 18.295-9.56 46.615-13.907 82.032-23.466-49.595-47.493-83.991-63.897-92.493-6.877-3.565-12.276-2.876-15.594-1.673-8.805 3.198-14.349 13.445-17.448 32.249-1.985 12.043-2.937 27.513-2.808 45.25-7.991-12.519-15.815-21.428-23.141-25.334-6.78-3.614-12.381-2.966-15.887-1.786-13.78 4.642-16.223 23.577-17.026 29.798-1.634 12.658-1.512 29.676.362 50.579 3.764 42.014 14.22 95.906 29.439 151.748 8.876 32.569 18.682 63.351 29.146 91.495 5.455 14.673 19.656 24.53 35.336 24.53h217.514c15.681 0 29.881-9.859 35.336-24.53 10.465-28.146 20.271-58.929 29.146-91.495 15.22-55.842 25.674-109.733 29.44-151.748 1.874-20.903 1.995-37.92.362-50.578zm-112.967 2.375c17.982-32.898 32.115-51.022 39.701-58.481 2.699 10.682 5.704 34.58 4.449 72.978-1.698 51.921-10.552 109.571-24.932 162.332-11.623 42.644-25.327 83.219-39.79 117.858h-13.499c6.69-48.269 10.347-107.514 10.347-168.531 0-25.253-1.063-49.17-2.761-71.29 8.223-19.237 17.117-37.727 26.485-54.866zm-209.523-61.124c5.974 4.116 20.64 19.488 41.799 59.557 9.114 17.259 17.896 36.251 26.106 56.32-1.704 22.152-2.77 46.107-2.77 71.404 0 61.017 3.657 120.262 10.347 168.531h-14.448c-14.464-34.639-28.168-75.214-39.791-117.858-14.999-55.034-24.569-112.858-26.948-162.82-2.234-46.927 2.63-68.354 5.705-75.134zm-4.688 345.15c-10.242-27.547-19.851-57.717-28.561-89.673-13.988-51.322-23.972-101.48-28.114-141.234-4.675-44.865-.367-59.822 1.64-64.113 3.844 2.666 14.853 13.178 32.986 52.921.695 1.524 1.391 3.072 2.087 4.639 4.229 43.341 12.942 90.321 25.354 135.862 10.957 40.202 23.754 78.657 37.321 112.259h-27.331c-6.83 0-13.011-4.284-15.382-10.661zm158.646 10.661h-56.982c-6.82-47.817-10.553-107.207-10.553-168.531 0-126.277 25.981-223.937 39.044-255.689 13.063 31.751 39.044 129.411 39.044 255.689 0 61.324-3.733 120.714-10.553 168.531zm146.305-241.569c-4.142 39.755-14.126 89.912-28.114 141.234-8.708 31.953-18.318 62.123-28.561 89.674-2.371 6.376-8.552 10.66-15.382 10.66h-16.247c13.568-33.603 26.364-72.058 37.321-112.259 18.005-66.063 23.681-123.518 25.336-159.009 12.832-24.705 20.844-32.22 24.006-34.413 2.007 4.291 6.315 19.249 1.641 64.113z" fill="#3c122c"/><path d="m156.356 289.108c-4.799 0-9.156-3.268-10.336-8.139-4.667-19.259-8.772-45.143-8.944-46.236-.917-5.807 3.047-11.257 8.854-12.175 5.803-.915 11.257 3.048 12.174 8.854.041.259 4.145 26.133 8.606 44.541 1.385 5.714-2.125 11.468-7.838 12.852-.842.205-1.686.303-2.516.303z" fill="#fff"/><g fill="#3c122c"><path d="m244.11 409.027c-3.527 0-6.387-2.86-6.387-6.387v-12.06c0-3.527 2.86-6.387 6.387-6.387s6.387 2.86 6.387 6.387v12.06c-.001 3.528-2.86 6.387-6.387 6.387z"/><path d="m268.785 364.139c-3.527 0-6.387-2.86-6.387-6.387v-12.06c0-3.527 2.86-6.387 6.387-6.387s6.387 2.86 6.387 6.387v12.06c0 3.527-2.86 6.387-6.387 6.387z"/><path d="m252.51 293.524c-3.527 0-6.387-2.86-6.387-6.387v-12.06c0-3.527 2.86-6.387 6.387-6.387s6.387 2.86 6.387 6.387v12.06c0 3.527-2.86 6.387-6.387 6.387z"/><path d="m340.968 293.285c-3.527 0-6.387-2.86-6.387-6.387v-12.061c0-3.527 2.86-6.387 6.387-6.387s6.387 2.86 6.387 6.387v12.061c0 3.527-2.86 6.387-6.387 6.387z"/></g></g></g></svg>