<svg id="Capa_1" enable-background="new 0 0 512 512" height="512" viewBox="0 0 512 512" width="512" xmlns="http://www.w3.org/2000/svg"><g><g><path d="m270.701 319.511v66.29c0 9.219-7.474 16.693-16.693 16.693-9.219 0-16.693-7.474-16.693-16.693v-66.289h-46.582l18.76 80.683v79.09c0 10.099 8.187 18.286 18.286 18.286h53.848c10.099 0 18.286-8.187 18.286-18.286v-77.699l14.626-82.074h-43.838z" fill="#c49a8b"/><path d="m270.701 319.511v66.29c0 9.219-7.474 16.693-16.693 16.693-9.219 0-16.693-7.474-16.693-16.693v-66.29h-46.582l18.76 80.683v5.581c2.131-1.079 4.223-2.225 6.265-3.447 22.497 20.132 51.85 32.768 84.156 33.963v-34.705l14.626-82.074h-43.839z" fill="#b2748a"/><path d="m350.079 114.669c-15.191-36.763-51.393-62.635-93.643-62.635-55.939 0-101.287 45.347-101.287 101.286 0 .219.007.436.008.655-50.052 5.93-88.987 48.384-89.241 100.076-.275 55.939 44.848 101.509 100.787 101.784 19.163.094 37.108-5.141 52.433-14.311 23.505 21.035 54.494 33.895 88.517 34.062 73.889.364 134.082-59.24 134.446-133.128.293-59.534-38.348-110.168-92.02-127.789z" fill="#ccf3e2"/><ellipse cx="254.065" cy="271.533" fill="#d789b9" rx="27.014" ry="27.014" transform="matrix(.15 -.989 .989 .15 -52.436 482.096)"/><path d="m254.065 244.519c-1.485 0-2.94.125-4.36.355 8.77 1.695 15.396 9.405 15.396 18.67 0 10.507-8.518 19.025-19.025 19.025-9.265 0-16.975-6.626-18.67-15.396-.23 1.42-.355 2.875-.355 4.359 0 14.92 12.095 27.015 27.014 27.015 14.92 0 27.014-12.095 27.014-27.015 0-14.918-12.095-27.013-27.014-27.013z" fill="#c668b9"/><ellipse cx="345.206" cy="207.198" fill="#d789b9" rx="27.014" ry="27.014" transform="matrix(.383 -.924 .924 .383 21.675 446.836)"/><ellipse cx="238.752" cy="140.198" fill="#d789b9" rx="27.014" ry="27.014" transform="matrix(.926 -.377 .377 .926 -35.215 100.193)"/><path d="m238.752 113.184c-1.438 0-2.849.115-4.226.331 8.989 1.645 15.806 9.502 15.806 18.966 0 10.658-8.64 19.298-19.297 19.298-9.464 0-17.321-6.818-18.966-15.807-.217 1.377-.331 2.788-.331 4.227 0 14.919 12.094 27.014 27.014 27.014s27.014-12.095 27.014-27.014c0-14.92-12.094-27.015-27.014-27.015z" fill="#c668b9"/><path d="m350.079 114.669c-15.191-36.763-51.393-62.635-93.643-62.635-6.679 0-13.204.653-19.521 1.887 23.031 5.023 61.229 19.793 84.003 61.854 6.702 12.378 15.659 23.345 25.826 33.079 14.726 14.098 22.326 31.219 22.325 56.636-.002 59.545-48.801 107.577-108.345 107.284-11.139-.055-21.874-1.798-31.965-4.985-25.208-7.961-51.498-12.048-77.913-10.997-1.23.049-2.466.071-3.709.064-38.545-.19-70.713-27.068-79.091-63.036-1.359 6.534-2.095 13.297-2.129 20.229-.276 55.946 46.356 102.326 102.3 101.782 18.594-.181 35.998-5.379 50.919-14.308 23.506 21.035 54.494 33.895 88.517 34.062 73.889.364 134.082-59.24 134.446-133.128.293-59.533-38.348-110.167-92.02-127.788z" fill="#b1b6e1"/><path d="m39.965 56.581 8.362 23.511c.358 1.007 1.067 1.804 1.961 2.207l20.889 9.411c2.951 1.33 2.951 6.032 0 7.361l-20.889 9.411c-.894.403-1.603 1.201-1.961 2.207l-8.362 23.511c-1.181 3.322-5.359 3.322-6.54 0l-8.362-23.511c-.358-1.007-1.067-1.804-1.961-2.207l-20.889-9.41c-2.951-1.33-2.951-6.032 0-7.361l20.889-9.411c.895-.403 1.603-1.201 1.961-2.207l8.362-23.511c1.181-3.323 5.359-3.323 6.54-.001z" fill="#ccf3e2"/><path d="m487.206 79.34 6.203 17.44c.266.747.791 1.338 1.455 1.637l15.495 6.981c2.189.986 2.189 4.474 0 5.46l-15.495 6.981c-.663.299-1.189.891-1.455 1.637l-6.203 17.44c-.876 2.464-3.975 2.464-4.851 0l-6.203-17.44c-.266-.747-.791-1.339-1.455-1.637l-15.495-6.981c-2.189-.986-2.189-4.474 0-5.46l15.495-6.981c.663-.299 1.189-.891 1.455-1.637l6.203-17.44c.876-2.464 3.975-2.464 4.851 0z" fill="#ccf3e2"/><g fill="#a1e8c3"><ellipse cx="388.614" cy="22.509" rx="18.258" ry="18.258" transform="matrix(.383 -.924 .924 .383 219.103 372.928)"/><circle cx="130.656" cy="33.386" r="7.876"/></g></g><g><path d="m101.055 261.74c-.676 0-1.362-.068-2.051-.209-5.508-1.127-9.059-6.506-7.932-12.013 2.373-11.599 6.646-22.472 12.699-32.318 2.945-4.789 9.214-6.283 14.003-3.341 4.789 2.944 6.284 9.214 3.34 14.003-4.805 7.815-8.202 16.474-10.098 25.737-.985 4.819-5.227 8.141-9.961 8.141z" fill="#fff"/><path d="m129.549 213.084c-2.982 0-5.936-1.304-7.947-3.811-3.517-4.386-2.813-10.792 1.573-14.309 1.515-1.215 3.091-2.386 4.686-3.482 4.634-3.183 10.97-2.008 14.154 2.626 3.183 4.633 2.008 10.97-2.626 14.154-1.182.812-2.352 1.681-3.477 2.584-1.879 1.506-4.129 2.238-6.363 2.238z" fill="#fff"/><g fill="#3c122c"><path d="m254.065 304.655c-18.263 0-33.122-14.858-33.122-33.122 0-18.263 14.858-33.122 33.122-33.122 18.263 0 33.122 14.859 33.122 33.122 0 18.264-14.859 33.122-33.122 33.122zm0-54.028c-11.528 0-20.907 9.379-20.907 20.907s9.378 20.907 20.907 20.907c11.528 0 20.907-9.379 20.907-20.907s-9.379-20.907-20.907-20.907z"/><path d="m345.206 240.32c-18.263 0-33.122-14.859-33.122-33.122s14.858-33.121 33.122-33.121c18.263 0 33.122 14.858 33.122 33.121-.001 18.264-14.859 33.122-33.122 33.122zm0-54.028c-11.528 0-20.907 9.378-20.907 20.906s9.379 20.907 20.907 20.907 20.907-9.379 20.907-20.907c-.001-11.528-9.379-20.906-20.907-20.906z"/><path d="m238.752 173.32c-18.263 0-33.121-14.858-33.121-33.122 0-18.263 14.858-33.122 33.121-33.122s33.122 14.858 33.122 33.122c0 18.263-14.858 33.122-33.122 33.122zm0-54.028c-11.528 0-20.906 9.379-20.906 20.907s9.378 20.907 20.906 20.907 20.907-9.378 20.907-20.907-9.379-20.907-20.907-20.907z"/><path d="m342.182 288.115c-3.373 0-6.108-2.735-6.108-6.108v-10.289c0-3.373 2.735-6.107 6.108-6.107s6.107 2.735 6.107 6.107v10.289c0 3.373-2.735 6.108-6.107 6.108z"/><path d="m314.105 331.517c-3.373 0-6.108-2.735-6.108-6.108v-10.289c0-3.373 2.735-6.107 6.108-6.107s6.107 2.735 6.107 6.107v10.289c0 3.373-2.734 6.108-6.107 6.108z"/><path d="m371.859 309.753c-3.373 0-6.107-2.735-6.107-6.108v-10.289c0-3.373 2.735-6.107 6.107-6.107 3.373 0 6.108 2.735 6.108 6.107v10.289c0 3.373-2.735 6.108-6.108 6.108z"/><path d="m424.538 156.832c-17.017-23.238-40.083-40.565-66.922-50.325-18.226-39.427-57.443-64.652-101.181-64.652-58.746 0-107.024 45.685-111.176 103.392-51.358 10.241-89.26 55.533-89.522 108.755-.302 61.462 49.454 111.711 110.916 112.013 8.057.045 16.06-.795 23.87-2.462l8.791 37.81v77.922c0 15.696 12.77 28.465 28.465 28.465h53.848c15.696 0 28.465-12.77 28.465-28.465v-76.798l2.995-16.806c76.863-2.518 138.809-65.627 139.191-143.171.153-31.062-9.439-60.688-27.74-85.678zm-134.645 242.968c-.105.59-.158 1.187-.158 1.786v77.699c0 4.47-3.637 8.107-8.107 8.107h-9.831v-48.167c0-3.373-2.735-6.107-6.108-6.107s-6.107 2.735-6.107 6.107v48.167h-31.802c-4.47 0-8.107-3.637-8.107-8.107v-79.09c0-.776-.089-1.549-.265-2.305l-9.397-40.414c2.674-1.112 5.311-2.318 7.895-3.639 2.992 2.417 6.073 4.7 9.23 6.858v25.105c0 14.817 12.055 26.872 26.872 26.872s26.872-12.055 26.872-26.872v-2.67c3.854.747 7.746 1.34 11.667 1.771zm-42.399-14v-13.509c4.255 1.984 8.601 3.76 13.028 5.318v8.192c0 3.591-2.922 6.513-6.514 6.513s-6.514-2.922-6.514-6.514zm60.827-20.391c-.204 0-.415 0-.618-.001-30.225-.148-59.268-11.324-81.779-31.468-1.915-1.714-4.343-2.594-6.79-2.594-1.797 0-3.605.475-5.224 1.444-14.204 8.5-30.523 12.986-47.156 12.867-50.236-.247-90.905-41.319-90.658-91.555.226-45.924 34.73-84.623 80.26-90.018 5.149-.61 9.017-4.993 8.981-10.178l-.008-.585c0-50.237 40.871-91.107 91.107-91.107 37.028 0 70.093 22.116 84.236 56.343 1.134 2.745 3.411 4.857 6.233 5.784 51.116 16.782 85.281 64.23 85.016 118.067-.335 67.954-55.72 123.005-123.6 123.001z"/></g></g></g></svg>