<svg id="Capa_1" enable-background="new 0 0 512 512" height="512" viewBox="0 0 512 512" width="512" xmlns="http://www.w3.org/2000/svg"><g><g><path d="m478.821 428.901h-48.665c-5.691 0-10.85-3.331-13.187-8.52-18.343-40.747-64.925-182.927-105.263-250.683-6.405-10.759-18.002-17.343-30.523-17.343h-51.426c-12.521 0-24.118 6.584-30.523 17.343-40.338 67.756-86.92 209.936-105.263 250.683-2.336 5.19-7.495 8.52-13.187 8.52h-48.664c-12.465 0-22.57 10.105-22.57 22.57v46.767h491.841v-46.767c0-12.465-10.105-22.57-22.57-22.57z" fill="#a07575"/><path d="m312.262 169.564c-6.413-10.776-18.01-17.387-30.549-17.387h-51.426c-12.503 0-24.1 6.558-30.497 17.3-12.267 20.597-25.112 50.409-37.566 79.834h69.781c6.355 0 11.506 2.829 11.506 9.183v33.306c0 8.501 6.891 15.392 15.392 15.392 7.127 0 12.904-5.777 12.904-12.904v-33.208c0-6.054 4.908-10.962 10.962-10.962h3.02c4.364 0 7.906 3.528 7.925 7.891l.864 54.988c.091 5.766 4.79 10.392 10.557 10.392h3.635c7.326 0 13.264-5.939 13.264-13.264v-52.207c0-3.692 2.993-6.685 6.685-6.685h22.847c-12.992-30.978-26.464-60.092-39.304-81.669z" fill="#e8a284"/><path d="m325.39 256.574c3.689-6.64 14.94-6.26 26.24-5.974-14.032-32.398-27.803-61.608-39.395-81.079-6.405-10.759-18.002-17.343-30.523-17.343h-43.351c10.523 0 20.269 5.873 25.652 15.469 16.686 29.746 38.331 83.539 57.851 134.836-1.239-16.718-3.837-33.637 3.526-45.909z" fill="#d57b84"/><path d="m351.631 250.6c-11.3-.286-24.887-3.993-28.576 2.647-7.363 12.272-2.43 32.518-1.19 49.235 20.139 52.923 38.015 103.189 45.843 121.645 1.963 4.629 6.299 7.6 11.082 7.6h40.898c1.548 0 3.044.219 4.484.59-14.627-37.391-44.12-116.096-72.541-181.717z" fill="#925873"/><path d="m479.351 428.725h-48.665c-2.606 0-5.097-.705-7.259-1.961 0 18.735-15.188 33.923-33.923 33.923h-379.424v37.374h491.841v-46.766c0-12.465-10.105-22.57-22.57-22.57z" fill="#925873"/><path d="m277.706 176.004v-84.072c0-4.876 3.953-8.828 8.828-8.828 18.758 0 33.965-15.206 33.965-33.965v-4.014c0-17.223-13.962-31.186-31.186-31.186h-8.337c-14.665 0-26.554 11.889-26.554 26.554h-60.828c-11.766 0-21.305 9.539-21.305 21.305 0 11.767 9.539 21.305 21.305 21.305h31.358c4.876 0 8.828 3.952 8.828 8.828v84.073" fill="#efc5b4"/><path d="m239.388 86.04c0-7.948-7.743-14.877-15.692-14.877h-30.391c-8.391 0-15.399-5.869-17.178-13.722-.292 1.407-.449 2.863-.449 4.356 0 11.767 9.539 19.754 21.305 19.754l42.405 10.182z" fill="#af30fa" opacity=".3"/><path d="m289.313 13.939h-8.337c-2.055 0-4.053.242-5.975.684 11.411 2.666 19.912 12.896 19.912 25.119v3.321c0 15.52-12.581 28.101-28.101 28.101-4.034 0-7.304 3.27-7.304 7.304v79.267h-25.727v18.27h43.925v-84.073c0-4.876 3.953-8.828 8.828-8.828 18.758 0 33.965-15.206 33.965-33.964v-4.014c0-17.225-13.963-31.187-31.186-31.187z" fill="#d994b3"/><path d="m74.166 21.583 8.28 23.281c.354.997 1.056 1.787 1.942 2.186l20.685 9.319c2.922 1.317 2.922 5.973 0 7.289l-20.685 9.319c-.886.399-1.587 1.189-1.942 2.186l-8.28 23.281c-1.17 3.289-5.307 3.289-6.476 0l-8.28-23.281c-.354-.997-1.056-1.787-1.942-2.186l-20.685-9.319c-2.922-1.317-2.922-5.973 0-7.289l20.685-9.319c.886-.399 1.587-1.189 1.942-2.186l8.28-23.281c1.169-3.289 5.306-3.289 6.476 0z" fill="#efc5b4"/><path d="m385.095 99.587 6.142 17.27c.263.739.784 1.325 1.44 1.621l15.344 6.913c2.168.977 2.168 4.43 0 5.407l-15.344 6.913c-.657.296-1.177.882-1.44 1.621l-6.142 17.27c-.868 2.44-3.936 2.44-4.804 0l-6.142-17.27c-.263-.739-.784-1.325-1.44-1.621l-15.344-6.913c-2.168-.977-2.168-4.43 0-5.407l15.344-6.913c.657-.296 1.177-.882 1.44-1.621l6.142-17.27c.867-2.44 3.936-2.44 4.804 0z" fill="#efc5b4"/><g fill="#e8a284"><ellipse cx="425.29" cy="48.522" rx="18.079" ry="18.079" transform="matrix(.23 -.973 .973 .23 280.354 451.287)"/><path d="m126.254 139.894c0 4.307-3.492 7.799-7.799 7.799s-7.799-3.492-7.799-7.799 3.492-7.799 7.799-7.799 7.799 3.492 7.799 7.799z"/></g></g><g><path d="m479.351 418.645h-48.665c-1.722 0-3.291-1.013-3.995-2.578-5.583-12.402-14.156-35.254-24.082-61.715-22.571-60.167-53.482-142.57-81.711-189.988-7.132-11.978-19.465-19.996-33.111-21.851v-49.348c23.711-.663 42.793-20.158 42.793-44.026v-4.014c0-22.754-18.512-41.265-41.266-41.265h-8.336c-16.706 0-30.835 11.239-35.224 26.553h-52.158c-17.306 0-31.385 14.08-31.385 31.385 0 17.306 14.08 31.384 31.385 31.384h30.107v49.416c-13.441 1.985-25.557 9.938-32.598 21.766-28.228 47.415-59.139 129.814-81.707 189.979-9.928 26.465-18.502 49.32-24.086 61.724-.705 1.566-2.273 2.578-3.994 2.578h-48.668c-18.003 0-32.65 14.647-32.65 32.65v46.766c0 5.566 4.513 10.08 10.08 10.08h491.84c5.566 0 10.08-4.513 10.08-10.08v-46.766c0-18.003-14.647-32.65-32.649-32.65zm-285.757-345.621c-6.191 0-11.226-5.036-11.226-11.225 0-6.191 5.036-11.226 11.226-11.226h60.828c5.566 0 10.08-4.513 10.08-10.08 0-9.083 7.39-16.474 16.475-16.474h8.336c11.639 0 21.107 9.468 21.107 21.106v4.014c0 13.17-10.715 23.885-23.886 23.885-10.425 0-18.907 8.482-18.907 18.908v81.17h-23.767v-81.17c0-10.426-8.482-18.908-18.908-18.908zm14.831 101.653c3.412-5.731 8.961-9.836 15.276-11.542v10.081c-2.781.544-4.881 2.992-4.881 5.933 0 3.34 2.708 6.048 6.048 6.048h61.976c3.34 0 6.048-2.708 6.048-6.048 0-3.019-2.214-5.514-5.106-5.967v-10.171c6.526 1.618 12.285 5.78 15.789 11.665 11.1 18.644 22.734 43.162 34.132 69.691h-8.464c-8.191 0-14.854 6.664-14.854 14.855v52.928c0 4.102-3.337 7.439-7.439 7.439-4.101 0-7.438-3.337-7.438-7.439v-50.765c0-9.384-7.633-17.017-17.017-17.017s-17.017 7.633-17.017 17.017v33.728c0 3.777-3.073 6.849-6.85 6.849s-6.849-3.072-6.849-6.849v-35.891c0-8.191-6.664-14.855-14.855-14.855h-62.631c11.399-26.529 23.033-51.047 34.132-69.69zm283.416 313.304h-471.682v-36.686c0-6.887 5.604-12.491 12.491-12.491h48.665c9.64 0 18.423-5.677 22.377-14.463 5.849-12.992 14.114-35.023 24.578-62.917 11.874-31.653 26.085-69.534 40.899-104.961h67.755c1.522 0 2.759 1.237 2.759 2.759v35.891c0 10.446 8.499 18.944 18.945 18.944 10.447 0 18.945-8.499 18.945-18.944v-33.728c0-2.714 2.208-4.922 4.922-4.922s4.922 2.208 4.922 4.922v50.765c0 10.771 8.763 19.534 19.533 19.534 10.771 0 19.534-8.763 19.534-19.534v-52.928c0-1.522 1.237-2.759 2.759-2.759h13.588c14.815 35.43 29.027 73.314 40.902 104.97 10.462 27.889 18.726 49.918 24.574 62.91.364.81.783 1.583 1.226 2.337 0 0-14.188-.004-14.239-.004l-14.31.002c-2.262-.295-4.376-1.239-6.132-2.744-1.334-1.144-2.402-2.568-3.09-4.122-6.993-15.794-15.659-40.421-17.445-45.368-1.135-3.142-4.604-4.77-7.743-3.634-3.141 1.135-4.768 4.601-3.634 7.743 1.774 4.91 18.398 47.484 18.761 48.129l-40.622.006c-2.282-.287-4.416-1.236-6.186-2.753-1.334-1.144-2.402-2.568-3.09-4.123-7.392-16.692-14.96-37.967-21.638-56.737-1.626-4.569-3.183-8.948-4.652-13.016-1.136-3.142-4.604-4.768-7.743-3.634-3.141 1.135-4.768 4.601-3.634 7.743 1.463 4.051 3.014 8.41 4.633 12.961 6.749 18.971 14.398 40.473 21.972 57.579 1.413 3.192 3.585 6.101 6.279 8.411 3.722 3.19 8.253 5.138 13.103 5.633.205.021.41.031.616.031l158.609.023c6.887 0 12.49 5.604 12.49 12.491v36.684z" fill="#3c122c"/><path d="m190.993 306.298c-1.003 0-2.023-.151-3.03-.468-5.309-1.671-8.259-7.33-6.587-12.641l2.423-7.701c1.671-5.309 7.334-8.262 12.641-6.587 5.31 1.671 8.26 7.33 6.587 12.641l-2.423 7.701c-1.355 4.302-5.327 7.055-9.611 7.055z" fill="#fff"/><path d="m168.841 376.711c-.97 0-1.954-.141-2.929-.437-5.327-1.615-8.336-7.244-6.72-12.571l11.001-36.271c1.616-5.328 7.246-8.34 12.571-6.72 5.327 1.615 8.336 7.244 6.72 12.571l-11.001 36.271c-1.32 4.351-5.318 7.157-9.642 7.157z" fill="#fff"/><g fill="#3c122c"><path d="m253.007 397.409c-3.34 0-6.048-2.708-6.048-6.048v-11.421c0-3.34 2.708-6.048 6.048-6.048s6.048 2.708 6.048 6.048v11.421c-.001 3.34-2.709 6.048-6.048 6.048z"/><path d="m274.981 468c-3.34 0-6.048-2.708-6.048-6.048v-11.421c0-3.34 2.708-6.048 6.048-6.048s6.048 2.708 6.048 6.048v11.421c0 3.341-2.708 6.048-6.048 6.048z"/><path d="m393.184 476.184c-3.34 0-6.048-2.708-6.048-6.048v-11.42c0-3.34 2.708-6.048 6.048-6.048s6.048 2.708 6.048 6.048v11.42c0 3.34-2.708 6.048-6.048 6.048z"/><path d="m218.112 457.45c-3.34 0-6.048-2.708-6.048-6.048v-11.42c0-3.34 2.708-6.048 6.048-6.048s6.048 2.708 6.048 6.048v11.42c0 3.34-2.708 6.048-6.048 6.048z"/></g></g></g></svg>