<svg id="Capa_1" enable-background="new 0 0 512 512" height="512" viewBox="0 0 512 512" width="512" xmlns="http://www.w3.org/2000/svg"><g><g><path d="m441.601 314.486-37.957 14.265v-60.132h-305.472v179.351h.043c-.025.394-.043.788-.043 1.184 0 29.086 68.382 52.664 152.736 52.664s152.736-23.578 152.736-52.664c0-.396-.018-.79-.044-1.184h.044v-61.592l48.123-25.397c6.668-2.612 11.056-9.042 11.056-16.204v-13.314c0-11.151-10.342-19.424-21.222-16.977z" fill="#a07575"/><path d="m403.644 268.619h-72.757v136.634h-.033c.019.3.033.6.033.902 0 22.158-52.095 40.121-116.358 40.121s-116.357-17.963-116.357-40.121v41.815h.043c-.025.394-.043.788-.043 1.184 0 29.086 68.382 52.664 152.736 52.664s152.736-23.578 152.736-52.664c0-.396-.018-.79-.044-1.184h.044z" fill="#925873"/><ellipse cx="250.908" cy="268.604" fill="#f4dab5" rx="152.736" ry="52.664"/><path d="m150.843 2.492 8.364 23.519c.358 1.007 1.067 1.805 1.962 2.208l20.896 9.414c2.952 1.33 2.952 6.034 0 7.364l-20.896 9.414c-.895.403-1.604 1.201-1.962 2.208l-8.364 23.519c-1.182 3.323-5.361 3.323-6.542 0l-8.364-23.519c-.358-1.007-1.067-1.805-1.962-2.208l-20.896-9.414c-2.952-1.33-2.952-6.034 0-7.364l20.896-9.414c.895-.403 1.604-1.201 1.962-2.208l8.364-23.519c1.181-3.323 5.36-3.323 6.542 0z" fill="#efc5b4"/><path d="m68.649 137.416 6.204 17.446c.266.747.792 1.339 1.455 1.638l15.5 6.983c2.19.987 2.19 4.475 0 5.462l-15.5 6.983c-.664.299-1.189.891-1.455 1.638l-6.204 17.446c-.877 2.465-3.976 2.465-4.853 0l-6.204-17.446c-.266-.747-.792-1.339-1.455-1.638l-15.5-6.983c-2.19-.987-2.19-4.476 0-5.462l15.5-6.983c.664-.299 1.189-.891 1.455-1.638l6.204-17.446c.877-2.465 3.977-2.465 4.853 0z" fill="#efc5b4"/><circle cx="237.261" cy="143.535" fill="#e8a284" r="18.264"/><circle cx="395.437" cy="172.954" fill="#e8a284" r="7.878"/><path d="m353.002 64.013 6.204 17.446c.266.747.792 1.339 1.455 1.638l15.5 6.983c2.19.987 2.19 4.476 0 5.462l-15.5 6.983c-.664.299-1.19.891-1.455 1.638l-6.204 17.446c-.876 2.465-3.976 2.465-4.853 0l-6.204-17.446c-.266-.747-.792-1.339-1.455-1.638l-15.5-6.983c-2.19-.987-2.19-4.476 0-5.462l15.5-6.983c.664-.299 1.19-.891 1.455-1.638l6.204-17.446c.876-2.465 3.976-2.465 4.853 0z" fill="#efc5b4"/></g><g><g fill="#3c122c"><path d="m250.908 293.96c-27.886 0-54.165-2.345-73.996-6.604-23.515-5.049-34.946-12.111-34.946-21.588s11.431-16.538 34.946-21.588c19.832-4.259 46.111-6.604 73.996-6.604 27.886 0 54.166 2.345 73.997 6.604 23.514 5.05 34.945 12.111 34.945 21.588s-11.431 16.538-34.945 21.588c-19.831 4.259-46.111 6.604-73.997 6.604zm-96.562-28.192c1.392 1.839 8.338 6.368 28.319 10.297 18.619 3.66 42.855 5.676 68.243 5.676 25.389 0 49.625-2.016 68.243-5.676 19.982-3.929 26.927-8.458 28.319-10.297-1.392-1.839-8.338-6.368-28.319-10.297-18.619-3.66-42.855-5.676-68.243-5.676s-49.624 2.016-68.242 5.676c-19.982 3.929-26.928 8.458-28.32 10.297zm193.343.358h.011z"/><path d="m275.795 270.599h-49.773c-3.374 0-6.109-2.735-6.109-6.109s2.735-6.109 6.109-6.109h49.773c3.374 0 6.109 2.736 6.109 6.109s-2.735 6.109-6.109 6.109z"/><path d="m462.653 309.925c-6.579-5.264-15.065-7.222-23.287-5.373-.457.103-.908.238-1.346.403l-24.193 9.093v-45.428c0-.001 0-.003 0-.004 0-.004 0-.007 0-.01 0-13.263-8.951-32.16-51.598-46.865-29.889-10.306-69.423-15.981-111.32-15.981s-81.431 5.675-111.32 15.981c-42.647 14.705-51.598 33.602-51.598 46.865v.01.004 179.35c0 .159.004.316.011.473-.007.237-.011.474-.011.711 0 13.263 8.951 32.161 51.598 46.865 29.888 10.306 69.421 15.981 111.319 15.981s81.431-5.675 111.32-15.981c42.647-14.704 51.598-33.601 51.598-46.865 0-.238-.004-.476-.011-.714.007-.156.011-.312.011-.47v-55.453l42.242-22.293c10.311-4.306 16.937-14.225 16.937-25.446v-13.314c.001-8.425-3.773-16.276-10.352-21.539zm-316.427-68.933c27.809-9.588 64.985-14.869 104.682-14.869 39.696 0 76.873 5.281 104.682 14.869 27.953 9.639 37.872 20.898 37.872 27.612s-9.919 17.974-37.872 27.613c-27.808 9.588-64.984 14.868-104.682 14.868s-76.874-5.281-104.682-14.868c-27.953-9.638-37.872-20.899-37.872-27.613.001-6.714 9.919-17.973 37.872-27.612zm0 235.775c-27.953-9.638-37.872-20.899-37.872-27.613 0-.181.012-.362.024-.542.033-.524.024-1.047-.024-1.563v-146.554c7.541 5.205 17.68 10.301 31.233 14.974 25.134 8.666 57.097 14.042 91.541 15.538v36.304c0 3.374 2.735 6.109 6.109 6.109s6.109-2.735 6.109-6.109v-35.925c2.511.041 5.031.064 7.56.064 35.73 0 69.718-4.14 97.495-11.747v159.365c-11.293 3.412-23.886 6.172-37.397 8.227 0-.001 0-.002 0-.003v-117.274c0-3.374-2.736-6.109-6.109-6.109s-6.109 2.736-6.109 6.109v117.274c0 .56.082 1.101.223 1.616-15.258 1.786-31.452 2.727-48.102 2.727-39.696 0-76.873-5.28-104.681-14.868zm247.214-28.13c.011.172.022.344.022.517 0 6.294-8.718 16.585-32.84 25.788v-158.945c.531-.178 1.082-.347 1.607-.528 13.553-4.673 23.692-9.77 31.233-14.974v146.532c-.05.532-.058 1.07-.022 1.61zm59.201-103.859c0 2.992-1.801 5.631-4.587 6.722-.355.139-.702.298-1.039.476l-33.188 17.515v-33.689l30.562-11.486c2.662-.403 4.596.752 5.543 1.51 1.012.81 2.71 2.619 2.71 5.638v13.314z"/></g><path d="m135.152 407.685c-5.623 0-10.182-4.559-10.182-10.182v-20.975c0-5.624 4.559-10.182 10.182-10.182s10.182 4.559 10.182 10.182v20.975c0 5.623-4.559 10.182-10.182 10.182z" fill="#fff"/><path d="m135.072 355.235c-5.623 0-10.182-4.559-10.182-10.182 0-1.083.027-1.605.053-2.127.014-.272.027-.544.027-1.108 0-5.624 4.559-10.182 10.182-10.182s10.182 4.559 10.182 10.182c0 1.082-.027 1.604-.053 2.126-.014.272-.027.544-.027 1.108.001 5.625-4.558 10.183-10.182 10.183z" fill="#fff"/><path d="m237.501 416.557c-3.374 0-6.109-2.736-6.109-6.109v-11.538c0-3.374 2.736-6.109 6.109-6.109 3.374 0 6.11 2.736 6.11 6.109v11.537c-.001 3.374-2.736 6.11-6.11 6.11z" fill="#3c122c"/></g></g></svg>