<svg id="Capa_1" enable-background="new 0 0 512 512" height="512" viewBox="0 0 512 512" width="512" xmlns="http://www.w3.org/2000/svg"><g><g><path d="m473.363 228h-434.726c-15.739 0-28.498 12.759-28.498 28.498v225.561h491.722v-225.561c0-15.739-12.759-28.498-28.498-28.498z" fill="#96b4eb"/><path d="m330.791 345.771c-48.438-6.057-93.754-10.014-135.437-3.639-95.858 14.661-133.008-26.873-188.347.006v63.148h320.292z" fill="#c1e5ef"/><path d="m501.861 342.19c-86.961-36.365-208.705 28.46-306.734 37.946-112.134 10.852-129.65-26.879-184.989 0v101.922h491.722v-139.868z" fill="#f4dab5"/><path d="m441.546 332.671v27.288c0 43.311-35.111 78.422-78.421 78.422h-352.986v43.678h491.722v-139.34c-19.946-5.445-40.104-9.956-60.315-10.048z" fill="#dba2b3"/><path d="m473.363 228h-56.815c13.806.003 24.997 10.567 24.997 23.598v81.073c20.212.092 40.37 4.603 60.316 10.048v-86.221c0-15.739-12.759-28.498-28.498-28.498z" fill="#8286ea"/><path d="m431.571 430.483-9.184.034c-3.13.012-6.054 1.563-7.819 4.148l-5.179 7.585c-4.445 6.51-14.425 5.098-16.889-2.39l-2.871-8.724c-.978-2.973-3.357-5.275-6.361-6.155l-8.814-2.581c-7.565-2.215-9.306-12.144-2.946-16.801l7.41-5.426c2.526-1.849 3.979-4.823 3.888-7.952l-.269-9.181c-.231-7.879 8.673-12.603 15.068-7.994l7.451 5.371c2.539 1.83 5.817 2.294 8.764 1.24l8.648-3.093c7.422-2.655 14.667 4.354 12.259 11.86l-2.805 8.745c-.956 2.981-.385 6.241 1.529 8.718l5.614 7.269c4.816 6.242.388 15.298-7.494 15.327z" fill="#d789b9"/><path d="m92.048 22.284 8.328 23.418c.357 1.003 1.063 1.797 1.953 2.199l20.806 9.374c2.939 1.324 2.939 6.008 0 7.332l-20.806 9.374c-.891.401-1.597 1.196-1.953 2.198l-8.328 23.418c-1.176 3.309-5.338 3.309-6.514 0l-8.328-23.418c-.357-1.003-1.062-1.797-1.953-2.198l-20.806-9.374c-2.939-1.324-2.939-6.008 0-7.332l20.806-9.374c.891-.401 1.597-1.196 1.953-2.199l8.328-23.418c1.176-3.308 5.337-3.308 6.514 0z" fill="#c1e5ef"/><path d="m397.061 102.707 6.178 17.371c.264.744.788 1.333 1.449 1.631l15.434 6.953c2.18.983 2.18 4.456 0 5.439l-15.434 6.953c-.661.298-1.184.887-1.449 1.631l-6.178 17.371c-.873 2.454-3.959 2.454-4.832 0l-6.178-17.371c-.265-.744-.788-1.333-1.449-1.631l-15.433-6.953c-2.18-.982-2.18-4.456 0-5.439l15.433-6.953c.661-.298 1.184-.887 1.449-1.631l6.178-17.371c.873-2.455 3.959-2.455 4.832 0z" fill="#c1e5ef"/><g fill="#96b4eb"><ellipse cx="332.999" cy="46.319" rx="18.185" ry="18.185" transform="matrix(.23 -.973 .973 .23 211.411 359.768)"/><path d="m181.73 138.574c0 4.333-3.512 7.845-7.844 7.845-4.333 0-7.845-3.512-7.845-7.845 0-4.332 3.512-7.845 7.845-7.845 4.332 0 7.844 3.512 7.844 7.845z"/></g></g><g><path d="m473.363 217.861h-434.726c-21.304 0-38.637 17.333-38.637 38.637v225.561c0 5.6 4.54 10.139 10.139 10.139h491.723c5.599 0 10.139-4.539 10.139-10.139v-225.561c-.001-21.304-17.334-38.637-38.638-38.637zm-453.086 125.399c22.395-7.518 42.691-3.777 67.5.81 27.259 5.04 61.182 11.311 108.495 4.075 30.377-4.646 63.006-3.77 100.546-.085-36.289 9.802-70.625 18.884-102.667 21.985-52.451 5.075-83.224-.691-107.952-5.323-22.853-4.282-41.68-7.803-65.922.299zm308.804-3.826c-51.966-6.426-94.885-9.397-134.648-3.316-45.282 6.927-76.712 1.114-104.444-4.012-24.328-4.498-45.933-8.482-69.712-1.599v-35.961c9.722.407 14.823 2.758 20.627 5.45 6.719 3.116 14.335 6.647 28.793 6.647s22.073-3.532 28.792-6.648c6.385-2.961 11.899-5.518 23.673-5.518 11.775 0 17.289 2.558 23.674 5.518 6.719 3.116 14.335 6.648 28.794 6.648 14.458 0 22.073-3.532 28.792-6.648 6.385-2.961 11.899-5.518 23.673-5.518s17.288 2.558 23.673 5.518c6.719 3.116 14.334 6.648 28.792 6.648 14.459 0 22.075-3.532 28.794-6.648 6.385-2.961 11.899-5.518 23.674-5.518s17.289 2.558 23.674 5.519c6.719 3.116 14.335 6.647 28.793 6.647 14.461 0 22.076-3.532 28.796-6.647 6.385-2.961 11.901-5.519 23.677-5.519s17.291 2.558 23.677 5.519c6.72 3.116 14.337 6.647 28.797 6.647.805 0 1.573-.16 2.276-.444v21.643c-49.039-14.583-105.93-3.172-162.637 11.592zm-290.444-101.295h434.726c10.124 0 18.359 8.236 18.359 18.359v38.424c-.703-.284-1.471-.445-2.276-.445-11.777 0-17.292-2.557-23.678-5.519-6.72-3.116-14.336-6.648-28.796-6.648s-22.076 3.532-28.796 6.648c-6.386 2.961-11.901 5.519-23.677 5.519-11.775 0-17.289-2.557-23.674-5.519-6.719-3.116-14.335-6.648-28.793-6.648s-22.074 3.532-28.793 6.648c-6.385 2.961-11.9 5.519-23.675 5.519-11.774 0-17.288-2.557-23.673-5.518-6.719-3.116-14.334-6.648-28.792-6.648s-22.073 3.532-28.792 6.648c-6.385 2.961-11.899 5.518-23.673 5.518-11.775 0-17.29-2.557-23.675-5.519-6.719-3.116-14.335-6.648-28.793-6.648s-22.073 3.532-28.792 6.648c-6.385 2.961-11.899 5.518-23.673 5.518-11.775 0-17.289-2.557-23.674-5.518-6.229-2.889-13.238-6.13-25.746-6.588v-25.873c-.004-10.123 8.232-18.358 18.356-18.358zm453.086 233.781h-471.446v-75.167-10.086c22.502-9.45 37.896-6.566 62.187-2.015 24.617 4.612 58.329 10.928 113.639 5.576 34.933-3.381 73.129-13.706 110.067-23.691 65.369-17.67 132.877-35.917 185.552-17.387v8.042 114.728z" fill="#3c122c"/><path d="m401.577 452.486c-.738 0-1.48-.052-2.227-.158-5.921-.838-10.759-4.886-12.629-10.565l-2.87-8.725c-.353-1.071-1.21-1.9-2.293-2.217l-8.815-2.581c-5.738-1.68-9.944-6.383-10.977-12.272s1.323-11.742 6.146-15.275l7.412-5.426c.909-.666 1.433-1.737 1.4-2.865l-.269-9.181c-.175-5.977 2.997-11.431 8.28-14.233 5.283-2.801 11.576-2.369 16.426 1.126l7.451 5.37c.914.66 2.095.825 3.157.447l8.649-3.093c5.629-2.014 11.797-.682 16.095 3.476 4.297 4.157 5.832 10.276 4.005 15.97l-2.806 8.746c-.345 1.074-.139 2.249.551 3.142l5.614 7.269c3.654 4.732 4.294 11.009 1.667 16.38-2.626 5.372-7.971 8.723-13.951 8.745l-9.184.034c-1.129.004-2.182.563-2.819 1.496l-5.178 7.584c-2.945 4.316-7.725 6.806-12.835 6.806zm-9.499-73.168c-.734 0-1.329.251-1.642.417-.566.3-1.876 1.206-1.821 3.128l.269 9.181c.151 5.13-2.231 10.004-6.372 13.038l-7.413 5.427c-1.55 1.136-1.46 2.726-1.349 3.357.11.631.567 2.157 2.413 2.697l8.815 2.581c4.927 1.443 8.826 5.215 10.43 10.092l2.87 8.724c.601 1.826 2.142 2.232 2.776 2.322s2.227.126 3.311-1.461l5.178-7.585c2.895-4.24 7.688-6.783 12.821-6.802l9.184-.034c1.923-.007 2.785-1.346 3.066-1.922s.809-2.079-.366-3.6l-5.615-7.27c-3.138-4.064-4.074-9.408-2.506-14.295l2.806-8.746c.587-1.831-.42-3.064-.88-3.509-.461-.446-1.728-1.411-3.539-.764l-8.647 3.093c-4.835 1.729-10.205.97-14.37-2.033l-7.451-5.37c-.696-.503-1.377-.666-1.968-.666z" fill="#3c122c"/><path d="m109.631 270.664c-5.545 0-10.071-4.462-10.136-10.021-.065-5.599 4.421-10.191 10.02-10.256l3.203-.037c24.401-.284 24.402-.284 48.478 0l3.161.037c5.599.066 10.085 4.658 10.019 10.257-.065 5.559-4.591 10.019-10.136 10.019-.04 0-.08 0-.121 0l-3.162-.038c-23.846-.281-23.845-.281-48.003 0l-3.204.038c-.04.001-.079.001-.119.001z" fill="#fff"/><path d="m66.225 270.664h-12.936c-5.599 0-10.139-4.539-10.139-10.139 0-5.599 4.54-10.139 10.139-10.139h12.936c5.599 0 10.139 4.539 10.139 10.139s-4.54 10.139-10.139 10.139z" fill="#fff"/><g fill="#3c122c"><path d="m316.323 417.839c-3.359 0-6.083-2.724-6.083-6.083v-11.488c0-3.359 2.724-6.083 6.083-6.083s6.083 2.724 6.083 6.083v11.488c0 3.359-2.724 6.083-6.083 6.083z"/><path d="m271.143 444.416c-3.359 0-6.083-2.724-6.083-6.083v-11.488c0-3.359 2.724-6.083 6.083-6.083s6.083 2.724 6.083 6.083v11.488c0 3.359-2.724 6.083-6.083 6.083z"/></g></g></g></svg>