<svg id="Capa_1" enable-background="new 0 0 512 512" height="512" viewBox="0 0 512 512" width="512" xmlns="http://www.w3.org/2000/svg"><g><g><path d="m24.589 491.698-7.779-7.779c-8.577-8.577-8.577-22.482 0-31.059l100.869-100.869 38.838 38.838-100.869 100.869c-8.577 8.577-22.482 8.577-31.059 0z" fill="#efc5b4"/><path d="m291.091 414.911c14.867-14.867 46.457-7.641 72.299 15.862 3.765-5.499 7.147-11.161 10.097-16.96 8.143-13.853 15.622-29.959 22.503-48.113-23.471-17.455-34.604-42.046-24.97-56.943 7.477-11.563 25.413-14.112 45.013-8.017 5.497-21.716 10.484-45.191 15.009-70.28-.184-.086-.368-.165-.552-.253-29.108-13.89-46.058-39.082-37.857-56.266 6.472-13.562 26.676-18.075 49.214-12.551 3.891-28.709 7.338-58.979 10.398-90.64.827-8.559-5.91-15.245-14.469-14.339-32.211 3.41-62.561 7.134-91.032 11.184 4.889 21.845.27 41.2-12.949 47.507-16.906 8.067-41.552-8.214-55.573-36.459-24.627 4.502-47.433 9.326-68.389 14.483 6.451 18.352 4.783 35.385-5.854 43.291-14.748 10.962-41.326.373-60.458-23.646-27.096 9.754-49.141 20.438-66.007 32.104 23.667 25.884 30.979 57.617 16.069 72.527-14.029 14.029-42.95 8.385-67.88-12.042-24.5 50.63-18.17 110.297 20.479 148.946 20.235 20.235 46.233 31.609 73.678 34.342 2.733 27.444 14.106 53.442 34.341 73.677 38.649 38.649 98.315 44.979 148.943 20.481-20.437-24.933-26.085-53.863-12.053-67.895z" fill="#e8a284"/><path d="m437.775 56.412c-10.302 1.09-20.392 2.217-30.313 3.372-2.446 25.153-5.193 49.226-8.289 72.071l-9.204 55.77c.149.071.298.135.447.205-3.667 20.332-7.709 39.356-12.163 56.955-13.455 58.512-36.81 118.035-91.484 147.547-41.029 19.853-89.382 14.723-120.703-16.598-6.442-6.442-11.776-13.605-16.013-21.277-11.7-21.188-29.06-38.548-50.248-50.248-7.672-4.237-14.835-9.57-21.278-16.013-18.412-18.412-27.762-42.71-28.318-67.945-8.166-3.349-16.54-8.359-24.507-14.887-24.499 50.626-18.169 110.293 20.48 148.942 20.235 20.235 46.233 31.608 73.677 34.342 2.733 27.444 14.107 53.442 34.342 73.677 38.649 38.649 98.315 44.979 148.943 20.481-20.437-24.933-26.086-53.864-12.054-67.895 14.867-14.867 46.457-7.641 72.3 15.862 3.765-5.499 7.147-11.161 10.096-16.96 8.143-13.853 15.622-29.959 22.503-48.113-23.471-17.454-34.603-42.046-24.97-56.944 7.477-11.563 25.413-14.112 45.013-8.017 5.497-21.716 10.484-45.191 15.009-70.28-.184-.086-.368-.165-.551-.253-29.109-13.89-46.058-39.082-37.857-56.266 6.471-13.562 26.676-18.075 49.214-12.551 3.891-28.709 7.338-58.979 10.397-90.639.828-8.559-5.91-15.244-14.469-14.338z" fill="#d57b84"/><g fill="#e8a284"><path d="m59.935 6.036 8.537 24.003c.365 1.028 1.089 1.842 2.002 2.254l21.326 9.608c3.013 1.357 3.013 6.158 0 7.515l-21.326 9.608c-.913.411-1.637 1.226-2.002 2.253l-8.537 24.003c-1.206 3.391-5.471 3.391-6.677 0l-8.537-24.003c-.365-1.028-1.089-1.842-2.002-2.253l-21.326-9.608c-3.013-1.357-3.013-6.158 0-7.515l21.326-9.608c.913-.411 1.637-1.226 2.002-2.254l8.537-24.003c1.206-3.391 5.471-3.391 6.677 0z"/><path d="m486.687 316.631 6.332 17.805c.271.762.808 1.366 1.485 1.672l15.819 7.127c2.235 1.007 2.235 4.568 0 5.575l-15.819 7.127c-.677.305-1.214.909-1.485 1.672l-6.332 17.805c-.895 2.516-4.058 2.516-4.953 0l-6.332-17.805c-.271-.762-.808-1.366-1.485-1.672l-15.819-7.127c-2.235-1.007-2.235-4.568 0-5.575l15.819-7.127c.677-.305 1.214-.909 1.485-1.672l6.332-17.805c.895-2.515 4.059-2.515 4.953 0z"/><ellipse cx="449.045" cy="454.841" rx="18.64" ry="18.64" transform="matrix(.23 -.973 .973 .23 -96.798 787.373)"/><circle cx="154.815" cy="33.371" r="8.041"/></g></g><g><g fill="#3c122c"><path d="m455.842 52.648c-4.982-4.938-11.971-7.332-19.161-6.571-32.314 3.421-63.066 7.199-91.401 11.229-2.87.409-5.439 1.996-7.086 4.381-1.648 2.384-2.226 5.349-1.592 8.177 3.795 16.954.732 32.034-7.283 35.859-9.969 4.751-29.576-7.096-41.79-31.701-2.06-4.15-6.616-6.44-11.178-5.602-24.812 4.536-48.028 9.454-69.002 14.615-2.846.7-5.264 2.57-6.658 5.148s-1.635 5.625-.663 8.39c4.973 14.147 4.069 26.807-2.251 31.504-8.55 6.355-29.598-1.027-46.13-21.781-2.774-3.482-7.457-4.813-11.648-3.303-27.957 10.064-50.97 21.279-68.398 33.336-2.468 1.707-4.078 4.398-4.415 7.38s.631 5.964 2.657 8.179c21.301 23.297 25.672 48.884 16.39 58.166-9.699 9.7-33.396 4.106-53.946-12.731-2.462-2.018-5.714-2.794-8.822-2.11-3.109.684-5.732 2.756-7.119 5.622-13.074 27.02-18.051 56.349-14.393 84.816 3.774 29.37 16.528 55.651 36.88 76.004 9.345 9.345 19.914 17.054 31.434 23.049l-60.806 60.807c-12.615 12.615-12.615 33.141 0 45.757l7.779 7.779h.001c6.307 6.307 14.593 9.461 22.878 9.461s16.571-3.154 22.878-9.461l60.806-60.806c5.995 11.52 13.705 22.089 23.049 31.434 20.353 20.352 46.635 33.105 76.004 36.88 6.073.78 12.179 1.168 18.299 1.168 22.57-.001 45.261-5.275 66.516-15.56 2.866-1.386 4.938-4.01 5.622-7.12.685-3.109-.093-6.361-2.111-8.823-16.849-20.555-22.447-44.257-12.744-53.959 9.234-9.235 34.725-4.927 57.959 16.201 2.223 2.022 5.21 2.982 8.197 2.634 2.985-.349 5.672-1.972 7.37-4.451 3.983-5.818 7.563-11.816 10.64-17.835 8.208-14.006 15.98-30.633 23.102-49.426 1.646-4.343.211-9.251-3.515-12.022-20.288-15.087-27.985-34.395-22.445-42.961 4.527-7.002 17.871-8.504 33.2-3.736 2.722.847 5.676.537 8.166-.857 2.489-1.394 4.295-3.751 4.995-6.516 5.445-21.511 10.545-45.394 15.161-70.985.836-4.633-1.548-9.25-5.809-11.251l-.494-.225c-24.797-11.833-37.85-32.151-32.953-42.412 3.983-8.347 19.694-11.262 37.361-6.933 2.86.701 5.887.155 8.324-1.504 2.436-1.659 4.052-4.273 4.448-7.194 3.809-28.097 7.322-58.726 10.444-91.036.695-7.204-1.764-14.167-6.747-19.104zm-407.542 431.701c-4.511 4.512-11.853 4.51-16.364 0l-7.778-7.778c-4.511-4.512-4.511-11.852 0-16.363l66.892-66.893c6.316 1.995 12.835 3.543 19.533 4.609 1.066 6.698 2.614 13.217 4.609 19.532zm393.6-414.598c-2.701 27.958-5.696 54.637-8.922 79.471-23.379-2.767-42.294 4.671-49.725 20.243-10.13 21.231 5.631 49.538 36.175 66.706-3.437 18.416-7.126 35.848-11.008 52.031-20.474-3.594-37.621 1.757-46.126 14.912-11.801 18.249-2.826 45.101 21.247 65.917-5.981 14.937-12.362 28.203-19.012 39.517-.106.182-.208.366-.303.554-1.047 2.059-2.164 4.117-3.345 6.168-28.394-21.016-60.169-24.674-77.137-7.706-9.223 9.223-12.694 23.101-9.773 39.077 1.894 10.358 6.456 21.31 13.136 31.747-44.911 16.848-94.088 8.056-125.555-23.41-17.904-17.904-28.744-41.196-31.348-67.359-.014-.146-.042-.288-.062-.432l91.266-91.266c2.436-2.435 2.436-6.383 0-8.818-2.434-2.435-6.383-2.435-8.817 0l-91.267 91.267c-.144-.02-.285-.047-.431-.062-26.164-2.606-49.456-13.446-67.359-31.349-31.468-31.468-40.258-80.65-23.409-125.558 10.435 6.676 21.386 11.235 31.74 13.127 15.974 2.919 29.847-.553 39.069-9.775 17.059-17.058 13.302-48.983-7.952-77.47 13.044-7.823 28.903-15.278 47.349-22.255 15.374 16.78 33.756 26.106 49.657 26.104 7.467-.001 14.392-2.06 20.192-6.371 11.843-8.802 16.295-25.106 12.515-44.03 15.608-3.652 32.358-7.166 50.004-10.491 7.203 12.192 16.442 22.309 26.521 28.935 13.61 8.948 27.478 10.832 39.053 5.308 15.082-7.197 22.591-25.466 20.405-48.06 25.146-3.45 52.067-6.698 80.194-9.676 1.984-.234 3.243 1.015 3.028 3.004z"/><path d="m138.799 301.259c-2.287 0-4.49-1.263-5.582-3.449l-13.454-26.907c-1.541-3.08-.292-6.825 2.788-8.366 3.081-1.54 6.827-.291 8.365 2.789l13.454 26.907c1.54 3.08.292 6.826-2.788 8.366-.895.448-1.847.66-2.783.66z"/><path d="m202.521 248.093c-2.287 0-4.49-1.264-5.582-3.449l-13.454-26.908c-1.541-3.08-.292-6.826 2.788-8.365 3.082-1.54 6.827-.291 8.365 2.789l13.454 26.908c1.54 3.08.292 6.825-2.788 8.366-.895.447-1.847.659-2.783.659z"/><path d="m290.793 328.402c-1.057 0-2.129-.27-3.112-.836l-22.615-13.057c-2.983-1.722-4.004-5.536-2.283-8.518 1.722-2.981 5.534-4.004 8.518-2.282l22.615 13.057c2.983 1.722 4.004 5.535 2.282 8.518-1.154 1.999-3.249 3.118-5.405 3.118z"/><path d="m233.654 391.712c-1.235 0-2.481-.365-3.569-1.127l-24.649-17.246c-2.822-1.974-3.508-5.862-1.535-8.684 1.976-2.822 5.865-3.507 8.683-1.534l24.649 17.246c2.822 1.974 3.508 5.862 1.535 8.684-1.213 1.733-3.149 2.661-5.114 2.661z"/></g><path d="m268.838 154.384c-2.878 0-5.742-1.188-7.796-3.516-.798-.904-1.58-1.82-2.349-2.748-3.664-4.419-3.051-10.97 1.368-14.633 4.417-3.664 10.971-3.051 14.632 1.368.633.764 1.278 1.519 1.933 2.262 3.798 4.304 3.388 10.871-.916 14.668-1.977 1.742-4.43 2.599-6.872 2.599z" fill="#fff"/><path d="m306.781 175.452c-5.88 0-11.987-1.219-17.828-3.575-5.323-2.146-7.899-8.201-5.752-13.524 2.146-5.323 8.202-7.898 13.524-5.752 3.88 1.565 7.84 2.265 11.445 2.021 5.738-.375 10.68 3.946 11.066 9.672.385 5.726-3.945 10.681-9.672 11.066-.92.061-1.849.092-2.783.092z" fill="#fff"/></g></g></svg>