<svg id="Layer_1" enable-background="new 0 0 512 512" height="512" viewBox="0 0 512 512" width="512" xmlns="http://www.w3.org/2000/svg"><path d="m256 379.52c-13.019 18.379-32.918 36.631-50.64 50.09-6.57 15.83-5.12 34.56-1.17 52.15 18.54 19 37.72 30.24 51.81 30.24 14.1 0 33.27-11.24 51.81-30.24 3.95-17.59 5.4-36.32-1.17-52.15-17.726-13.462-37.623-31.713-50.64-50.09z"/><path d="m391.81 414.96 13.22 8.81c3.34-10.19 4.43-27.23-8.88-51.2-29.05-52.28-75-57.65-96.97-56.9-.39 12.69-10.8 22.71-26.54 26.82 4.65 19.5 34.45 48.17 56.13 63.7 2.12 1.52 3.84 3.53 5.01 5.86 13.37 26.75 10.55 56.14 4.16 81.59 14.64-19.67 25.3-50.53 29.38-68.84 2.421-10.94 15.116-16.096 24.49-9.84z"/><path d="m239.36 342.49c-15.77-4.12-26.18-14.16-26.54-26.88-22.02-.85-67.78 4.43-96.97 56.96-13.32 23.98-12.2 41.06-8.89 51.21l13.23-8.82c9.318-6.219 22.044-1.161 24.5 9.84 4.09 18.27 14.75 49.04 29.34 68.72-6.36-25.42-9.16-54.77 4.19-81.47 1.17-2.34 2.89-4.35 5.01-5.87 21.68-15.52 51.48-44.2 56.13-63.69z"/><path d="m139.49 147.66c8.185 3.618 14.85 8.862 14.64 18.06-.11 4.37-2 8.51-5.23 11.46-.22.19-23.52 21.72-40.03 54.1-18.85 36.98-21.37 72.33-7.56 105.27 24.7-32.03 54.94-44.78 77.62-49.71 24.856-5.402 49.799-2.805 55.94-.29 6.79-4.59 13.06-8.1 13.34-8.26 4.84-2.69 10.74-2.69 15.58 0 17.135 9.785 11.079 8.498 15.94 7.43.97-.22 24.17-5.22 53.34 1.12 22.68 4.93 52.92 17.68 77.62 49.71 13.81-32.94 11.29-68.29-7.56-105.27-16.51-32.38-39.81-53.91-40.05-54.12-6.707-6.144-6.975-16.674-.53-23.14 1.6-1.59 4.64-4.01 9.99-6.37-32.52-10.936-74.159-12.965-100.53-12.377.42-45.839 40.25-73.539 40.912-73.991 7.313-4.913 9.282-14.82 4.391-22.157-4.901-7.353-14.835-9.339-22.188-4.438-1.255.837-18.251 12.401-33.043 33.533-12.778-41.072-33.511-62.277-34.768-63.534-6.249-6.248-16.379-6.248-22.628 0-6.248 6.249-6.248 16.379 0 22.628.257.256 18.77 19.241 28.883 57.408-13.578-7.425-26.232-11.266-29.173-12.106-8.495-2.428-17.352 2.493-19.78 10.989-2.428 8.497 2.492 17.352 10.989 19.78 15.218 4.348 43.398 18.055 44.35 31.899-26.38-.569-67.978 1.478-100.465 12.376zm30.38 126.48c-12.52 0-22.67-10.15-22.67-22.67s10.15-22.67 22.67-22.67 22.66 10.15 22.66 22.67-10.14 22.67-22.66 22.67zm172.26-45.34c12.52 0 22.67 10.15 22.67 22.67s-10.15 22.67-22.67 22.67-22.66-10.15-22.66-22.67 10.14-22.67 22.66-22.67z"/><path d="m462.2 258.17c-11.963-11.474-.085-31.917 16.46-26.41.72.24 11.49 3.87 26.26 10.97-15.84-50.72-48.09-69.49-73.48-76.17-2.99 3.56-7.44 5.71-12.24 5.71-6.52 0-11.94.32-16.43.8 46.222 56.067 65.837 125.495 30.48 190.33-.97 1.76-2.22 3.27-3.66 4.5 25.47 56.47-6.88 88.61-8.36 90.03-5.41 5.21-13.72 5.95-19.97 1.79l-8.93-5.96c-5.214 15.955-12.078 32.576-20.78 47.09 73.03-14.13 85.7-81.04 86.28-84.34 2.094-12.565 17.362-17.725 26.69-9.01 6.96-50.08 2.74-84.99-2.9-106.94-7.32-28.46-18.42-41.28-19.42-42.39z"/><path d="m119.67 453.76-8.93 5.96c-6.25 4.16-14.56 3.42-19.97-1.79-1.48-1.42-33.83-33.56-8.36-90.03-1.44-1.23-2.69-2.74-3.66-4.5-35.288-64.709-15.858-134.135 30.47-190.33-4.48-.48-9.9-.8-16.42-.8-4.8 0-9.25-2.15-12.24-5.71-25.39 6.68-57.64 25.45-73.48 76.17 14.77-7.1 25.53-10.73 26.26-10.97 16.526-5.501 28.433 14.926 16.46 26.41-1 1.11-12.1 13.93-19.42 42.39-5.64 21.95-9.86 56.87-2.9 106.95 9.337-8.724 24.607-3.478 26.7 9.06.57 3.25 13.25 70.15 86.27 84.28-8.701-14.513-15.566-31.133-20.78-47.09z"/></svg>