<svg id="Layer_1" enable-background="new 0 0 512 512" height="512" viewBox="0 0 512 512" width="512" xmlns="http://www.w3.org/2000/svg"><path d="m396.651 309.93c-2.441-3.802-3.168-9.492-3.58-16.07-14.18-62.23-42.04-106.19-82.84-130.67-27.07-16.24-50.94-17.94-54.72-18.11-3.75.17-28.53 1.91-56.24 19.02-38.92 24.02-65.88 66.02-80.2 124.88 0 5.1-.47 10.27-1.51 15.49-.57 2.84-1.86 5.35-3.64 7.38-18.52 84.2-22.94 111.68-23.97 120.47 2.1 4.38 11.37 21.96 32.69 39.26 33.05 26.82 77.91 40.42 133.36 40.42 115.01 0 155.47-59.94 164.43-76.45.11-1.02.32-2.03.63-3.02-.979-8.62-5.38-36.2-24.41-122.6zm-68.12-63c10.02 0 18.14 8.12 18.14 18.14 0 10.01-8.12 18.13-18.14 18.13-10.01 0-18.13-8.12-18.13-18.13 0-10.02 8.12-18.14 18.13-18.14zm-145.06 0c10.01 0 18.13 8.12 18.13 18.14 0 10.01-8.12 18.13-18.13 18.13-10.02 0-18.14-8.12-18.14-18.13 0-10.02 8.12-18.14 18.14-18.14zm117.861 251.74h-90.66c-54.364 0-73.895-58.387-60.86-110.55 10.61-42.45 50.7-110.14 103.05-120.61 2.07-.41 4.21-.41 6.28 0 52.35 10.47 92.44 78.16 103.05 120.61 13.028 52.134-6.442 110.55-60.86 110.55z"/><path d="m331.141 395.88c-8.67-34.69-41.03-86.74-75.14-96.24-34.11 9.5-66.47 61.55-75.14 96.24-4.67 18.65-4.35 45.57 7.38 60.59 5.43 6.96 12.56 10.2 22.43 10.2h90.66c9.87 0 17-3.24 22.43-10.2 11.73-15.02 12.051-41.94 7.38-60.59zm-115.43 47.21c-13.37-8.03-21.04-20.04-21.04-32.96 0-23.95 12.59-34.2 23.15-38.58 11.14-4.62 24.28-4.62 38.18-4.62s27.04 0 38.18 4.62c10.56 4.38 23.15 14.63 23.15 38.58.001 39.042-63.678 55.684-101.62 32.96z"/><path d="m285.332 410.13c0 2.79-10.4 11.2-29.33 11.2s-29.33-8.41-29.33-11.2c0-7.61 1.8-8.35 3.4-9.02 5.26-2.18 15.77-2.18 25.93-2.18 28.277 0 29.33 1.275 29.33 11.2z"/><path d="m450.221 167.24c-9.582 19.185-28.645 42.847-41.99 68.33-15.091-36.584-37.51-68.882-69.49-91.89 6.86-14.43 20.71-42.38 37.6-69.99 41.83-68.38 64.201-73.69 70.06-73.69 1.95 0 5.57 0 9.79 6.84 19.215 31.048 8.596 131.295-5.97 160.4z"/><path d="m173.011 143.15c-31.94 22.71-54.577 54.851-69.81 91.34-13.283-25.011-32.017-48.424-41.42-67.25-14.811-29.595-25.035-129.592-5.97-160.4 4.22-6.84 7.84-6.84 9.79-6.84 5.86 0 28.23 5.31 70.06 73.69 16.69 27.28 30.41 54.88 37.35 69.46z"/></svg>