<svg id="Layer_1" enable-background="new 0 0 512 512" height="512" viewBox="0 0 512 512" width="512" xmlns="http://www.w3.org/2000/svg"><path d="m256 398.929c-5.56 0-13.59 22.19-17.44 32.85-4.1 11.34-8.29 22.88-14.16 32.19 20.105 3.516 42.111 3.687 63.2 0-5.87-9.31-10.06-20.85-14.16-32.19-3.85-10.66-11.88-32.85-17.44-32.85z"/><path d="m297.83 329.849c-11.239 43.855-72.403 43.925-83.66 0-11.03 3.45-18.63 10.3-25.46 23.97-16 32.01-24.25 83.32 1.91 96.4 1.76.88 2.73 1.04 3.03 1.07.46-.28 2.51-1.78 5.63-7.75 12.879-24.639 19.621-76.61 56.72-76.61s43.842 51.973 56.72 76.61c3.12 5.97 5.17 7.47 5.63 7.75.3-.03 1.27-.19 3.03-1.07 26.16-13.08 17.91-64.39 1.91-96.4-6.83-13.67-14.43-20.52-25.46-23.97z"/><path d="m256 154.129c-52.67 0-124.79 0-157.23 89.2-21.051 57.894-4.831 133.114 43.38 179.44-2.41-26.36 4.74-56.86 17.94-83.26 19.569-39.149 48.18-45.33 91.2-45.12 40.15.132 77.222-1.689 100.62 45.12 13.2 26.4 20.35 56.9 17.94 83.26 48.201-46.316 64.436-121.534 43.38-179.44-32.44-89.2-104.56-89.2-157.23-89.2zm-122.4 174.4c-12.52 0-22.67-10.14-22.67-22.66s10.15-22.67 22.67-22.67 22.67 10.15 22.67 22.67-10.15 22.66-22.67 22.66zm244.8 0c-12.52 0-22.67-10.14-22.67-22.66s10.15-22.67 22.67-22.67 22.67 10.15 22.67 22.67-10.15 22.66-22.67 22.66z"/><path d="m473.6 45.329c-26.94 0-76.16 44.68-115.99 91.54 32.41 13.41 62.98 39.02 82.76 87.91 15.02-15.36 36.2-42.07 54.88-84.08 15.46-34.79 16.75-52.32 16.75-66.03 0-17-16.15-29.34-38.4-29.34z"/><path d="m154.39 136.869c-39.83-46.86-89.05-91.54-115.99-91.54-22.25 0-38.4 12.34-38.4 29.34 0 13.71 1.29 31.24 16.75 66.03 18.68 42.01 39.86 68.72 54.88 84.08 19.78-48.89 50.35-74.5 82.76-87.91z"/></svg>