<svg id="Layer_1" enable-background="new 0 0 512 512" height="512" viewBox="0 0 512 512" width="512" xmlns="http://www.w3.org/2000/svg"><path d="m450.967 355.197c-6.983-12.209 4.128-26.913 17.8-23.499 3.336.821 9.246 1.953 16.307 2.704-27.125-25.793-50.034-57.667-51.396-59.57-9.164-12.839 3.902-29.879 18.671-24.321 8.827 3.299-2.656 4.967-51.146-118.669-32.25-.161-38.872-59.206-50.825-78.332-6.13-2.244-10.508-8.134-10.508-15.045 0-8.855 7.182-16.027 16.027-16.027 27.677 0 31.922 47.929 46.178 74.064 14.755-17.579 12.09-38.775 11.139-44.014-7.212-15.826-29.75-52.488-57.316-52.488-27.713 0-37.01 36.711-45.727 51.717-4.558 7.863-10.568 11.86-17.84 11.86-8.895 0-25.874-4.928-36.331-8.254-10.458 3.326-27.436 8.254-36.331 8.254-7.272 0-13.282-3.997-17.84-11.86-8.655-14.897-17.935-51.717-45.727-51.717-27.556 0-50.084 36.632-57.316 52.498-.952 5.229-3.616 26.435 11.139 44.004 14.252-26.129 18.503-74.064 46.178-74.064 8.845 0 16.027 7.172 16.027 16.027 0 6.912-4.377 12.802-10.508 15.045-11.923 19.078-18.587 78.171-50.825 78.332-48.311 123.181-59.909 121.943-51.147 118.669 14.77-5.558 27.842 11.474 18.671 24.321-1.362 1.903-24.291 33.807-51.426 59.61 7.082-.771 13.002-1.903 16.337-2.744 13.646-3.407 24.796 11.267 17.8 23.499-9.305 16.052-23.407 36.161-36.982 49.884 22.408 1.513 43.273-4.117 52.228-8.594 10.631-5.316 23.189 2.422 23.189 14.334 0 15.776 4.167 41.51 27.687 60.952.962-13.042 4.808-21.276 5.529-22.708 4.975-9.97 18.44-11.947 26.064-3.746.461.491 45.807 48.621 97.253 66.682 51.446-18.061 96.793-66.191 97.263-66.692 7.675-8.234 21.118-6.137 26.054 3.756.721 1.432 4.568 9.666 5.529 22.708 23.519-19.443 27.686-45.176 27.686-60.952 0-11.889 12.536-19.661 23.189-14.334 8.945 4.478 29.82 10.107 52.228 8.594-13.578-13.728-27.676-33.835-36.982-49.884zm-131.39-180.504c10.027 0 18.16 8.134 18.16 18.161 0 10.037-8.134 18.17-18.16 18.17-10.037 0-18.17-8.134-18.17-18.17-.001-10.027 8.133-18.161 18.17-18.161zm-127.154 0c10.037 0 18.17 8.134 18.17 18.161 0 10.037-8.134 18.17-18.17 18.17-10.027 0-18.161-8.134-18.161-18.17.001-10.027 8.134-18.161 18.161-18.161zm63.577 243.079c-61.823 0-88.679-31.089-88.679-70.519 0-31.543 18.581-76.869 19.373-78.782 3.386-8.184 12.761-12.07 20.935-8.685 8.184 3.376 12.07 12.751 8.695 20.935-4.718 11.429-16.949 45.657-16.949 66.532 0 8.514 0 32.595 40.598 37.553v-31.713c-12.02-5.018-20.304-15.065-20.304-24.01 0-12.541 16.267-18.161 36.331-18.161 49.82 0 41.533 31.522 16.027 42.171v31.713c40.598-4.958 40.598-29.039 40.598-37.553 0-20.885-12.23-55.113-16.949-66.542-3.376-8.184.521-17.549 8.695-20.925 8.184-3.386 17.549.511 20.935 8.685.791 1.913 19.373 47.239 19.373 78.782 0 39.409-26.833 70.519-88.679 70.519z"/></svg>