<svg id="Layer_1" enable-background="new 0 0 512 512" height="512" viewBox="0 0 512 512" width="512" xmlns="http://www.w3.org/2000/svg"><path d="m230.93 293.561v22.32c-22.16 5.67-45.33 19.69-45.33 49.01 0 27.819 14.667 117.085-15.91 120.55-18.64-6.99-30.4-16.47-35.89-28.98-16.849-38.414 24.65-104.438 37.85-150.64 5.92-20.72 13.94-37.38 23.99-49.99 4.3 19.19 22.18 30.44 35.29 37.73z"/><path d="m293.18 464.411c-3.65 6.73-13.46 18.82-37.18 20.32-23.72-1.5-33.53-13.59-37.18-20.32 5.937-34.916-1.22-80.207-1.22-99.52 0-3.27 0-10.94 15.72-16.37 14.01-4.835 30.103-5.265 45.36 0 15.72 5.43 15.72 13.1 15.72 16.37 0 19.526-7.167 64.547-1.22 99.52z"/><path d="m378.2 456.461c-5.49 12.51-17.25 21.99-35.89 28.98-30.521-3.458-15.91-92.452-15.91-120.55 0-33.38-30.02-46.92-54.4-50.91v-15.39c12.585-7.329 38.985-18.771 44.36-42.76 10.05 12.61 18.07 29.27 23.99 49.99 13.183 46.141 54.696 112.232 37.85 150.64z"/><path d="m285.33 247.031c0 9.389-20.505 18.663-29.33 23.87-8.87-5.233-29.33-14.499-29.33-23.87 0-8.97 17.63-16.77 29.33-19.84 11.7 3.07 29.33 10.87 29.33 19.84z"/><path d="m512 174.501c0-64.743-73.126-123.423-94.71-112.63-7.48 3.74-16.57 1.09-20.88-6.08-8.13-13.56-35.36-23.54-74.69-27.4-33.768-3.303-64.222-1.13-64.88-1.13-2.741.189-31.485-2.301-66.56 1.13-39.33 3.86-66.56 13.84-74.69 27.4-4.3 7.17-13.4 9.82-20.88 6.08-21.605-10.803-94.71 47.902-94.71 112.63.02 26.19 4.22 74.02 15.45 90.85 21.754 32.653.294 76.724 2 93.75 8.56 1.77 16.53-7.16 20.9-13.32-4.485-65.291 5.597-208.527 52.2-255.13 6.25-6.25 16.38-6.25 22.63 0s6.25 16.38 0 22.62c-38.969 38.969-49.962 194.471-40.86 248.99 2.89 17.38 12.66 40.42 26.1 62.01 4.361-44.369 32.586-92.65 42.46-127.24 21.049-73.639 65.501-102.27 115.1-102.27 49.864 0 94.154 28.853 115.14 102.27 9.872 34.583 38.099 82.876 42.46 127.24 13.44-21.59 23.21-44.63 26.1-62.01 9.101-54.515-1.888-210.018-40.86-248.99-6.25-6.24-6.25-16.37 0-22.62s16.38-6.25 22.63 0c46.626 46.627 56.669 190.071 52.2 255.13 4.38 6.19 12.37 15.15 20.9 13.33 1.709-17.021-19.753-61.108 2-93.76 11.26-16.87 15.45-64.68 15.45-90.85zm-283.2-2.14c-8.83 0-15.98-7.15-16-15.97-.05-8.65-3.35-29.36-11.2-29.36-4.25 0-18.63 7.27-37.06 29.37 10.842-.392 18.93 8.175 18.93 18.09 0 10.02-8.12 18.14-18.14 18.14-8.27 0-15.24-5.55-17.41-13.13-10.94 17.66-18.55 36.1-21.2 52.02-1.409 8.419-9.298 14.594-18.42 13.16-8.71-1.46-14.6-9.7-13.15-18.42 9.345-56.005 66.538-131.23 106.45-131.23 29.747 0 43.2 31.607 43.2 61.33 0 8.84-7.16 16-16 16zm188.05 53.9c1.624 9.765-5.913 18.64-15.8 18.64-7.68 0-14.46-5.55-15.77-13.38-2.65-15.92-10.26-34.36-21.2-52.02-2.17 7.58-9.14 13.13-17.41 13.13-10.02 0-18.14-8.12-18.14-18.14 0-9.919 8.093-18.482 18.93-18.09-18.43-22.1-32.81-29.37-37.06-29.37-7.86 0-11.15 20.73-11.2 29.38-.049 8.664-7.044 15.93-16.05 15.93-8.81-.03-15.95-7.16-15.95-15.98 0-29.735 13.46-61.33 43.2-61.33 40.811 0 97.346 76.666 106.45 131.23z"/></svg>