<svg id="Layer_1" enable-background="new 0 0 512 512" height="512" viewBox="0 0 512 512" width="512" xmlns="http://www.w3.org/2000/svg"><path d="m256.18 426.165c-17.804 0-42.129 38.053-51.4 53.31 5.55 9.171 8.7 14.36 14.8 14.36 12.94 0 16.77-2.21 20.15-4.17 11.318-6.53 20.994-6.661 32.54 0 3.38 1.96 7.21 4.17 20.15 4.17 5.22 0 7.83-2.98 14.1-13.22.23-.38.47-.76.7-1.14-9.021-14.845-33.66-53.31-51.04-53.31z"/><path d="m313.99 271.115c-26.58-9.96-45.78-19.96-57.99-30.21-12.21 10.25-31.41 20.25-57.99 30.21-58.75 22.026-70.956 93.681-71.36 156.71.808 19.039-1.358 56.872 4.8 72.87 1.69 4.39 3.74 9.74 17.95 10.99 19.101-30.698 57.058-117.52 106.78-117.52 49.158 0 87.096 86.466 106.42 117.52 14.21-1.25 16.26-6.6 17.95-10.99 6.161-16.006 3.985-53.714 4.8-72.87-.404-63.028-12.61-134.684-71.36-156.71zm-21.34 79.1c-14.14 10.68-28.07 18.99-28.66 19.34-4.959 2.964-11.249 3.036-16.35 0-.58-.35-14.51-8.66-28.65-19.34-23.19-17.52-33.53-31.17-33.53-44.25 0-14.18 8.69-27.4 23.86-36.24 42.679-24.927 116.86-7.536 116.86 36.24 0 13.08-10.34 26.73-33.53 44.25z"/><path d="m255.82 290.255c-22.21 0-36.8 9.28-38.25 14.84 3.2 6.21 19.93 20.04 38.25 31.88 18.32-11.83 35.05-25.67 38.24-31.88-1.44-5.56-16.03-14.84-38.24-14.84z"/><path d="m392.09.315c-44.78 0-47.42 38-47.42 38.39 0 8.83-7.17 15.99-16 15.99-8.84 0-16-7.18-16-16.02 0-5.32 1.54-15.37 6.49-26.34-24.694-6.757-43.45 6.1-63.34 6.1-19.281 0-38.336-12.843-62.98-6.1 4.95 10.97 6.49 21.02 6.49 26.34 0 8.84-7.16 16-16 16-8.83 0-15.99-7.15-16-15.98-.01-.51-2.71-38.38-47.42-38.38-30.71 0-60.3 5.99-81.19 16.43-26.05 13.03-38.72 32.06-38.72 58.18 0 41.078 19.79 80.874 29.39 114.68 19.578-65.497 35.669-175.99 99.58-175.99 8.84 0 16 7.17 16 16 0 8.84-7.16 16-16 16-21.87 0-37.39 40.38-49.27 81.32 4.69-9 8.02-14.4 8.52-15.19 4.68-7.49 14.55-9.77 22.05-5.09 7.49 4.68 9.77 14.55 5.09 22.04-.61.99-42.88 69.96-42.88 145.56 0 40.454 14.582 54.212 29.85 77.01 10.05-45.1 32.93-90.79 84.45-110.11 40.15-15.06 50.66-25.94 53.05-29.16.01-.09.01-.18.02-.27-.47-8.544 5.887-16.88 16.65-16.88 9.117.198 16.147 7.847 15.65 16.88.01.09.01.18.02.27 2.39 3.22 12.9 14.1 53.05 29.16 51.52 19.32 74.4 65.01 84.45 110.11 15.24-22.757 29.84-36.5 29.84-77.01 0-28.91-6.13-56.76-13.75-80.23-9.673-29.021-21.69-53.488-29.12-65.32-4.68-7.49-2.4-17.36 5.09-22.05 7.5-4.68 17.37-2.4 22.05 5.09.5.79 3.83 6.19 8.51 15.18-11.87-40.93-27.39-81.31-49.26-81.31-8.84 0-16-7.16-16-16 0-8.83 7.16-16 16-16 64.228 0 80.393 111.803 99.58 175.99 9.612-33.848 29.39-73.582 29.39-114.68 0-71.01-99.89-74.61-119.91-74.61zm-258.59 228.64c-12.51 0-22.65-10.14-22.65-22.65s10.14-22.66 22.65-22.66 22.65 10.15 22.65 22.66-10.14 22.65-22.65 22.65zm245-45.31c12.51 0 22.65 10.15 22.65 22.66s-10.14 22.65-22.65 22.65-22.65-10.14-22.65-22.65 10.14-22.66 22.65-22.66z"/></svg>