<svg id="Layer_1" enable-background="new 0 0 512 512" height="512" viewBox="0 0 512 512" width="512" xmlns="http://www.w3.org/2000/svg"><path d="m489.44 173.35c-47.999-57.43-22.564-56.285-61.71-85.63-25.16-18.88-34-10.04-42.55-1.49-6.887 6.887-18.28 6.07-24.11-1.71-16.27-21.69-73.07-29.83-105.07-29.87-31.99.04-88.8 8.18-105.07 29.87-5.85 7.807-17.249 8.571-24.11 1.71-8.55-8.55-17.39-17.39-42.55 1.49-39.144 29.344-13.69 28.174-61.71 85.63-13.58 16.24-22.56 26.96-22.56 46.63 0 17.838 62.795 76.333 85.81 107.83 12.804-33.384 24.327-87.778 18.41-123.33-5.723-34.294-13.24-74.017 17.69-89.47 7.91-3.96 17.52-.75 21.47 7.15s.75 17.51-7.16 21.47c-1.74.87-4.38 2.19-5.02 11.46-.76 10.83 1.74 27.05 4.58 44.13 7.235 43.398-6.336 107.235-22.73 146.67 4.91 12.31 12.78 30.93 21.78 48.24 17.47 33.59 26.16 37.21 26.52 37.35 22.75 7.58 79.33 22 94.65 25.87 15.32-3.87 71.91-18.29 94.67-25.88.34-.13 9.03-3.75 26.5-37.34 9-17.31 16.87-35.94 21.78-48.24-16.248-39.083-30.02-102.943-22.73-146.67 2.84-17.08 5.34-33.3 4.58-44.13-.64-9.27-3.28-10.59-5.02-11.46-7.91-3.96-11.11-13.57-7.16-21.47 3.96-7.9 13.57-11.11 21.47-7.15 30.93 15.453 23.413 55.176 17.69 89.47-5.908 35.496 5.584 89.887 18.41 123.33 23.022-31.506 85.81-89.992 85.81-107.83 0-19.66-8.97-30.39-22.56-46.63zm-160.91 10.37c10.02 0 18.14 8.12 18.14 18.13s-8.12 18.13-18.14 18.13c-10.01 0-18.13-8.12-18.13-18.13s8.12-18.13 18.13-18.13zm-145.06 0c10.01 0 18.13 8.12 18.13 18.13s-8.12 18.13-18.13 18.13c-10.02 0-18.14-8.12-18.14-18.13s8.12-18.13 18.14-18.13zm178.89 148.2c-.29 1.44-3.04 14.44-11.04 27.76-11.78 19.63-29.53 30.44-49.99 30.44-21.8 0-36.16-5.73-45.33-11.92-9.17 6.19-23.53 11.92-45.33 11.92-20.46 0-38.21-10.81-49.99-30.44-7.99-13.32-10.75-26.32-11.04-27.76-1.73-8.66 3.89-17.09 12.56-18.83 8.63-1.73 17.05 3.86 18.81 12.49.06.3 2.08 9.53 7.48 18.25 8.85 14.29 18.88 14.29 22.18 14.29 17.51 0 25.87-4.87 29.33-7.82v-35.56c-14.33-8.7-24.57-26.99-11.2-40.36 5.31-5.31 18.13-9.06 27.2 0 9.07-9.06 21.89-5.31 27.2 0 13.37 13.37 3.13 31.66-11.2 40.36v35.56c3.46 2.95 11.82 7.82 29.33 7.82 3.3 0 13.33 0 22.18-14.29 5.46-8.82 7.46-18.16 7.48-18.26 1.74-8.66 10.15-14.25 18.82-12.51 8.67 1.73 14.28 10.2 12.55 18.86z"/></svg>