<svg id="Layer_1" enable-background="new 0 0 512.041 512.041" height="512" viewBox="0 0 512.041 512.041" width="512" xmlns="http://www.w3.org/2000/svg"><path d="m276.261 170.141c-.62 4.08-9.23 15.5-20.24 15.5-11.05 0-19.67-11.49-20.24-15.5 1.14-2.12 8.29-6.9 20.24-6.9 11.929 0 19.08 4.76 20.24 6.9z"/><path d="m342.97 310.161c-7.996 19.276-15.366 38.916-19.66 47.52-.86 1.72-6.86 7.25-24.09 12.17-55.186 15.79-106.36-3.913-110.49-12.17-4.344-8.705-11.553-27.977-19.66-47.52 3.04.82 6.09 1.51 9.12 2.04 44.994 55.234 110.62 55.291 155.66 0 3.03-.53 6.08-1.22 9.12-2.04z"/><path d="m294.321 306.771c-24.272 19.555-51.652 20.1-76.6 0 13.075-7.804 28.397-21.986 38.3-38 9.953 16.094 25.316 30.251 38.3 38z"/><path d="m385.091 83.771c0-75.52-64.44-83.19-84.18-83.74-13.794-.403-30.27 3.645-38.08 7.55-4.407 2.096-9.636 2.06-14.1-.21-2.75-1.21-18.84-7.88-37.6-7.34-19.74.55-84.18 8.22-84.18 83.74 0 32.687-9.568 60.793-9.07 81.2 1.567 62.631 22.292 86.289 31.28 102.45 23.33 12.56 44.18 17.22 52.65 11.57 24.1-16.06 36.89-37.61 38.11-64.09-21.03-7.25-36.17-27.58-36.17-45 0-21.68 22.96-38.66 52.27-38.66s52.27 16.98 52.27 38.66c0 17.42-15.14 37.75-36.17 45 1.22 26.48 14.01 48.03 38.11 64.09 8.47 5.65 29.32.99 52.65-11.57 9.006-16.192 29.714-39.837 31.28-102.45.503-20.631-9.07-48.204-9.07-81.2zm-215.2 72.53c-12.52 0-22.67-10.14-22.67-22.66s10.15-22.67 22.67-22.67 22.66 10.15 22.66 22.67-10.14 22.66-22.66 22.66zm172.259 0c-12.52 0-22.66-10.14-22.66-22.66s10.14-22.67 22.66-22.67 22.67 10.15 22.67 22.67-10.15 22.66-22.67 22.66z"/><path d="m512.021 364.841c0 49.29-10.98 72.66-18.36 76.35-14.04 7.03-16.64 23.11-18.92 37.3-.85 5.23-2.57 15.92-4.76 18.64-10.658.67-40.005-24.323-68.97 8.77-4.82 5.51-5.74 6.14-8.99 6.14-19.914 0-65.6-39.675-65.6-65.6 0-25.491 18.647-38.276 19.89-66.34 2.26-2.49 4.16-5.18 5.62-8.11 9.462-18.924 27.445-72.675 44.34-98.01 18.74-28.11 28.79-64.52 29.88-108.21.508-20.605-5.855-42.455-8.21-65.82 20.392 27.339 39.394 64.584 31.09 97.81-8.68 34.71 1.89 67.27 31.41 96.79 17.64 17.65 31.58 31.58 31.58 70.29z"/><path d="m185.621 446.441c0 26.179-46.097 65.6-65.6 65.6-3.25 0-4.17-.63-8.99-6.14-4.49-5.13-10.63-12.15-21.26-15.38-21.243-6.483-40.27 7.078-47.71 6.61-2.19-2.72-3.91-13.41-4.76-18.64-2.28-14.19-4.88-30.27-18.92-37.3-7.38-3.69-18.36-27.06-18.36-76.35 0-38.71 13.94-52.64 31.58-70.29 29.52-29.52 40.09-62.08 31.41-96.79s11.93-72.17 31.09-97.81c-2.36 23.416-8.719 45.172-8.21 65.82 1.09 43.69 11.14 80.1 29.88 108.21 11.17 16.75 23.23 46.9 32.04 68.92 10.939 27.349 12.846 31.622 17.92 37.19 1.232 27.853 19.89 40.948 19.89 66.35z"/></svg>