<svg id="Layer_1" enable-background="new 0 0 511.874 511.874" height="512" viewBox="0 0 511.874 511.874" width="512" xmlns="http://www.w3.org/2000/svg"><path d="m336.93 425.422c-17.193 19.533-61.704 47.566-88.17 58.98-12.342-25.862-47.515-51.653-71.35-63.07 13.55-22.44 24.87-19.61 29.38-18.49 22.56 5.64 38.63.38 49.21-7.84 10.58 8.22 26.65 13.49 49.21 7.84 4.77-1.19 17.14-4.28 31.72 22.58z"/><path d="m267.2 328.392c0 6.75-6.58 20.62-11.2 24.28-4.62-3.66-11.2-17.53-11.2-24.28 0-2.72 4.36-6.67 11.2-6.67s11.2 3.95 11.2 6.67z"/><path d="m488.87 153.132c-32.57-29.14-90.32-45.61-140.44-40.04-9.451 1.048-17.76-6.365-17.76-15.9 0-13.58 14.13-19.77 20.92-22.74 8.651-3.777 20.332-7.648 29.34-10.39-34.242-11.711-80.75-8.33-90.11-8.33-12.497 0-12.014-9.282-37.97-28.26.317 8.759-1.593 17.873-7.84 24.12 0 .149-5.021 5.387-12.72 4.86-42.49-3.18-77.71-.35-101.14 7.63 23.095 7.265 50.18 14.611 50.18 33.11 0 9.549-8.321 16.946-17.76 15.9-75.814-8.439-163.57 33.646-163.57 83.83 0 13.467 3.729 29.643 6.64 46.01 8.007-12.976 28.283-8.52 29.57 7.24.14 1.394-.055 3.274-.11 3.39-1.25 9.27-1.93 18.61-2.07 27.31 20.54-52.49 54.33-127.15 122.24-127.15 8.83 0 16 7.16 16 16s-7.17 16-16 16c-29.292 0-50.064 23.396-65.11 48.42.685 1.571.837 2.419 1.41 4.71 9.19 36.74 6.95 75.48-6.47 112.03-.45 1.22-.87 2.44-1.27 3.65l5.72-5.72c10.059-10.059 27.32-2.918 27.32 11.31 0 .42.51 38.57 22.29 63.95 14.715-34.215 38.437-61.264 74.39-52.27 7.04 1.76 12.26 1.62 16.13.58-10.789-12.06-17.88-31.497-17.88-43.99 0-21.32 19.38-38.67 43.2-38.67s43.2 17.35 43.2 38.67c0 12.447-7.044 31.878-17.88 43.99 3.87 1.04 9.09 1.18 16.13-.58 30.827-7.711 53.256 11.374 68.11 39.18 6.671 5.212 6.021 12.398 6.28 13.09 21.78-25.38 22.29-63.54 22.29-63.99.088-14.215 17.303-21.288 27.32-11.27l5.72 5.72c-.4-1.21-.82-2.42-1.27-3.65-13.611-37.071-15.725-75.186-5.9-114.31.21-.84.5-1.65.84-2.43-15.039-25.012-35.812-48.42-65.11-48.42-8.83 0-16-7.16-16-16s7.17-16 16-16c67.88 0 101.67 74.6 122.22 127.09-.31-14.86-2.04-27.09-2.06-27.23-2.443-17.096 20.415-25.383 29.47-10.65 7.084-39.825 15.329-61.299-16.49-89.8zm-309.94 116.32c-12.52 0-22.66-10.14-22.66-22.66s10.14-22.67 22.66-22.67 22.67 10.15 22.67 22.67-10.15 22.66-22.67 22.66zm176.8-22.66c0 12.52-10.14 22.66-22.66 22.66s-22.67-10.14-22.67-22.66 10.15-22.67 22.67-22.67 22.66 10.15 22.66 22.67z"/></svg>