<svg id="Layer_1" enable-background="new 0 0 512.085 512.085" height="512" viewBox="0 0 512.085 512.085" width="512" xmlns="http://www.w3.org/2000/svg"><path d="m285.232 327.6c-.474 8.697-3.302 15.156-6.78 19.25-5.172 6.51-10.593 8.566-22.48 14.51-13.53-6.765-28.063-11.779-29.26-33.76 6.329-3.282 20.964-4.864 29.26-4.89 8.1.025 22.959 1.623 29.26 4.89z"/><path d="m511.852 184.21c-2.014-42.293-32.141-55.549-71.46-71.19-15.465-6.235-84.547-36.989-87.64-27.92-3.802 11.429-18.327 14.432-26.22 6.52-13.217-7.909-70.44-4.66-70.54-4.66-1.316 0-15.871-1.039-33.48-.61-7.622.19-29.94.986-37.1 5.27-7.83 7.849-22.392 4.985-26.22-6.52-3.192-9.359-78.148 24.093-87.64 27.92-45.798 18.218-72.211 31.325-71.54 80.22 1.301 65.636 33.005 125.444 82.6 165.3 16.398-19.71 21.843-49.86 22.47-75.46-.804-4.882-1.849-13.141-.24-17.81-.96-19.308-10.655-89.887 19.36-137.2 3.369-5.231 8.419-11.806 13.37-15.49 7.07-5.31 17.1-3.87 22.4 3.2 5.22 6.96 3.91 16.79-2.88 22.15-.008.008-.051.051-.06.06-1.69 1.54-26.83 26.05-21.85 103.55.692 10.37 2.115 21.572 1.97 38.47 6.187 25.851 34.399 49.206 43.33 76.04 6.957 20.702 9.047 51.925 16.18 67.76 2.402 5.065 2.968 5.071 7.18 4.58.106-.021 5.956-.837 11.41-3.02 7.942-2.921 18.736-8.785 24.72-14.15v-22.09l-9.29-4.64c-23.763-11.882-36.04-33.413-36.04-59.65 0-26.771 34.978-34.13 61.79-34.13 26.7.334 60.87 7.519 60.87 34.13 0 20.97-7.81 38.49-22.31 50.69-7.345 6.187-13.322 8.756-23.02 13.6v22.09c10.973 9.839 34.325 19.155 40.34 17.15 7.711-5.956 11.541-46.174 17.74-67.75 10.692-33.662 38.298-53.694 44.74-80.61-.146-17.006 1.246-27.623 1.97-38.47 1.974-30.712-.272-81.972-21.91-103.61-6.79-5.36-8.1-15.19-2.88-22.15 5.3-7.07 15.33-8.51 22.4-3.2 3.191 2.394 6.808 6.431 9.24 9.61 25.876 32.628 28.076 89.936 24.29 131.57-.109 1.681-.487 5.224-.8 11.51 1.667 4.835.601 12.704-.24 17.81.627 25.633 6.084 55.764 22.47 75.46 56.694-45.56 85.672-114.809 82.52-174.33zm-328.41 31.83c-10.02 0-18.14-8.11-18.14-18.13 0-10.01 8.12-18.13 18.14-18.13 10.01 0 18.13 8.12 18.13 18.13 0 10.02-8.12 18.13-18.13 18.13zm145.06 0c-10.01 0-18.13-8.11-18.13-18.13 0-10.01 8.12-18.13 18.13-18.13 10.02 0 18.14 8.12 18.14 18.13 0 10.02-8.12 18.13-18.14 18.13z"/></svg>