<svg id="Layer_1" enable-background="new 0 0 512 512" height="512" viewBox="0 0 512 512" width="512" xmlns="http://www.w3.org/2000/svg"><path d="m380.894 131.533c-1.642-1.745-2.958-3.505-4.192-5.997-6.298-7.732-27.56-19.758-44.821-26.658-8.234-3.289-12.236-12.627-8.946-20.861 3.3-8.224 12.627-12.226 20.861-8.936 7.142 2.86 17.949 7.879 28.874 14.001 1.05-21.677 3.681-44.916 3.681-53.666-.001-28.052-4.063-29.416-11.233-29.416-.09 0-10.781.662-39.706 31.592-16.137 17.24-29.165 34.561-29.295 34.731-3.029 4.042-7.783 6.419-12.837 6.419h-54.559c-5.055 0-9.809-2.377-12.837-6.419-.13-.17-13.309-17.672-29.466-34.921-28.804-30.75-39.445-31.402-39.546-31.402-7.161 0-11.223 1.364-11.223 29.416 0 8.599 2.651 32.403 3.681 53.666 10.483-5.874 21.251-10.948 28.874-14.001 8.224-3.289 17.571.712 20.861 8.936s-.712 17.561-8.936 20.861c-17.28 6.93-38.552 18.965-44.84 26.668-1.023 2.086-2.257 3.891-3.711 5.476-16.244 18.413-77.766 117.254-77.766 143.909 0 9.357.652 18.083 1.595 25.805 5.255-3.309 11.473-5.476 18.734-5.476 10.969 0 18.666 10.754 15.224 21.122-4.854 14.542 1.444 46.596 14.963 80.464.371-.702.682-1.304.923-1.785 5.654-11.308 21.591-11.916 28.112-1.083 12.795 21.605 36.35 57.961 51.781 77.897.782-1.715 1.464-3.109 1.946-4.072 5.658-11.316 21.63-11.898 28.112-1.073 8.424 13.979 25.965 36.876 40.798 45.27 14.903-8.404 32.414-31.291 40.799-45.271 6.539-10.885 22.476-10.199 28.112 1.073.481.963 1.164 2.357 1.946 4.072 15.46-19.973 39.02-56.349 51.781-77.897 6.551-10.882 22.48-10.181 28.112 1.083.281.551.582 1.153.923 1.785 13.519-33.869 19.818-65.922 14.963-80.464-3.442-10.369 4.257-21.122 15.224-21.122 7.271 0 13.479 2.166 18.734 5.476.943-7.722 1.595-16.448 1.595-25.805 0-27.733-66.32-132.332-77.295-143.397zm-61.239 16.097c10.039 0 18.183 8.143 18.183 18.183 0 10.049-8.144 18.193-18.183 18.193-10.049 0-18.193-8.143-18.193-18.193 0-10.04 8.144-18.183 18.193-18.183zm-127.31 0c10.049 0 18.193 8.143 18.193 18.183 0 10.049-8.144 18.193-18.193 18.193-10.039 0-18.183-8.143-18.183-18.193 0-10.04 8.144-18.183 18.183-18.183zm169.613 78.378c-.271.722-27.069 72.311-35.834 107.373-6.587 26.392-31.61 41.198-70.124 23.298-38.533 17.909-63.542 3.076-70.124-23.298-8.766-35.062-35.563-106.651-35.834-107.373-3.109-8.294 1.093-17.551 9.387-20.66 8.304-3.109 17.551 1.093 20.66 9.397 1.133 2.998 27.711 74.015 36.918 110.852 1.294 5.175 3.099 5.917 3.691 6.158 4.022 1.675 12.185-.261 19.256-3.119 0-8.232-.329-10.717 1.264-14.492-15.717-9.051-27.196-32.732-12.837-44.349 7.071-5.716 15.054-4.012 20.339-2.888 6.6 1.428 7.961 1.429 14.562 0 5.285-1.123 13.269-2.828 20.339 2.888 14.316 11.583 2.948 35.259-12.837 44.349 1.6 3.792 1.264 6.127 1.264 14.472 7.03 2.858 15.174 4.854 19.276 3.139.582-.251 2.377-.993 3.671-6.158 9.207-36.837 35.784-107.854 36.918-110.852 3.109-8.304 12.356-12.507 20.66-9.397 8.292 3.109 12.494 12.366 9.385 20.66z"/></svg>