<svg id="Layer_1" enable-background="new 0 0 512 512" height="512" viewBox="0 0 512 512" width="512" xmlns="http://www.w3.org/2000/svg"><path d="m256 333.127c-10.64-4.65-33.92-16.86-29.81-33.3.2-.82.48-1.94 4.41-3.32 11.331-3.952 53.347-4.235 55.21 3.31 4.11 16.45-19.19 28.67-29.81 33.31z"/><path d="m281.19 395.447c-15.204 3.107-34.703 3.204-50.38 0 8.989-4.85 17.892-11.032 25.19-17.99 7.304 6.963 16.209 13.144 25.19 17.99z"/><path d="m512 286.877c0 24.32-28.31 47.66-51.06 66.41-22.13 18.24-39.61 32.64-39.61 51.45 0 19.811 12.656 36.99 17.9 48.81-21.354 3.677-74.931-19.02-67.58-92.55 4.02-40.16 13.86-67.91 22.68-92.31 13.71-24.03 27.52-56.63 31.75-107.42 1.9-22.87-.83-43.15-8.13-60.66 16.389 2.341 94.05 134.948 94.05 186.27z"/><path d="m256 58.077c-79.785 0-144.797 21.085-138.19 100.54 4.615 55.328 20.493 84.215 41.84 116.95 4.31-16.9 8.21-28.74 8.64-30.02 2.79-8.38 11.86-12.91 20.24-10.12 8.38 2.8 12.91 11.86 10.12 20.24-9.737 29.254-23.727 88.224-17.63 118.74.19.93.41 1.25.42 1.26.63.51 5.75 2.05 16.84-1.14 12.93-3.73 25.08-11.06 33.11-17.92-25.24-14.126-43.261-36.492-36.25-64.55 7.57-30.25 44.91-30.25 60.86-30.25 26.82 0 54.352 4.199 60.86 30.25 7.011 28.057-11.008 50.423-36.25 64.55 8.03 6.86 20.18 14.19 33.11 17.92 11.07 3.19 16.19 1.65 16.88 1.1 0-.109 3.834-9.876.81-38.58-.728-2.322-.769-4.025-.72-6.21-3.82-29.66-12.68-61.19-17.34-75.17-2.79-8.38 1.74-17.44 10.12-20.24 8.38-2.79 17.45 1.74 20.24 10.12.43 1.28 4.33 13.12 8.64 30.02 21.269-32.614 37.183-61.111 41.84-116.95 6.613-79.52-58.517-100.54-138.19-100.54zm-81.6 110.93c-10.01 0-18.13-8.12-18.13-18.13 0-10.02 8.12-18.14 18.13-18.14s18.13 8.12 18.13 18.14c0 10.01-8.12 18.13-18.13 18.13zm163.2 0c-10.01 0-18.13-8.12-18.13-18.13 0-10.02 8.12-18.14 18.13-18.14s18.13 8.12 18.13 18.14c0 10.01-8.12 18.13-18.13 18.13z"/><path d="m113.21 439.807c-15.12 12.08-32.02 15.19-40.44 13.74 1.3-2.93 3.33-6.7 4.85-9.53 24.635-45.878 13.665-57.576-26.56-90.73-22.75-18.75-51.06-42.09-51.06-66.41 0-51.352 77.71-183.936 94.05-186.27-7.3 17.51-10.03 37.79-8.13 60.66 4.23 50.79 18.04 83.39 31.75 107.42 8.82 24.4 18.66 52.15 22.68 92.31 4.37 43.71-12.35 66.98-27.14 78.81z"/></svg>