<svg id="Layer_1" enable-background="new 0 0 511.77 511.77" height="512" viewBox="0 0 511.77 511.77" width="512" xmlns="http://www.w3.org/2000/svg"><path d="m421.215 310.17c0-11.407 11.609-19.113 22.09-14.8-11.94-21.29-22.52-48.44-39.74-117.32-17.79-71.16-66.1-105.75-147.68-105.75s-129.89 34.59-147.68 105.75c-17.22 68.88-27.8 96.03-39.74 117.32 10.508-4.324 22.09 3.42 22.09 14.8 0 19.13-17.723 32.353-28.94 47.03 36.703 9.9 77.638 59.961 95.96 93.53 2.68-3.95 4.65-6.06 5.4-6.81 6.588-6.588 17.459-6.196 23.54 1 23.49 27.86 53.46 60.1 63.33 66.85h12.08c9.87-6.75 39.84-38.99 63.33-66.85 2.89-3.42 7.08-5.48 11.55-5.67 8.345-.336 12.845 4.782 17.39 11.48 18.272-33.478 59.206-83.616 95.96-93.53-11.236-14.702-28.94-27.899-28.94-47.03zm-83.73-136c10.01 0 18.13 8.12 18.13 18.13 0 10.02-8.12 18.14-18.13 18.14s-18.13-8.12-18.13-18.14c0-10.01 8.12-18.13 18.13-18.13zm-163.2 0c10.01 0 18.13 8.12 18.13 18.13 0 10.02-8.12 18.14-18.13 18.14s-18.13-8.12-18.13-18.14c0-10.01 8.12-18.13 18.13-18.13zm196.72 149.46c-.2.71-5.04 17.49-13.54 34.5-11.65 23.29-25.11 36.65-40.08 39.82-9.84 8.74-34.56 27.95-61.5 27.95s-51.66-19.21-61.5-27.95c-14.97-3.17-28.43-16.53-40.08-39.82-8.5-17.01-13.34-33.79-13.54-34.5-2.43-8.49 2.49-17.35 10.99-19.78 8.5-2.42 17.35 2.49 19.78 10.98.08.29 4.37 15.04 11.57 29.33 9.26 18.4 16.56 22.54 18.38 22.54 7.81 0 19.02-9.65 28.45-20.74-30.172-18.447-37.848-63.86-5.07-75.56 8.87-3.17 19.3-3.43 31.02-3.43s22.15.26 31.02 3.43c32.875 11.734 24.942 57.211-5.07 75.56 6.047 7.125 19.052 20.74 28.45 20.74 1.85 0 9.22-4.21 18.56-22.89 7.18-14.37 11.35-28.82 11.39-28.97 2.43-8.49 11.28-13.42 19.78-10.99s13.42 11.29 10.99 19.78z"/><path d="m423.015 79.66c-1.16 17.1-3.1 32.55-5.29 45.45-13.91-26.5-33.44-47-58.4-61.24 10.568-19.531 37.809-59.86 57.59-63.87 3.45 5.88 9.61 28.16 6.1 79.66z"/><path d="m152.445 63.87c-24.96 14.24-44.49 34.74-58.4 61.24-2.19-12.9-4.13-28.35-5.29-45.45-3.51-51.5 2.65-73.78 6.1-79.66 19.779 4.01 46.849 44.019 57.59 63.87z"/><path d="m278.325 386.72c-16.85 9.494-28.054 9.504-44.91.02 8.465-6.216 15.855-13.898 22.47-21.96 6.599 8.042 14.049 15.782 22.44 21.94z"/><path d="m255.885 321.37c-10.962 0-20.799-11.556-20.25-20.88 5.442-2.084 35.046-2.088 40.5 0 .541 9.19-9.142 20.88-20.25 20.88z"/></svg>