<svg id="Layer_1" enable-background="new 0 0 512 512" height="512" viewBox="0 0 512 512" width="512" xmlns="http://www.w3.org/2000/svg"><path d="m310.71 457.037c-12.53 19.86-26.8 34.79-54.71 34.79s-42.18-14.93-54.71-34.79c2.63-1.47 5.29-3.44 7.94-6.01 24.191 12.547 69.35 12.546 93.54 0 2.65 2.57 5.31 4.54 7.94 6.01z"/><path d="m285.63 423.727c-14.61 6.221-44.625 6.232-59.26 0 10.969-25.525 21.256-68.009 29.63-80.8 8.305 12.686 18.782 55.558 29.63 80.8z"/><path d="m285.33 253.137c-2.48 4.78-16.42 13.91-30.7 20.29-11.65-3.29-27.96-10.84-27.96-19.47 0-3.94.45-5.64.62-6.14 1.893-1.566 7.392-4.312 12.82-9.74 2.5-2.5 10.36-4.31 15.89-4.38 5.53.07 13.39 1.88 15.89 4.38 5.537 5.537 10.833 8.097 12.82 9.74.16.46.56 1.96.62 5.32z"/><path d="m392.19 31.537c-19.73-13.15-28.76-11.84-31.72-10.66-4.98 1.97-6.96 8.77-7.2 9.68-.01.03-.02.05-.02.07 0 1.034-1.388 5.041-4.34 7.98-6.227 6.247-16.38 6.26-22.62 0-13.45-13.45-46.3-13.45-70.29-13.45s-56.84 0-70.29 13.45c-9.057 9.087-24.382 4.202-26.95-7.95-1.35-4.034-3.287-8.22-7.23-9.78-2.96-1.18-11.99-2.49-31.72 10.66-69.42 46.29-119.81 97.88-119.81 122.69 0 31.889 57.222 82.705 80.69 123.52 2.47-11.97 5.12-28 7.7-49.41 8.429-70.373 4.889-89.846 7.38-97.27 1.78-28.563 6.676-79.705 33.07-90.64 8.68-3.6 22.45-4.47 38.74 11.82 6.25 6.25 6.25 16.38 0 22.63s-16.38 6.25-22.63 0c-2-2-3.5-3.16-4.51-3.81-10.587 14.895-13.51 64.762-13.51 83.16 0 6.442-2.837 25.266-.77 69.13 2.51 53.02 11.17 62.04 11.88 62.69 17.47 11.74 19.87 38.29 22.65 69.03 2.86 31.71 6.1 67.59 25.77 73.52 9.007-7.164 19.919-43.288 23.43-54.28 10.01-31.38 17.04-51.66 30.11-60.15v-11.83c-23.785-8.119-45.33-23.36-45.33-48.38 0-28.972 16.64-32.374 22.82-38.51 18.171-18.171 58.808-18.212 77.02 0 6.164 6.12 22.82 9.533 22.82 38.51 0 21.689-25.629 37.166-45.33 46.63v13.58c23.021 14.954 30.768 76.902 47.89 106.86 1.135 2.112 3.661 5.988 5.65 7.57 19.67-5.93 22.91-41.81 25.77-73.52 2.78-30.74 5.18-57.29 22.65-69.03.71-.65 9.37-9.67 11.88-62.69 2.235-47.444-.77-59.779-.77-69.13 0-18.36-2.909-68.226-13.51-83.16-1.01.65-2.51 1.81-4.51 3.81-6.25 6.25-16.38 6.25-22.63 0s-6.25-16.38 0-22.63c16.29-16.29 30.06-15.41 38.74-11.82 26.394 10.935 31.241 61.937 33.07 90.58 2.574 7.771-1.011 27.436 7.4 97.48 2.57 21.34 5.21 37.32 7.68 49.26 23.477-40.831 80.69-91.628 80.69-123.52 0-24.81-50.39-76.4-119.81-122.69zm-217.79 131.76c-10.01 0-18.13-8.12-18.13-18.14 0-10.01 8.12-18.13 18.13-18.13s18.13 8.12 18.13 18.13c0 10.02-8.12 18.14-18.13 18.14zm181.33-18.14c0 10.02-8.12 18.14-18.13 18.14s-18.13-8.12-18.13-18.14c0-10.01 8.12-18.13 18.13-18.13s18.13 8.12 18.13 18.13z"/></svg>