<svg id="Layer_1" enable-background="new 0 0 512 512" height="512" viewBox="0 0 512 512" width="512" xmlns="http://www.w3.org/2000/svg"><path d="m394.13 97.939c0-17.65-5.72-31.32-17.5-41.81-36.98-32.94-117.96-24-118.77-23.9-4.425.633-139.99-16.66-139.99 65.71 0 96.44 8.59 131.27 25.51 165.11 19.56 39.133 8.871 61.272 10.28 66.74 2.59 10.38 18.51 22.83 39.61 30.99 24.26 9.38 46.43 9.86 53.85 4.91 5.396-3.536 12.402-3.601 17.76.01 7.43 4.94 29.6 4.45 53.85-4.92 21.1-8.16 37.02-20.61 39.61-30.99 1.429-5.545-9.335-27.496 10.28-66.74 16.92-33.84 25.51-68.67 25.51-165.11zm-95.04 6.82c21.68-21.68 52.34-10.79 65.52-2l-17.75 26.62c2.363 1.895-15.763-11.377-25.15-1.99-6.238 6.238-16.38 6.24-22.62 0-6.25-6.25-6.25-16.38 0-22.63zm-86.18 0c10.112 10.112 2.819 27.31-11.31 27.31-4.09 0-8.19-1.56-11.31-4.68-8.38-8.38-24.34 1.49-25.2 2.03.1-.08.904 1.241-17.7-26.66 13.18-8.79 43.84-19.68 65.52 2zm-43.04 83.84c-12.52 0-22.67-10.14-22.67-22.66s10.15-22.67 22.67-22.67 22.66 10.15 22.66 22.67-10.14 22.66-22.66 22.66zm148.49 158.41c-7.215 5.233-17.203 3.534-22.35-3.57-6.726-9.28-6.815-9.155-17.29-13.36-41.657-16.613-3.783-16.613-45.44 0-10.513 4.22-10.574 4.094-17.29 13.36-5.149 7.106-15.138 8.801-22.35 3.57-7.15-5.18-8.75-15.18-3.57-22.34 10.736-14.864 15.717-18.051 31.33-24.3 13.82-5.52 18.6-8.1 18.6-21.1 0-1.84.32-3.59.89-5.24-16-6.57-28.09-22.42-28.09-35.56 0-39.404 86.4-39.53 86.4 0 0 13.14-12.09 28.99-28.09 35.56.57 1.65.89 3.4.89 5.24 0 13 4.78 15.58 18.6 21.1 15.431 6.176 20.474 9.269 31.33 24.3 5.18 7.16 3.58 17.16-3.57 22.34zm23.77-158.41c-12.52 0-22.66-10.14-22.66-22.66s10.14-22.67 22.66-22.67 22.67 10.15 22.67 22.67-10.15 22.66-22.67 22.66z"/><path d="m512 315.539c0 25.19 0 101.86-29.33 101.86-21.15 0-35.32 4.47-44.61 14.04-16.057 16.548-8.818 40.257-10.94 48.47-5.403 2.027-33.146 2.986-47.79-15.78-9.03-11.56-12.12-28.8-8.07-44.98 7.423-29.829 15.379-47.919 8.02-61.61 4.62-5.88 8.24-12.53 10.11-19.99 4.679-18.688-8.575-27.34 7.85-60.19 19.16-38.32 28.89-76.59 28.89-179.42 0-4.38-.27-8.62-.78-12.74 38.129-.261 50.38 29.048 50.38 67.14 0 110.579 36.27 106.952 36.27 163.2z"/><path d="m132.67 464.129c-8.67 11.11-22.09 16.74-39.87 16.74-4.76 0-7.04-.63-7.92-.96-2.721-10.53 13.608-62.51-55.55-62.51-29.33 0-29.33-76.67-29.33-101.86 0-56.227 36.27-52.557 36.27-163.2 0-38.104 12.259-67.401 50.38-67.14-.51 4.12-.78 8.36-.78 12.74 0 102.83 9.73 141.1 28.89 179.42 16.424 32.849 3.176 41.523 7.85 60.19 1.87 7.46 5.49 14.11 10.11 19.99-7.347 13.668.549 31.585 8.02 61.61 4.05 16.18.96 33.42-8.07 44.98z"/></svg>